{
.appVersion = "3133";
classes = (
{

glyphs = (
{
glyphname = exclam;
layers = (
{
layerId = "5492647A-5722-481A-83CB-54A7AD0E630B";
paths = (
{
closed = 1;
nodes = (
"200 164 OFFCURVE",
"252 216 OFFCURVE",
"318 216 CURVE SMOOTH",
"384 216 OFFCURVE",
"436 164 OFFCURVE",
"436 98 CURVE SMOOTH",
"436 32 OFFCURVE",
"384 -20 OFFCURVE",
"318 -20 CURVE SMOOTH",
"252 -20 OFFCURVE",
"200 32 OFFCURVE",
"200 98 CURVE SMOOTH"
);
},
{
closed = 1;
nodes = (
"415 977 OFFCURVE",
"360 732 OFFCURVE",
"356 445 CURVE SMOOTH",
"356 423 OFFCURVE",
"356 416 OFFCURVE",
"332 416 CURVE SMOOTH",
"301 416 LINE SMOOTH",
"282 416 OFFCURVE",
"280 422 OFFCURVE",
"280 440 CURVE SMOOTH",
"277 729 OFFCURVE",
"221 975 OFFCURVE",
"200 1318 CURVE SMOOTH",
"200 1332 OFFCURVE",
"200 1344 OFFCURVE",
"200 1356 CURVE SMOOTH",
"200 1448 OFFCURVE",
"224 1516 OFFCURVE",
"318 1516 CURVE SMOOTH",
"412 1516 OFFCURVE",
"438 1448 OFFCURVE",
"438 1356 CURVE SMOOTH",
"438 1344 OFFCURVE",
"436 1332 OFFCURVE",
"436 1318 CURVE SMOOTH"
);
}
);
vertWidth = 0;
width = 638;
},
{
layerId = "7D0224F7-CECC-4B04-BE8C-3FB6AAD34500";
paths = (
{
closed = 1;
nodes = (
"160 332 OFFCURVE",
"268 440 OFFCURVE",
"400 440 CURVE SMOOTH",
"532 440 OFFCURVE",
"640 332 OFFCURVE",
"640 200 CURVE SMOOTH",
"640 68 OFFCURVE",
"532 -40 OFFCURVE",
"400 -40 CURVE SMOOTH",
"268 -40 OFFCURVE",
"160 68 OFFCURVE",
"160 200 CURVE SMOOTH"
);
},
{
closed = 1;
nodes = (
"616 912 OFFCURVE",
"498 879 OFFCURVE",
"487 616 CURVE SMOOTH",
"486 590 OFFCURVE",
"484 576 OFFCURVE",
"453 576 CURVE SMOOTH",
"353 576 LINE SMOOTH",
"312 576 OFFCURVE",
"311 588 OFFCURVE",
"309 624 CURVE SMOOTH",
"296 879 OFFCURVE",
"180 916 OFFCURVE",
"140 1248 CURVE SMOOTH",
"138 1262 OFFCURVE",
"140 1274 OFFCURVE",
"140 1286 CURVE SMOOTH",
"140 1458 OFFCURVE",
"264 1536 OFFCURVE",
"398 1536 CURVE SMOOTH",
"532 1536 OFFCURVE",
"658 1458 OFFCURVE",
"658 1286 CURVE SMOOTH",
"658 1274 OFFCURVE",
"658 1262 OFFCURVE",
"656 1248 CURVE SMOOTH"
);
}
);
vertWidth = 0;
width = 798;
},
{
layerId = "D7E1B457-BD34-420B-BB40-96ED806E1977";
paths = (
{
closed = 1;
nodes = (
"200 164 OFFCURVE",
"252 216 OFFCURVE",
"318 216 CURVE SMOOTH",
"384 216 OFFCURVE",
"436 164 OFFCURVE",
"436 98 CURVE SMOOTH",
"436 32 OFFCURVE",
"384 -20 OFFCURVE",
"318 -20 CURVE SMOOTH",
"252 -20 OFFCURVE",
"200 32 OFFCURVE",
"200 98 CURVE SMOOTH"
);
},
{
closed = 1;
nodes = (
"415 977 OFFCURVE",
"360 732 OFFCURVE",
"356 445 CURVE SMOOTH",
"356 423 OFFCURVE",
"356 416 OFFCURVE",
"332 416 CURVE SMOOTH",
"301 416 LINE SMOOTH",
"282 416 OFFCURVE",
"280 422 OFFCURVE",
"280 440 CURVE SMOOTH",
"277 729 OFFCURVE",
"221 975 OFFCURVE",
"200 1318 CURVE SMOOTH",
"200 1332 OFFCURVE",
"200 1344 OFFCURVE",
"200 1356 CURVE SMOOTH",
"200 1448 OFFCURVE",
"224 1516 OFFCURVE",
"318 1516 CURVE SMOOTH",
"412 1516 OFFCURVE",
"438 1448 OFFCURVE",
"438 1356 CURVE SMOOTH",
"438 1344 OFFCURVE",
"436 1332 OFFCURVE",
"436 1318 CURVE SMOOTH"
);
}
);
vertWidth = 0;
width = 638;
},
{
layerId = "C903388A-C428-42EA-B608-801ADA807095";
paths = (
{
closed = 1;
nodes = (
"160 332 OFFCURVE",
"268 440 OFFCURVE",
"400 440 CURVE SMOOTH",
"532 440 OFFCURVE",
"640 332 OFFCURVE",
"640 200 CURVE SMOOTH",
"640 68 OFFCURVE",
"532 -40 OFFCURVE",
"400 -40 CURVE SMOOTH",
"268 -40 OFFCURVE",
"160 68 OFFCURVE",
"160 200 CURVE SMOOTH"
);
},
{
closed = 1;
nodes = (
"616 912 OFFCURVE",
"498 879 OFFCURVE",
"487 616 CURVE SMOOTH",
"486 590 OFFCURVE",
"484 576 OFFCURVE",
"453 576 CURVE SMOOTH",
"353 576 LINE SMOOTH",
"312 576 OFFCURVE",
"311 588 OFFCURVE",
"309 624 CURVE SMOOTH",
"296 879 OFFCURVE",
"180 916 OFFCURVE",
"140 1248 CURVE SMOOTH",
"138 1262 OFFCURVE",
"140 1274 OFFCURVE",
"140 1286 CURVE SMOOTH",
"140 1458 OFFCURVE",
"264 1536 OFFCURVE",
"398 1536 CURVE SMOOTH",
"532 1536 OFFCURVE",
"658 1458 OFFCURVE",
"658 1286 CURVE SMOOTH",
"658 1274 OFFCURVE",
"658 1262 OFFCURVE",
"656 1248 CURVE SMOOTH"
);
}
);
vertWidth = 0;
width = 798;
}
);
unicode = 0021;
},
{
glyphname = numbersign;
layers = (
{
layerId = "5492647A-5722-481A-83CB-54A7AD0E630B";
paths = (
{
closed = 1;
nodes = (
"546 1610 LINE SMOOTH",
"568 1610 OFFCURVE",
"569 1605 OFFCURVE",
"567 1584 CURVE SMOOTH",
"513 1121 LINE SMOOTH",
"509 1085 OFFCURVE",
"508 1080 OFFCURVE",
"550 1080 CURVE SMOOTH",
"817 1080 LINE SMOOTH",
"859 1080 OFFCURVE",
"859 1082 OFFCURVE",
"863 1119 CURVE SMOOTH",
"917 1581 LINE SMOOTH",
"920 1606 OFFCURVE",
"917 1610 OFFCURVE",
"946 1610 CURVE SMOOTH",
"998 1610 LINE SMOOTH",
"1031 1610 OFFCURVE",
"1029 1608 OFFCURVE",
"1026 1579 CURVE SMOOTH",
"973 1120 LINE SMOOTH",
"968 1080 OFFCURVE",
"968 1080 OFFCURVE",
"1013 1080 CURVE SMOOTH",
"1317 1080 LINE SMOOTH",
"1336 1080 OFFCURVE",
"1340 1073 OFFCURVE",
"1340 1053 CURVE SMOOTH",
"1340 996 LINE SMOOTH",
"1340 976 OFFCURVE",
"1333 970 OFFCURVE",
"1314 970 CURVE SMOOTH",
"985 970 LINE SMOOTH",
"957 970 OFFCURVE",
"956 970 OFFCURVE",
"953 945 CURVE SMOOTH",
"912 597 LINE SMOOTH",
"909 568 OFFCURVE",
"909 560 OFFCURVE",
"945 560 CURVE SMOOTH",
"1255 560 LINE SMOOTH",
"1276 560 OFFCURVE",
"1280 553 OFFCURVE",
"1280 531 CURVE SMOOTH",
"1280 485 LINE SMOOTH",
"1280 453 OFFCURVE",
"1269 450 OFFCURVE",
"1239 450 CURVE SMOOTH",
"922 450 LINE SMOOTH",
"895 450 OFFCURVE",
"895 449 OFFCURVE",
"892 425 CURVE SMOOTH",
"833 -84 LINE SMOOTH",
"830 -109 OFFCURVE",
"830 -110 OFFCURVE",
"802 -110 CURVE SMOOTH",
"753 -110 LINE SMOOTH",
"719 -110 OFFCURVE",
"721 -109 OFFCURVE",
"724 -79 CURVE SMOOTH",
"782 420 LINE SMOOTH",
"785 446 OFFCURVE",
"782 450 OFFCURVE",
"746 450 CURVE SMOOTH",
"471 450 LINE SMOOTH",
"439 450 OFFCURVE",
"435 452 OFFCURVE",
"432 423 CURVE SMOOTH",
"373 -86 LINE SMOOTH",
"370 -109 OFFCURVE",
"371 -110 OFFCURVE",
"345 -110 CURVE SMOOTH",
"282 -110 LINE SMOOTH",
"256 -110 OFFCURVE",
"260 -105 OFFCURVE",
"263 -83 CURVE SMOOTH",
"321 414 LINE SMOOTH",
"324 442 OFFCURVE",
"323 450 OFFCURVE",
"289 450 CURVE SMOOTH",
"4 450 LINE SMOOTH",
"-18 450 OFFCURVE",
"-20 457 OFFCURVE",
"-20 480 CURVE SMOOTH",
"-20 535 LINE SMOOTH",
"-20 558 OFFCURVE",
"-13 560 OFFCURVE",
"11 560 CURVE SMOOTH",
"308 560 LINE SMOOTH",
"344 560 OFFCURVE",
"338 568 OFFCURVE",
"342 598 CURVE SMOOTH",
"383 943 LINE SMOOTH",
"386 967 OFFCURVE",
"387 970 OFFCURVE",
"359 970 CURVE SMOOTH",
"72 970 LINE SMOOTH",
"42 970 OFFCURVE",
"40 978 OFFCURVE",
"40 1009 CURVE SMOOTH",
"40 1047 LINE SMOOTH",
"40 1070 OFFCURVE",
"41 1080 OFFCURVE",
"64 1080 CURVE SMOOTH",
"356 1080 LINE SMOOTH",
"395 1080 OFFCURVE",
"399 1084 OFFCURVE",
"402 1114 CURVE SMOOTH",
"457 1585 LINE SMOOTH",
"460 1609 OFFCURVE",
"459 1610 OFFCURVE",
"486 1610 CURVE SMOOTH"
);
},
{
closed = 1;
nodes = (
"544 970 LINE SMOOTH",
"499 970 OFFCURVE",
"495 962 OFFCURVE",
"491 931 CURVE SMOOTH",
"452 596 LINE SMOOTH",
"448 562 OFFCURVE",
"455 560 OFFCURVE",
"488 560 CURVE SMOOTH",
"756 560 LINE SMOOTH",
"794 560 OFFCURVE",
"799 568 OFFCURVE",
"802 593 CURVE SMOOTH",
"841 927 LINE SMOOTH",
"846 969 OFFCURVE",
"838 970 OFFCURVE",
"801 970 CURVE SMOOTH"
);
}
);
vertWidth = 0;
width = 1320;
},
{
layerId = "7D0224F7-CECC-4B04-BE8C-3FB6AAD34500";
paths = (
{
closed = 1;
nodes = (
"583 1610 LINE SMOOTH",
"621 1610 OFFCURVE",
"630 1610 OFFCURVE",
"626 1576 CURVE SMOOTH",
"575 1136 LINE SMOOTH",
"572 1107 OFFCURVE",
"574 1100 OFFCURVE",
"609 1100 CURVE SMOOTH",
"749 1100 LINE SMOOTH",
"793 1100 OFFCURVE",
"800 1095 OFFCURVE",
"805 1136 CURVE SMOOTH",
"855 1568 LINE SMOOTH",
"860 1608 OFFCURVE",
"866 1610 OFFCURVE",
"911 1610 CURVE SMOOTH",
"1023 1610 LINE SMOOTH",
"1066 1610 OFFCURVE",
"1070 1607 OFFCURVE",
"1066 1574 CURVE SMOOTH",
"1016 1148 LINE SMOOTH",
"1011 1104 OFFCURVE",
"1016 1100 OFFCURVE",
"1067 1100 CURVE SMOOTH",
"1305 1100 LINE SMOOTH",
"1334 1100 OFFCURVE",
"1340 1094 OFFCURVE",
"1340 1064 CURVE SMOOTH",
"1340 938 LINE SMOOTH",
"1340 891 OFFCURVE",
"1327 890 OFFCURVE",
"1283 890 CURVE SMOOTH",
"1035 890 LINE SMOOTH",
"994 890 OFFCURVE",
"986 894 OFFCURVE",
"982 856 CURVE SMOOTH",
"962 680 LINE SMOOTH",
"957 635 OFFCURVE",
"963 640 OFFCURVE",
"1011 640 CURVE SMOOTH",
"1239 640 LINE SMOOTH",
"1277 640 OFFCURVE",
"1280 633 OFFCURVE",
"1280 594 CURVE SMOOTH",
"1280 464 LINE SMOOTH",
"1280 434 OFFCURVE",
"1271 430 OFFCURVE",
"1243 430 CURVE SMOOTH",
"971 430 LINE SMOOTH",
"933 430 OFFCURVE",
"933 430 OFFCURVE",
"929 396 CURVE SMOOTH",
"873 -74 LINE SMOOTH",
"869 -105 OFFCURVE",
"868 -110 OFFCURVE",
"833 -110 CURVE SMOOTH",
"717 -110 LINE SMOOTH",
"675 -110 OFFCURVE",
"661 -109 OFFCURVE",
"666 -68 CURVE SMOOTH",
"715 366 LINE SMOOTH",
"721 415 OFFCURVE",
"735 430 OFFCURVE",
"675 430 CURVE SMOOTH",
"549 430 LINE SMOOTH",
"509 430 OFFCURVE",
"492 427 OFFCURVE",
"488 389 CURVE SMOOTH",
"436 -58 LINE SMOOTH",
"430 -108 OFFCURVE",
"431 -110 OFFCURVE",
"375 -110 CURVE SMOOTH",
"273 -110 LINE SMOOTH",
"211 -110 OFFCURVE",
"221 -101 OFFCURVE",
"227 -48 CURVE SMOOTH",
"277 372 LINE SMOOTH",
"283 422 OFFCURVE",
"281 430 OFFCURVE",
"225 430 CURVE SMOOTH",
"31 430 LINE SMOOTH",
"-17 430 OFFCURVE",
"-20 437 OFFCURVE",
"-20 486 CURVE SMOOTH",
"-20 598 LINE SMOOTH",
"-20 639 OFFCURVE",
"-11 640 OFFCURVE",
"31 640 CURVE SMOOTH",
"263 640 LINE SMOOTH",
"310 640 OFFCURVE",
"307 643 OFFCURVE",
"312 684 CURVE SMOOTH",
"333 850 LINE SMOOTH",
"337 883 OFFCURVE",
"333 890 OFFCURVE",
"297 890 CURVE SMOOTH",
"93 890 LINE SMOOTH",
"47 890 OFFCURVE",
"40 893 OFFCURVE",
"40 938 CURVE SMOOTH",
"40 1056 LINE SMOOTH",
"40 1094 OFFCURVE",
"45 1100 OFFCURVE",
"85 1100 CURVE SMOOTH",
"321 1100 LINE SMOOTH",
"364 1100 OFFCURVE",
"362 1104 OFFCURVE",
"366 1142 CURVE SMOOTH",
"415 1564 LINE SMOOTH",
"419 1598 OFFCURVE",
"421 1610 OFFCURVE",
"462 1610 CURVE SMOOTH"
);
},
{
closed = 1;
nodes = (
"589 890 LINE SMOOTH",
"539 890 OFFCURVE",
"545 880 OFFCURVE",
"540 838 CURVE SMOOTH",
"523 690 LINE SMOOTH",
"518 648 OFFCURVE",
"522 640 OFFCURVE",
"571 640 CURVE SMOOTH",
"705 640 LINE SMOOTH",
"744 640 OFFCURVE",
"747 648 OFFCURVE",
"751 684 CURVE SMOOTH",
"771 842 LINE SMOOTH",
"776 888 OFFCURVE",
"769 890 OFFCURVE",
"727 890 CURVE SMOOTH"
);
}
);
vertWidth = 0;
width = 1320;
},
{
layerId = "D7E1B457-BD34-420B-BB40-96ED806E1977";
paths = (
{
closed = 1;
nodes = (
"546 1610 LINE SMOOTH",
"568 1610 OFFCURVE",
"569 1605 OFFCURVE",
"567 1584 CURVE SMOOTH",
"513 1121 LINE SMOOTH",
"509 1085 OFFCURVE",
"508 1080 OFFCURVE",
"550 1080 CURVE SMOOTH",
"817 1080 LINE SMOOTH",
"859 1080 OFFCURVE",
"859 1082 OFFCURVE",
"863 1119 CURVE SMOOTH",
"917 1581 LINE SMOOTH",
"920 1606 OFFCURVE",
"917 1610 OFFCURVE",
"946 1610 CURVE SMOOTH",
"998 1610 LINE SMOOTH",
"1031 1610 OFFCURVE",
"1029 1608 OFFCURVE",
"1026 1579 CURVE SMOOTH",
"973 1120 LINE SMOOTH",
"968 1080 OFFCURVE",
"968 1080 OFFCURVE",
"1013 1080 CURVE SMOOTH",
"1317 1080 LINE SMOOTH",
"1336 1080 OFFCURVE",
"1340 1073 OFFCURVE",
"1340 1053 CURVE SMOOTH",
"1340 996 LINE SMOOTH",
"1340 976 OFFCURVE",
"1333 970 OFFCURVE",
"1314 970 CURVE SMOOTH",
"985 970 LINE SMOOTH",
"957 970 OFFCURVE",
"956 970 OFFCURVE",
"953 945 CURVE SMOOTH",
"912 597 LINE SMOOTH",
"909 568 OFFCURVE",
"909 560 OFFCURVE",
"945 560 CURVE SMOOTH",
"1255 560 LINE SMOOTH",
"1276 560 OFFCURVE",
"1280 553 OFFCURVE",
"1280 531 CURVE SMOOTH",
"1280 485 LINE SMOOTH",
"1280 453 OFFCURVE",
"1269 450 OFFCURVE",
"1239 450 CURVE SMOOTH",
"922 450 LINE SMOOTH",
"895 450 OFFCURVE",
"895 449 OFFCURVE",
"892 425 CURVE SMOOTH",
"833 -84 LINE SMOOTH",
"830 -109 OFFCURVE",
"830 -110 OFFCURVE",
"802 -110 CURVE SMOOTH",
"753 -110 LINE SMOOTH",
"719 -110 OFFCURVE",
"721 -109 OFFCURVE",
"724 -79 CURVE SMOOTH",
"782 420 LINE SMOOTH",
"785 446 OFFCURVE",
"782 450 OFFCURVE",
"746 450 CURVE SMOOTH",
"471 450 LINE SMOOTH",
"439 450 OFFCURVE",
"435 452 OFFCURVE",
"432 423 CURVE SMOOTH",
"373 -86 LINE SMOOTH",
"370 -109 OFFCURVE",
"371 -110 OFFCURVE",
"345 -110 CURVE SMOOTH",
"282 -110 LINE SMOOTH",
"256 -110 OFFCURVE",
"260 -105 OFFCURVE",
"263 -83 CURVE SMOOTH",
"321 414 LINE SMOOTH",
"324 442 OFFCURVE",
"323 450 OFFCURVE",
"289 450 CURVE SMOOTH",
"4 450 LINE SMOOTH",
"-18 450 OFFCURVE",
"-20 457 OFFCURVE",
"-20 480 CURVE SMOOTH",
"-20 535 LINE SMOOTH",
"-20 558 OFFCURVE",
"-13 560 OFFCURVE",
"11 560 CURVE SMOOTH",
"308 560 LINE SMOOTH",
"344 560 OFFCURVE",
"338 568 OFFCURVE",
"342 598 CURVE SMOOTH",
"383 943 LINE SMOOTH",
"386 967 OFFCURVE",
"387 970 OFFCURVE",
"359 970 CURVE SMOOTH",
"72 970 LINE SMOOTH",
"42 970 OFFCURVE",
"40 978 OFFCURVE",
"40 1009 CURVE SMOOTH",
"40 1047 LINE SMOOTH",
"40 1070 OFFCURVE",
"41 1080 OFFCURVE",
"64 1080 CURVE SMOOTH",
"356 1080 LINE SMOOTH",
"395 1080 OFFCURVE",
"399 1084 OFFCURVE",
"402 1114 CURVE SMOOTH",
"457 1585 LINE SMOOTH",
"460 1609 OFFCURVE",
"459 1610 OFFCURVE",
"486 1610 CURVE SMOOTH"
);
},
{
closed = 1;
nodes = (
"544 970 LINE SMOOTH",
"499 970 OFFCURVE",
"495 962 OFFCURVE",
"491 931 CURVE SMOOTH",
"452 596 LINE SMOOTH",
"448 562 OFFCURVE",
"455 560 OFFCURVE",
"488 560 CURVE SMOOTH",
"756 560 LINE SMOOTH",
"794 560 OFFCURVE",
"799 568 OFFCURVE",
"802 593 CURVE SMOOTH",
"841 927 LINE SMOOTH",
"846 969 OFFCURVE",
"838 970 OFFCURVE",
"801 970 CURVE SMOOTH"
);
}
);
vertWidth = 0;
width = 1320;
},
{
layerId = "C903388A-C428-42EA-B608-801ADA807095";
paths = (
{
closed = 1;
nodes = (
"583 1610 LINE SMOOTH",
"621 1610 OFFCURVE",
"630 1610 OFFCURVE",
"626 1576 CURVE SMOOTH",
"575 1136 LINE SMOOTH",
"572 1107 OFFCURVE",
"574 1100 OFFCURVE",
"609 1100 CURVE SMOOTH",
"749 1100 LINE SMOOTH",
"793 1100 OFFCURVE",
"800 1095 OFFCURVE",
"805 1136 CURVE SMOOTH",
"855 1568 LINE SMOOTH",
"860 1608 OFFCURVE",
"866 1610 OFFCURVE",
"911 1610 CURVE SMOOTH",
"1023 1610 LINE SMOOTH",
"1066 1610 OFFCURVE",
"1070 1607 OFFCURVE",
"1066 1574 CURVE SMOOTH",
"1016 1148 LINE SMOOTH",
"1011 1104 OFFCURVE",
"1016 1100 OFFCURVE",
"1067 1100 CURVE SMOOTH",
"1305 1100 LINE SMOOTH",
"1334 1100 OFFCURVE",
"1340 1094 OFFCURVE",
"1340 1064 CURVE SMOOTH",
"1340 938 LINE SMOOTH",
"1340 891 OFFCURVE",
"1327 890 OFFCURVE",
"1283 890 CURVE SMOOTH",
"1035 890 LINE SMOOTH",
"994 890 OFFCURVE",
"986 894 OFFCURVE",
"982 856 CURVE SMOOTH",
"962 680 LINE SMOOTH",
"957 635 OFFCURVE",
"963 640 OFFCURVE",
"1011 640 CURVE SMOOTH",
"1239 640 LINE SMOOTH",
"1277 640 OFFCURVE",
"1280 633 OFFCURVE",
"1280 594 CURVE SMOOTH",
"1280 464 LINE SMOOTH",
"1280 434 OFFCURVE",
"1271 430 OFFCURVE",
"1243 430 CURVE SMOOTH",
"971 430 LINE SMOOTH",
"933 430 OFFCURVE",
"933 430 OFFCURVE",
"929 396 CURVE SMOOTH",
"873 -74 LINE SMOOTH",
"869 -105 OFFCURVE",
"868 -110 OFFCURVE",
"833 -110 CURVE SMOOTH",
"717 -110 LINE SMOOTH",
"675 -110 OFFCURVE",
"661 -109 OFFCURVE",
"666 -68 CURVE SMOOTH",
"715 366 LINE SMOOTH",
"721 415 OFFCURVE",
"735 430 OFFCURVE",
"675 430 CURVE SMOOTH",
"549 430 LINE SMOOTH",
"509 430 OFFCURVE",
"492 427 OFFCURVE",
"488 389 CURVE SMOOTH",
"436 -58 LINE SMOOTH",
"430 -108 OFFCURVE",
"431 -110 OFFCURVE",
"375 -110 CURVE SMOOTH",
"273 -110 LINE SMOOTH",
"211 -110 OFFCURVE",
"221 -101 OFFCURVE",
"227 -48 CURVE SMOOTH",
"277 372 LINE SMOOTH",
"283 422 OFFCURVE",
"281 430 OFFCURVE",
"225 430 CURVE SMOOTH",
"31 430 LINE SMOOTH",
"-17 430 OFFCURVE",
"-20 437 OFFCURVE",
"-20 486 CURVE SMOOTH",
"-20 598 LINE SMOOTH",
"-20 639 OFFCURVE",
"-11 640 OFFCURVE",
"31 640 CURVE SMOOTH",
"263 640 LINE SMOOTH",
"310 640 OFFCURVE",
"307 643 OFFCURVE",
"312 684 CURVE SMOOTH",
"333 850 LINE SMOOTH",
"337 883 OFFCURVE",
"333 890 OFFCURVE",
"297 890 CURVE SMOOTH",
"93 890 LINE SMOOTH",
"47 890 OFFCURVE",
"40 893 OFFCURVE",
"40 938 CURVE SMOOTH",
"40 1056 LINE SMOOTH",
"40 1094 OFFCURVE",
"45 1100 OFFCURVE",
"85 1100 CURVE SMOOTH",
"321 1100 LINE SMOOTH",
"364 1100 OFFCURVE",
"362 1104 OFFCURVE",
"366 1142 CURVE SMOOTH",
"415 1564 LINE SMOOTH",
"419 1598 OFFCURVE",
"421 1610 OFFCURVE",
"462 1610 CURVE SMOOTH"
);
},
{
closed = 1;
nodes = (
"589 890 LINE SMOOTH",
"539 890 OFFCURVE",
"545 880 OFFCURVE",
"540 838 CURVE SMOOTH",
"523 690 LINE SMOOTH",
"518 648 OFFCURVE",
"522 640 OFFCURVE",
"571 640 CURVE SMOOTH",
"705 640 LINE SMOOTH",
"744 640 OFFCURVE",
"747 648 OFFCURVE",
"751 684 CURVE SMOOTH",
"771 842 LINE SMOOTH",
"776 888 OFFCURVE",
"769 890 OFFCURVE",
"727 890 CURVE SMOOTH"
);
}
);
vertWidth = 0;
width = 1320;
}
);
unicode = 0023;
},
{
glyphname = dollar;
layers = (
{
layerId = "5492647A-5722-481A-83CB-54A7AD0E630B";
paths = (
{
closed = 1;
nodes = (
"770 1670 LINE",
"760 1513 LINE",
"967 1489 OFFCURVE",
"1148 1393 OFFCURVE",
"1148 1158 CURVE SMOOTH",
"1148 1062 OFFCURVE",
"1078 1026 OFFCURVE",
"1020 1026 CURVE SMOOTH",
"966 1026 OFFCURVE",
"906 1068 OFFCURVE",
"906 1142 CURVE SMOOTH",
"906 1214 OFFCURVE",
"970 1224 OFFCURVE",
"970 1270 CURVE SMOOTH",
"970 1319 OFFCURVE",
"911 1391 OFFCURVE",
"753 1412 CURVE",
"720 896 LINE",
"958 842 OFFCURVE",
"1220 779 OFFCURVE",
"1220 430 CURVE SMOOTH",
"1220 150 OFFCURVE",
"1022 -20 OFFCURVE",
"660 -20 CURVE",
"650 -170 LINE",
"540 -170 LINE",
"550 -15 LINE",
"249 16 OFFCURVE",
"92 175 OFFCURVE",
"92 372 CURVE SMOOTH",
"92 468 OFFCURVE",
"162 504 OFFCURVE",
"220 504 CURVE SMOOTH",
"274 504 OFFCURVE",
"334 462 OFFCURVE",
"334 388 CURVE SMOOTH",
"334 316 OFFCURVE",
"270 306 OFFCURVE",
"270 260 CURVE SMOOTH",
"270 210 OFFCURVE",
"347 112 OFFCURVE",
"557 88 CURVE",
"597 701 LINE",
"378 753 OFFCURVE",
"160 821 OFFCURVE",
"160 1110 CURVE SMOOTH",
"160 1395 OFFCURVE",
"402 1520 OFFCURVE",
"650 1520 CURVE",
"660 1670 LINE"
);
},
{
closed = 1;
nodes = (
"1040 573 OFFCURVE",
"885 630 OFFCURVE",
"705 675 CURVE",
"666 82 LINE",
"933 85 OFFCURVE",
"1040 243 OFFCURVE",
"1040 380 CURVE SMOOTH"
);
},
{
closed = 1;
nodes = (
"340 1015 OFFCURVE",
"460 961 OFFCURVE",
"611 922 CURVE",
"644 1418 LINE",
"443 1412 OFFCURVE",
"340 1304 OFFCURVE",
"340 1170 CURVE SMOOTH"
);
}
);
vertWidth = 0;
width = 1320;
},
{
layerId = "7D0224F7-CECC-4B04-BE8C-3FB6AAD34500";
paths = (
{
closed = 1;
nodes = (
"930 1670 LINE",
"919 1522 LINE",
"1174 1492 OFFCURVE",
"1428 1375 OFFCURVE",
"1428 1138 CURVE SMOOTH",
"1428 982 OFFCURVE",
"1338 906 OFFCURVE",
"1200 906 CURVE SMOOTH",
"1106 906 OFFCURVE",
"986 948 OFFCURVE",
"986 1102 CURVE SMOOTH",
"986 1194 OFFCURVE",
"1056 1206 OFFCURVE",
"1056 1240 CURVE SMOOTH",
"1056 1260 OFFCURVE",
"993 1294 OFFCURVE",
"903 1312 CURVE",
"877 967 LINE",
"1127 897 OFFCURVE",
"1430 801 OFFCURVE",
"1430 460 CURVE SMOOTH",
"1430 191 OFFCURVE",
"1145 -14 OFFCURVE",
"801 -29 CURVE",
"790 -170 LINE",
"560 -170 LINE",
"571 -21 LINE",
"260 9 OFFCURVE",
"12 121 OFFCURVE",
"12 372 CURVE SMOOTH",
"12 548 OFFCURVE",
"142 624 OFFCURVE",
"240 624 CURVE SMOOTH",
"374 624 OFFCURVE",
"474 562 OFFCURVE",
"474 428 CURVE SMOOTH",
"474 336 OFFCURVE",
"400 306 OFFCURVE",
"400 260 CURVE SMOOTH",
"400 216 OFFCURVE",
"441 188 OFFCURVE",
"586 177 CURVE",
"617 580 LINE",
"378 645 OFFCURVE",
"110 736 OFFCURVE",
"110 1058 CURVE SMOOTH",
"110 1349 OFFCURVE",
"382 1501 OFFCURVE",
"689 1526 CURVE",
"700 1670 LINE"
);
},
{
closed = 1;
nodes = (
"980 439 OFFCURVE",
"925 480 OFFCURVE",
"842 513 CURVE",
"816 177 LINE",
"942 200 OFFCURVE",
"980 299 OFFCURVE",
"980 368 CURVE SMOOTH"
);
},
{
closed = 1;
nodes = (
"552 1102 OFFCURVE",
"591 1067 OFFCURVE",
"652 1039 CURVE",
"672 1305 LINE",
"599 1277 OFFCURVE",
"552 1221 OFFCURVE",
"552 1152 CURVE SMOOTH"
);
}
);
vertWidth = 0;
width = 1450;
},
{
layerId = "D7E1B457-BD34-420B-BB40-96ED806E1977";
paths = (
{
closed = 1;
nodes = (
"770 1670 LINE",
"760 1513 LINE",
"967 1489 OFFCURVE",
"1148 1393 OFFCURVE",
"1148 1158 CURVE SMOOTH",
"1148 1062 OFFCURVE",
"1078 1026 OFFCURVE",
"1020 1026 CURVE SMOOTH",
"966 1026 OFFCURVE",
"906 1068 OFFCURVE",
"906 1142 CURVE SMOOTH",
"906 1214 OFFCURVE",
"970 1224 OFFCURVE",
"970 1270 CURVE SMOOTH",
"970 1319 OFFCURVE",
"911 1391 OFFCURVE",
"753 1412 CURVE",
"720 896 LINE",
"958 842 OFFCURVE",
"1220 779 OFFCURVE",
"1220 430 CURVE SMOOTH",
"1220 150 OFFCURVE",
"1022 -20 OFFCURVE",
"660 -20 CURVE",
"650 -170 LINE",
"540 -170 LINE",
"550 -15 LINE",
"249 16 OFFCURVE",
"92 175 OFFCURVE",
"92 372 CURVE SMOOTH",
"92 468 OFFCURVE",
"162 504 OFFCURVE",
"220 504 CURVE SMOOTH",
"274 504 OFFCURVE",
"334 462 OFFCURVE",
"334 388 CURVE SMOOTH",
"334 316 OFFCURVE",
"270 306 OFFCURVE",
"270 260 CURVE SMOOTH",
"270 210 OFFCURVE",
"347 112 OFFCURVE",
"557 88 CURVE",
"597 701 LINE",
"378 753 OFFCURVE",
"160 821 OFFCURVE",
"160 1110 CURVE SMOOTH",
"160 1395 OFFCURVE",
"402 1520 OFFCURVE",
"650 1520 CURVE",
"660 1670 LINE"
);
},
{
closed = 1;
nodes = (
"1040 573 OFFCURVE",
"885 630 OFFCURVE",
"705 675 CURVE",
"666 82 LINE",
"933 85 OFFCURVE",
"1040 243 OFFCURVE",
"1040 380 CURVE SMOOTH"
);
},
{
closed = 1;
nodes = (
"340 1015 OFFCURVE",
"460 961 OFFCURVE",
"611 922 CURVE",
"644 1418 LINE",
"443 1412 OFFCURVE",
"340 1304 OFFCURVE",
"340 1170 CURVE SMOOTH"
);
}
);
vertWidth = 0;
width = 1320;
},
{
layerId = "C903388A-C428-42EA-B608-801ADA807095";
paths = (
{
closed = 1;
nodes = (
"930 1670 LINE",
"919 1522 LINE",
"1174 1492 OFFCURVE",
"1428 1375 OFFCURVE",
"1428 1138 CURVE SMOOTH",
"1428 982 OFFCURVE",
"1338 906 OFFCURVE",
"1200 906 CURVE SMOOTH",
"1106 906 OFFCURVE",
"986 948 OFFCURVE",
"986 1102 CURVE SMOOTH",
"986 1194 OFFCURVE",
"1056 1206 OFFCURVE",
"1056 1240 CURVE SMOOTH",
"1056 1260 OFFCURVE",
"993 1294 OFFCURVE",
"903 1312 CURVE",
"877 967 LINE",
"1127 897 OFFCURVE",
"1430 801 OFFCURVE",
"1430 460 CURVE SMOOTH",
"1430 191 OFFCURVE",
"1145 -14 OFFCURVE",
"801 -29 CURVE",
"790 -170 LINE",
"560 -170 LINE",
"571 -21 LINE",
"260 9 OFFCURVE",
"12 121 OFFCURVE",
"12 372 CURVE SMOOTH",
"12 548 OFFCURVE",
"142 624 OFFCURVE",
"240 624 CURVE SMOOTH",
"374 624 OFFCURVE",
"474 562 OFFCURVE",
"474 428 CURVE SMOOTH",
"474 336 OFFCURVE",
"400 306 OFFCURVE",
"400 260 CURVE SMOOTH",
"400 216 OFFCURVE",
"441 188 OFFCURVE",
"586 177 CURVE",
"617 580 LINE",
"378 645 OFFCURVE",
"110 736 OFFCURVE",
"110 1058 CURVE SMOOTH",
"110 1349 OFFCURVE",
"382 1501 OFFCURVE",
"689 1526 CURVE",
"700 1670 LINE"
);
},
{
closed = 1;
nodes = (
"980 439 OFFCURVE",
"925 480 OFFCURVE",
"842 513 CURVE",
"816 177 LINE",
"942 200 OFFCURVE",
"980 299 OFFCURVE",
"980 368 CURVE SMOOTH"
);
},
{
closed = 1;
nodes = (
"552 1102 OFFCURVE",
"591 1067 OFFCURVE",
"652 1039 CURVE",
"672 1305 LINE",
"599 1277 OFFCURVE",
"552 1221 OFFCURVE",
"552 1152 CURVE SMOOTH"
);
}
);
vertWidth = 0;
width = 1450;
}
);
unicode = 0024;
},
{
glyphname = percent;
layers = (
{
layerId = "5492647A-5722-481A-83CB-54A7AD0E630B";
paths = (
{
closed = 1;
nodes = (
"70 1366 OFFCURVE",
"244 1520 OFFCURVE",
"470 1520 CURVE SMOOTH",
"696 1520 OFFCURVE",
"870 1366 OFFCURVE",
"870 1080 CURVE SMOOTH",
"870 794 OFFCURVE",
"656 640 OFFCURVE",
"470 640 CURVE SMOOTH",
"244 640 OFFCURVE",
"70 794 OFFCURVE",
"70 1080 CURVE SMOOTH"
);
},
{
closed = 1;
nodes = (
"290 876 OFFCURVE",
"322 740 OFFCURVE",
"470 740 CURVE SMOOTH",
"618 740 OFFCURVE",
"650 876 OFFCURVE",
"650 1080 CURVE SMOOTH",
"650 1284 OFFCURVE",
"618 1420 OFFCURVE",
"470 1420 CURVE SMOOTH",
"322 1420 OFFCURVE",
"290 1284 OFFCURVE",
"290 1080 CURVE SMOOTH"
);
},
{
closed = 1;
nodes = (
"1487 1500 LINE SMOOTH",
"1522 1500 OFFCURVE",
"1520 1490 OFFCURVE",
"1506 1468 CURVE SMOOTH",
"625 28 LINE SMOOTH",
"612 7 OFFCURVE",
"602 0 OFFCURVE",
"567 0 CURVE SMOOTH",
"514 0 LINE SMOOTH",
"475 0 OFFCURVE",
"484 23 OFFCURVE",
"495 41 CURVE SMOOTH",
"1388 1478 LINE SMOOTH",
"1396 1492 OFFCURVE",
"1407 1500 OFFCURVE",
"1430 1500 CURVE SMOOTH"
);
},
{
closed = 1;
nodes = (
"1130 706 OFFCURVE",
"1304 860 OFFCURVE",
"1530 860 CURVE SMOOTH",
"1756 860 OFFCURVE",
"1930 706 OFFCURVE",
"1930 420 CURVE SMOOTH",
"1930 134 OFFCURVE",
"1716 -20 OFFCURVE",
"1530 -20 CURVE SMOOTH",
"1304 -20 OFFCURVE",
"1130 134 OFFCURVE",
"1130 420 CURVE SMOOTH"
);
},
{
closed = 1;
nodes = (
"1350 216 OFFCURVE",
"1382 80 OFFCURVE",
"1530 80 CURVE SMOOTH",
"1678 80 OFFCURVE",
"1710 216 OFFCURVE",
"1710 420 CURVE SMOOTH",
"1710 624 OFFCURVE",
"1678 760 OFFCURVE",
"1530 760 CURVE SMOOTH",
"1382 760 OFFCURVE",
"1350 624 OFFCURVE",
"1350 420 CURVE SMOOTH"
);
}
);
vertWidth = 0;
width = 2000;
},
{
layerId = "7D0224F7-CECC-4B04-BE8C-3FB6AAD34500";
paths = (
{
closed = 1;
nodes = (
"70 1366 OFFCURVE",
"174 1530 OFFCURVE",
"470 1530 CURVE SMOOTH",
"766 1530 OFFCURVE",
"870 1366 OFFCURVE",
"870 1080 CURVE SMOOTH",
"870 794 OFFCURVE",
"726 630 OFFCURVE",
"470 630 CURVE SMOOTH",
"174 630 OFFCURVE",
"70 794 OFFCURVE",
"70 1080 CURVE SMOOTH"
);
},
{
closed = 1;
nodes = (
"440 836 OFFCURVE",
"442 810 OFFCURVE",
"470 810 CURVE SMOOTH",
"498 810 OFFCURVE",
"500 836 OFFCURVE",
"500 1080 CURVE SMOOTH",
"500 1324 OFFCURVE",
"498 1350 OFFCURVE",
"470 1350 CURVE SMOOTH",
"442 1350 OFFCURVE",
"440 1324 OFFCURVE",
"440 1080 CURVE SMOOTH"
);
},
{
closed = 1;
nodes = (
"1403 1500 LINE SMOOTH",
"1467 1500 OFFCURVE",
"1477.803 1490.272 OFFCURVE",
"1456 1450 CURVE SMOOTH",
"684 24 LINE SMOOTH",
"670.099 -1.678 OFFCURVE",
"639 0 OFFCURVE",
"597 0 CURVE SMOOTH",
"547 0 LINE SMOOTH",
"467 0 OFFCURVE",
"458.059 17.785 OFFCURVE",
"480 58 CURVE SMOOTH",
"1246 1462 LINE SMOOTH",
"1261.06 1489.604 OFFCURVE",
"1284 1500 OFFCURVE",
"1331 1500 CURVE SMOOTH"
);
},
{
closed = 1;
nodes = (
"1090 706 OFFCURVE",
"1194 870 OFFCURVE",
"1490 870 CURVE SMOOTH",
"1786 870 OFFCURVE",
"1890 706 OFFCURVE",
"1890 420 CURVE SMOOTH",
"1890 134 OFFCURVE",
"1746 -30 OFFCURVE",
"1490 -30 CURVE SMOOTH",
"1194 -30 OFFCURVE",
"1090 134 OFFCURVE",
"1090 420 CURVE SMOOTH"
);
},
{
closed = 1;
nodes = (
"1460 176 OFFCURVE",
"1462 150 OFFCURVE",
"1490 150 CURVE SMOOTH",
"1518 150 OFFCURVE",
"1520 176 OFFCURVE",
"1520 420 CURVE SMOOTH",
"1520 664 OFFCURVE",
"1518 690 OFFCURVE",
"1490 690 CURVE SMOOTH",
"1462 690 OFFCURVE",
"1460 664 OFFCURVE",
"1460 420 CURVE SMOOTH"
);
}
);
vertWidth = 0;
width = 1960;
},
{
layerId = "D7E1B457-BD34-420B-BB40-96ED806E1977";
paths = (
{
closed = 1;
nodes = (
"70 1366 OFFCURVE",
"174 1520 OFFCURVE",
"370 1520 CURVE SMOOTH",
"566 1520 OFFCURVE",
"670 1366 OFFCURVE",
"670 1080 CURVE SMOOTH",
"670 794 OFFCURVE",
"526 640 OFFCURVE",
"370 640 CURVE SMOOTH",
"174 640 OFFCURVE",
"70 794 OFFCURVE",
"70 1080 CURVE SMOOTH"
);
},
{
closed = 1;
nodes = (
"270 826 OFFCURVE",
"302 740 OFFCURVE",
"370 740 CURVE SMOOTH",
"438 740 OFFCURVE",
"470 826 OFFCURVE",
"470 1080 CURVE SMOOTH",
"470 1334 OFFCURVE",
"438 1420 OFFCURVE",
"370 1420 CURVE SMOOTH",
"302 1420 OFFCURVE",
"270 1334 OFFCURVE",
"270 1080 CURVE SMOOTH"
);
},
{
closed = 1;
nodes = (
"1152 1500 LINE SMOOTH",
"1187 1500 OFFCURVE",
"1185 1490 OFFCURVE",
"1171 1468 CURVE SMOOTH",
"440 28 LINE SMOOTH",
"427 7 OFFCURVE",
"417 0 OFFCURVE",
"382 0 CURVE SMOOTH",
"339 0 LINE SMOOTH",
"300 0 OFFCURVE",
"309 23 OFFCURVE",
"320 41 CURVE SMOOTH",
"1063 1478 LINE SMOOTH",
"1071 1492 OFFCURVE",
"1082 1500 OFFCURVE",
"1105 1500 CURVE SMOOTH"
);
},
{
closed = 1;
nodes = (
"825 706 OFFCURVE",
"929 860 OFFCURVE",
"1125 860 CURVE SMOOTH",
"1321 860 OFFCURVE",
"1425 706 OFFCURVE",
"1425 420 CURVE SMOOTH",
"1425 134 OFFCURVE",
"1281 -20 OFFCURVE",
"1125 -20 CURVE SMOOTH",
"929 -20 OFFCURVE",
"825 134 OFFCURVE",
"825 420 CURVE SMOOTH"
);
},
{
closed = 1;
nodes = (
"1025 166 OFFCURVE",
"1057 80 OFFCURVE",
"1125 80 CURVE SMOOTH",
"1193 80 OFFCURVE",
"1225 166 OFFCURVE",
"1225 420 CURVE SMOOTH",
"1225 674 OFFCURVE",
"1193 760 OFFCURVE",
"1125 760 CURVE SMOOTH",
"1057 760 OFFCURVE",
"1025 674 OFFCURVE",
"1025 420 CURVE SMOOTH"
);
}
);
vertWidth = 0;
width = 1495;
},
{
layerId = "C903388A-C428-42EA-B608-801ADA807095";
paths = (
{
closed = 1;
nodes = (
"70 1366 OFFCURVE",
"274 1530 OFFCURVE",
"570 1530 CURVE SMOOTH",
"866 1530 OFFCURVE",
"1070 1366 OFFCURVE",
"1070 1080 CURVE SMOOTH",
"1070 794 OFFCURVE",
"826 630 OFFCURVE",
"570 630 CURVE SMOOTH",
"274 630 OFFCURVE",
"70 794 OFFCURVE",
"70 1080 CURVE SMOOTH"
);
},
{
closed = 1;
nodes = (
"490 876 OFFCURVE",
"512 810 OFFCURVE",
"570 810 CURVE SMOOTH",
"638 810 OFFCURVE",
"650 876 OFFCURVE",
"650 1080 CURVE SMOOTH",
"650 1284 OFFCURVE",
"638 1350 OFFCURVE",
"570 1350 CURVE SMOOTH",
"512 1350 OFFCURVE",
"490 1284 OFFCURVE",
"490 1080 CURVE SMOOTH"
);
},
{
closed = 1;
nodes = (
"1743 1500 LINE SMOOTH",
"1807 1500 OFFCURVE",
"1822 1488 OFFCURVE",
"1796 1450 CURVE SMOOTH",
"824 24 LINE SMOOTH",
"808 0 OFFCURVE",
"779 0 OFFCURVE",
"737 0 CURVE SMOOTH",
"677 0 LINE SMOOTH",
"597 0 OFFCURVE",
"584 20 OFFCURVE",
"610 58 CURVE SMOOTH",
"1576 1462 LINE SMOOTH",
"1594 1488 OFFCURVE",
"1614 1500 OFFCURVE",
"1661 1500 CURVE SMOOTH"
);
},
{
closed = 1;
nodes = (
"1330 706 OFFCURVE",
"1534 870 OFFCURVE",
"1830 870 CURVE SMOOTH",
"2126 870 OFFCURVE",
"2330 706 OFFCURVE",
"2330 420 CURVE SMOOTH",
"2330 134 OFFCURVE",
"2086 -30 OFFCURVE",
"1830 -30 CURVE SMOOTH",
"1534 -30 OFFCURVE",
"1330 134 OFFCURVE",
"1330 420 CURVE SMOOTH"
);
},
{
closed = 1;
nodes = (
"1750 216 OFFCURVE",
"1762 150 OFFCURVE",
"1830 150 CURVE SMOOTH",
"1898 150 OFFCURVE",
"1910 216 OFFCURVE",
"1910 420 CURVE SMOOTH",
"1910 624 OFFCURVE",
"1898 690 OFFCURVE",
"1830 690 CURVE SMOOTH",
"1762 690 OFFCURVE",
"1750 624 OFFCURVE",
"1750 420 CURVE SMOOTH"
);
}
);
vertWidth = 0;
width = 2400;
}
);
unicode = 0025;
},
{
glyphname = ampersand;
layers = (
{
layerId = "5492647A-5722-481A-83CB-54A7AD0E630B";
paths = (
{
closed = 1;
nodes = (
"1540 920 LINE SMOOTH",
"1561 920 OFFCURVE",
"1570 915 OFFCURVE",
"1570 892 CURVE SMOOTH",
"1570 834 LINE SMOOTH",
"1570 810 OFFCURVE",
"1570 810 OFFCURVE",
"1546 810 CURVE SMOOTH",
"1414 810 LINE SMOOTH",
"1389 810 OFFCURVE",
"1390 808 OFFCURVE",
"1387 787 CURVE SMOOTH",
"1358 607 OFFCURVE",
"1290 434 OFFCURVE",
"1176 293 CURVE SMOOTH",
"1154 266 OFFCURVE",
"1139 273 OFFCURVE",
"1161 238 CURVE SMOOTH",
"1228 132 LINE SMOOTH",
"1240 113 OFFCURVE",
"1243 110 OFFCURVE",
"1275 110 CURVE SMOOTH",
"1510 110 LINE SMOOTH",
"1537 110 OFFCURVE",
"1540 103 OFFCURVE",
"1540 75 CURVE SMOOTH",
"1540 35 LINE SMOOTH",
"1540 8 OFFCURVE",
"1538 0 OFFCURVE",
"1512 0 CURVE SMOOTH",
"1120 0 LINE SMOOTH",
"1074 0 OFFCURVE",
"1069 4 OFFCURVE",
"1052 31 CURVE SMOOTH",
"1010 97 LINE SMOOTH",
"989 130 OFFCURVE",
"988 122 OFFCURVE",
"957 102 CURVE SMOOTH",
"837 25 OFFCURVE",
"696 -20 OFFCURVE",
"540 -20 CURVE SMOOTH",
"274 -20 OFFCURVE",
"42 114 OFFCURVE",
"42 400 CURVE SMOOTH",
"42 686 OFFCURVE",
"261 787 OFFCURVE",
"483 873 CURVE SMOOTH",
"520 887 OFFCURVE",
"504 894 OFFCURVE",
"486 923 CURVE SMOOTH",
"450 980 LINE SMOOTH",
"400 1058 OFFCURVE",
"358 1156 OFFCURVE",
"358 1226 CURVE SMOOTH",
"358 1406 OFFCURVE",
"528 1520 OFFCURVE",
"760 1520 CURVE SMOOTH",
"974 1520 OFFCURVE",
"1132 1430 OFFCURVE",
"1132 1270 CURVE SMOOTH",
"1132 1064 OFFCURVE",
"972 970 OFFCURVE",
"789 892 CURVE SMOOTH",
"754 877 OFFCURVE",
"761 870 OFFCURVE",
"781 839 CURVE SMOOTH",
"1053 408 LINE SMOOTH",
"1080 365 OFFCURVE",
"1080 359 OFFCURVE",
"1111 401 CURVE SMOOTH",
"1195 516 OFFCURVE",
"1254 652 OFFCURVE",
"1276 781 CURVE SMOOTH",
"1280 807 OFFCURVE",
"1273 810 OFFCURVE",
"1242 810 CURVE SMOOTH",
"1128 810 LINE SMOOTH",
"1093 810 OFFCURVE",
"1090 817 OFFCURVE",
"1090 853 CURVE SMOOTH",
"1090 888 LINE SMOOTH",
"1090 913 OFFCURVE",
"1093 920 OFFCURVE",
"1117 920 CURVE SMOOTH"
);
},
{
closed = 1;
nodes = (
"380 711 OFFCURVE",
"262 617 OFFCURVE",
"262 440 CURVE SMOOTH",
"262 216 OFFCURVE",
"422 110 OFFCURVE",
"610 110 CURVE SMOOTH",
"716 110 OFFCURVE",
"816 144 OFFCURVE",
"905 202 CURVE SMOOTH",
"935 221 OFFCURVE",
"930 224 OFFCURVE",
"912 253 CURVE SMOOTH",
"585 769 LINE SMOOTH",
"565 800 OFFCURVE",
"563 800 OFFCURVE",
"529 783 CURVE SMOOTH"
);
},
{
closed = 1;
nodes = (
"944 1374 OFFCURVE",
"868 1440 OFFCURVE",
"758 1440 CURVE SMOOTH",
"644 1440 OFFCURVE",
"554 1386 OFFCURVE",
"554 1280 CURVE SMOOTH",
"554 1210 OFFCURVE",
"608 1110 OFFCURVE",
"690 980 CURVE SMOOTH",
"703 960 OFFCURVE",
"706 965 OFFCURVE",
"727 976 CURVE SMOOTH",
"852 1041 OFFCURVE",
"944 1127 OFFCURVE",
"944 1280 CURVE SMOOTH"
);
}
);
vertWidth = 0;
width = 1740;
},
{
layerId = "7D0224F7-CECC-4B04-BE8C-3FB6AAD34500";
paths = (
{
closed = 1;
nodes = (
"1676 920 LINE SMOOTH",
"1704 920 OFFCURVE",
"1710 915 OFFCURVE",
"1710 885 CURVE SMOOTH",
"1710 722 LINE SMOOTH",
"1710 694 OFFCURVE",
"1703 690 OFFCURVE",
"1674 690 CURVE SMOOTH",
"1576 690 LINE SMOOTH",
"1542 690 OFFCURVE",
"1535 682 OFFCURVE",
"1526 658 CURVE SMOOTH",
"1490 562 OFFCURVE",
"1439 468 OFFCURVE",
"1373 381 CURVE SMOOTH",
"1346 345 OFFCURVE",
"1339 344 OFFCURVE",
"1367 306 CURVE SMOOTH",
"1402 259 LINE SMOOTH",
"1422 232 OFFCURVE",
"1431 230 OFFCURVE",
"1480 230 CURVE SMOOTH",
"1681 230 LINE SMOOTH",
"1717 230 OFFCURVE",
"1720 222 OFFCURVE",
"1720 185 CURVE SMOOTH",
"1720 50 LINE SMOOTH",
"1720 6 OFFCURVE",
"1715 0 OFFCURVE",
"1672 0 CURVE SMOOTH",
"1150 0 LINE SMOOTH",
"1095 0 OFFCURVE",
"1086 12 OFFCURVE",
"1062 42 CURVE SMOOTH",
"1054 52 LINE SMOOTH",
"1038 72 OFFCURVE",
"1028 79 OFFCURVE",
"994 62 CURVE SMOOTH",
"866 -2 OFFCURVE",
"720 -40 OFFCURVE",
"560 -40 CURVE SMOOTH",
"214 -40 OFFCURVE",
"2 114 OFFCURVE",
"2 400 CURVE SMOOTH",
"2 674 OFFCURVE",
"207 781 OFFCURVE",
"424 861 CURVE SMOOTH",
"475 880 OFFCURVE",
"457 887 OFFCURVE",
"430 924 CURVE SMOOTH",
"390 980 LINE",
"340 1058 OFFCURVE",
"298 1136 OFFCURVE",
"298 1206 CURVE SMOOTH",
"298 1426 OFFCURVE",
"528 1540 OFFCURVE",
"840 1540 CURVE SMOOTH",
"1134 1540 OFFCURVE",
"1332 1430 OFFCURVE",
"1332 1250 CURVE SMOOTH",
"1332 1048 OFFCURVE",
"1178 947 OFFCURVE",
"999 866 CURVE SMOOTH",
"962 849 OFFCURVE",
"968 849 OFFCURVE",
"990 819 CURVE SMOOTH",
"1180 560 LINE SMOOTH",
"1211 517 OFFCURVE",
"1213 520 OFFCURVE",
"1241 566 CURVE SMOOTH",
"1260 596 OFFCURVE",
"1276 627 OFFCURVE",
"1290 659 CURVE SMOOTH",
"1302 686 OFFCURVE",
"1289 690 OFFCURVE",
"1269 690 CURVE SMOOTH",
"1212 690 LINE SMOOTH",
"1178 690 OFFCURVE",
"1170 695 OFFCURVE",
"1170 732 CURVE SMOOTH",
"1170 862 LINE SMOOTH",
"1170 905 OFFCURVE",
"1177 920 OFFCURVE",
"1219 920 CURVE SMOOTH"
);
},
{
closed = 1;
nodes = (
"493 581 OFFCURVE",
"462 519 OFFCURVE",
"462 440 CURVE SMOOTH",
"462 296 OFFCURVE",
"542 216 OFFCURVE",
"670 216 CURVE SMOOTH",
"739 216 OFFCURVE",
"805 228 OFFCURVE",
"867 250 CURVE SMOOTH",
"913 266 OFFCURVE",
"894 275 OFFCURVE",
"871 308 CURVE SMOOTH",
"634 640 LINE SMOOTH",
"598 690 OFFCURVE",
"585 672 OFFCURVE",
"544 631 CURVE SMOOTH"
);
},
{
closed = 1;
nodes = (
"924 1284 OFFCURVE",
"908 1360 OFFCURVE",
"828 1360 CURVE SMOOTH",
"774 1360 OFFCURVE",
"734 1316 OFFCURVE",
"734 1250 CURVE SMOOTH",
"734 1170 OFFCURVE",
"781 1103 OFFCURVE",
"820 1050 CURVE SMOOTH",
"831 1036 OFFCURVE",
"833 1042 OFFCURVE",
"845 1053 CURVE SMOOTH",
"894 1098 OFFCURVE",
"924 1155 OFFCURVE",
"924 1230 CURVE SMOOTH"
);
}
);
vertWidth = 0;
width = 1840;
},
{
layerId = "D7E1B457-BD34-420B-BB40-96ED806E1977";
paths = (
{
closed = 1;
nodes = (
"1540 920 LINE SMOOTH",
"1561 920 OFFCURVE",
"1570 915 OFFCURVE",
"1570 892 CURVE SMOOTH",
"1570 834 LINE SMOOTH",
"1570 810 OFFCURVE",
"1570 810 OFFCURVE",
"1546 810 CURVE SMOOTH",
"1414 810 LINE SMOOTH",
"1389 810 OFFCURVE",
"1390 808 OFFCURVE",
"1387 787 CURVE SMOOTH",
"1358 607 OFFCURVE",
"1290 434 OFFCURVE",
"1176 293 CURVE SMOOTH",
"1154 266 OFFCURVE",
"1139 273 OFFCURVE",
"1161 238 CURVE SMOOTH",
"1228 132 LINE SMOOTH",
"1240 113 OFFCURVE",
"1243 110 OFFCURVE",
"1275 110 CURVE SMOOTH",
"1510 110 LINE SMOOTH",
"1537 110 OFFCURVE",
"1540 103 OFFCURVE",
"1540 75 CURVE SMOOTH",
"1540 35 LINE SMOOTH",
"1540 8 OFFCURVE",
"1538 0 OFFCURVE",
"1512 0 CURVE SMOOTH",
"1120 0 LINE SMOOTH",
"1074 0 OFFCURVE",
"1069 4 OFFCURVE",
"1052 31 CURVE SMOOTH",
"1010 97 LINE SMOOTH",
"989 130 OFFCURVE",
"988 122 OFFCURVE",
"957 102 CURVE SMOOTH",
"837 25 OFFCURVE",
"696 -20 OFFCURVE",
"540 -20 CURVE SMOOTH",
"274 -20 OFFCURVE",
"42 114 OFFCURVE",
"42 400 CURVE SMOOTH",
"42 686 OFFCURVE",
"261 787 OFFCURVE",
"483 873 CURVE SMOOTH",
"520 887 OFFCURVE",
"504 894 OFFCURVE",
"486 923 CURVE SMOOTH",
"450 980 LINE SMOOTH",
"400 1058 OFFCURVE",
"358 1156 OFFCURVE",
"358 1226 CURVE SMOOTH",
"358 1406 OFFCURVE",
"528 1520 OFFCURVE",
"760 1520 CURVE SMOOTH",
"974 1520 OFFCURVE",
"1132 1430 OFFCURVE",
"1132 1270 CURVE SMOOTH",
"1132 1064 OFFCURVE",
"972 970 OFFCURVE",
"789 892 CURVE SMOOTH",
"754 877 OFFCURVE",
"761 870 OFFCURVE",
"781 839 CURVE SMOOTH",
"1053 408 LINE SMOOTH",
"1080 365 OFFCURVE",
"1080 359 OFFCURVE",
"1111 401 CURVE SMOOTH",
"1195 516 OFFCURVE",
"1254 652 OFFCURVE",
"1276 781 CURVE SMOOTH",
"1280 807 OFFCURVE",
"1273 810 OFFCURVE",
"1242 810 CURVE SMOOTH",
"1128 810 LINE SMOOTH",
"1093 810 OFFCURVE",
"1090 817 OFFCURVE",
"1090 853 CURVE SMOOTH",
"1090 888 LINE SMOOTH",
"1090 913 OFFCURVE",
"1093 920 OFFCURVE",
"1117 920 CURVE SMOOTH"
);
},
{
closed = 1;
nodes = (
"380 711 OFFCURVE",
"262 617 OFFCURVE",
"262 440 CURVE SMOOTH",
"262 216 OFFCURVE",
"422 110 OFFCURVE",
"610 110 CURVE SMOOTH",
"716 110 OFFCURVE",
"816 144 OFFCURVE",
"905 202 CURVE SMOOTH",
"935 221 OFFCURVE",
"930 224 OFFCURVE",
"912 253 CURVE SMOOTH",
"585 769 LINE SMOOTH",
"565 800 OFFCURVE",
"563 800 OFFCURVE",
"529 783 CURVE SMOOTH"
);
},
{
closed = 1;
nodes = (
"944 1374 OFFCURVE",
"868 1440 OFFCURVE",
"758 1440 CURVE SMOOTH",
"644 1440 OFFCURVE",
"554 1386 OFFCURVE",
"554 1280 CURVE SMOOTH",
"554 1210 OFFCURVE",
"608 1110 OFFCURVE",
"690 980 CURVE SMOOTH",
"703 960 OFFCURVE",
"706 965 OFFCURVE",
"727 976 CURVE SMOOTH",
"852 1041 OFFCURVE",
"944 1127 OFFCURVE",
"944 1280 CURVE SMOOTH"
);
}
);
vertWidth = 0;
width = 1740;
},
{
layerId = "C903388A-C428-42EA-B608-801ADA807095";
paths = (
{
closed = 1;
nodes = (
"1676 920 LINE SMOOTH",
"1704 920 OFFCURVE",
"1710 915 OFFCURVE",
"1710 885 CURVE SMOOTH",
"1710 722 LINE SMOOTH",
"1710 694 OFFCURVE",
"1703 690 OFFCURVE",
"1674 690 CURVE SMOOTH",
"1576 690 LINE SMOOTH",
"1542 690 OFFCURVE",
"1535 682 OFFCURVE",
"1526 658 CURVE SMOOTH",
"1490 562 OFFCURVE",
"1439 468 OFFCURVE",
"1373 381 CURVE SMOOTH",
"1346 345 OFFCURVE",
"1339 344 OFFCURVE",
"1367 306 CURVE SMOOTH",
"1402 259 LINE SMOOTH",
"1422 232 OFFCURVE",
"1431 230 OFFCURVE",
"1480 230 CURVE SMOOTH",
"1681 230 LINE SMOOTH",
"1717 230 OFFCURVE",
"1720 222 OFFCURVE",
"1720 185 CURVE SMOOTH",
"1720 50 LINE SMOOTH",
"1720 6 OFFCURVE",
"1715 0 OFFCURVE",
"1672 0 CURVE SMOOTH",
"1150 0 LINE SMOOTH",
"1095 0 OFFCURVE",
"1086 12 OFFCURVE",
"1062 42 CURVE SMOOTH",
"1054 52 LINE SMOOTH",
"1038 72 OFFCURVE",
"1028 79 OFFCURVE",
"994 62 CURVE SMOOTH",
"866 -2 OFFCURVE",
"720 -40 OFFCURVE",
"560 -40 CURVE SMOOTH",
"214 -40 OFFCURVE",
"2 114 OFFCURVE",
"2 400 CURVE SMOOTH",
"2 674 OFFCURVE",
"207 781 OFFCURVE",
"424 861 CURVE SMOOTH",
"475 880 OFFCURVE",
"457 887 OFFCURVE",
"430 924 CURVE SMOOTH",
"390 980 LINE",
"340 1058 OFFCURVE",
"298 1136 OFFCURVE",
"298 1206 CURVE SMOOTH",
"298 1426 OFFCURVE",
"528 1540 OFFCURVE",
"840 1540 CURVE SMOOTH",
"1134 1540 OFFCURVE",
"1332 1430 OFFCURVE",
"1332 1250 CURVE SMOOTH",
"1332 1048 OFFCURVE",
"1178 947 OFFCURVE",
"999 866 CURVE SMOOTH",
"962 849 OFFCURVE",
"968 849 OFFCURVE",
"990 819 CURVE SMOOTH",
"1180 560 LINE SMOOTH",
"1211 517 OFFCURVE",
"1213 520 OFFCURVE",
"1241 566 CURVE SMOOTH",
"1260 596 OFFCURVE",
"1276 627 OFFCURVE",
"1290 659 CURVE SMOOTH",
"1302 686 OFFCURVE",
"1289 690 OFFCURVE",
"1269 690 CURVE SMOOTH",
"1212 690 LINE SMOOTH",
"1178 690 OFFCURVE",
"1170 695 OFFCURVE",
"1170 732 CURVE SMOOTH",
"1170 862 LINE SMOOTH",
"1170 905 OFFCURVE",
"1177 920 OFFCURVE",
"1219 920 CURVE SMOOTH"
);
},
{
closed = 1;
nodes = (
"493 581 OFFCURVE",
"462 519 OFFCURVE",
"462 440 CURVE SMOOTH",
"462 296 OFFCURVE",
"542 216 OFFCURVE",
"670 216 CURVE SMOOTH",
"739 216 OFFCURVE",
"805 228 OFFCURVE",
"867 250 CURVE SMOOTH",
"913 266 OFFCURVE",
"894 275 OFFCURVE",
"871 308 CURVE SMOOTH",
"634 640 LINE SMOOTH",
"598 690 OFFCURVE",
"585 672 OFFCURVE",
"544 631 CURVE SMOOTH"
);
},
{
closed = 1;
nodes = (
"924 1284 OFFCURVE",
"908 1360 OFFCURVE",
"828 1360 CURVE SMOOTH",
"774 1360 OFFCURVE",
"734 1316 OFFCURVE",
"734 1250 CURVE SMOOTH",
"734 1170 OFFCURVE",
"781 1103 OFFCURVE",
"820 1050 CURVE SMOOTH",
"831 1036 OFFCURVE",
"833 1042 OFFCURVE",
"845 1053 CURVE SMOOTH",
"894 1098 OFFCURVE",
"924 1155 OFFCURVE",
"924 1230 CURVE SMOOTH"
);
}
);
vertWidth = 0;
width = 1840;
}
);
unicode = 0026;
},
{
glyphname = quotesingle;
layers = (
{
layerId = "5492647A-5722-481A-83CB-54A7AD0E630B";
paths = (
{
closed = 1;
nodes = (
"277 1216 OFFCURVE",
"241 1107 OFFCURVE",
"238 994 CURVE SMOOTH",
"238 978 OFFCURVE",
"231 976 OFFCURVE",
"214 976 CURVE SMOOTH",
"184 976 LINE SMOOTH",
"166 976 OFFCURVE",
"163 983 OFFCURVE",
"162 999 CURVE SMOOTH",
"158 1111 OFFCURVE",
"123 1218 OFFCURVE",
"102 1358 CURVE SMOOTH",
"100 1372 OFFCURVE",
"100 1382 OFFCURVE",
"100 1394 CURVE SMOOTH",
"100 1472 OFFCURVE",
"142 1516 OFFCURVE",
"200 1516 CURVE SMOOTH",
"258 1516 OFFCURVE",
"300 1472 OFFCURVE",
"300 1394 CURVE SMOOTH",
"300 1382 OFFCURVE",
"300 1372 OFFCURVE",
"298 1358 CURVE SMOOTH"
);
}
);
vertWidth = 0;
width = 400;
},
{
layerId = "7D0224F7-CECC-4B04-BE8C-3FB6AAD34500";
paths = (
{
closed = 1;
nodes = (
"447 1184 OFFCURVE",
"338 1107 OFFCURVE",
"327 945 CURVE SMOOTH",
"325 918 OFFCURVE",
"325 916 OFFCURVE",
"297 916 CURVE SMOOTH",
"199 916 LINE SMOOTH",
"172 916 OFFCURVE",
"170 932 OFFCURVE",
"168 954 CURVE SMOOTH",
"153 1108 OFFCURVE",
"52 1188 OFFCURVE",
"32 1308 CURVE SMOOTH",
"30 1322 OFFCURVE",
"30 1332 OFFCURVE",
"30 1344 CURVE SMOOTH",
"30 1452 OFFCURVE",
"122 1536 OFFCURVE",
"250 1536 CURVE SMOOTH",
"378 1536 OFFCURVE",
"470 1452 OFFCURVE",
"470 1344 CURVE SMOOTH",
"470 1332 OFFCURVE",
"470 1322 OFFCURVE",
"468 1308 CURVE SMOOTH"
);
}
);
vertWidth = 0;
width = 500;
},
{
layerId = "D7E1B457-BD34-420B-BB40-96ED806E1977";
paths = (
{
closed = 1;
nodes = (
"277 1216 OFFCURVE",
"241 1107 OFFCURVE",
"238 994 CURVE SMOOTH",
"238 978 OFFCURVE",
"231 976 OFFCURVE",
"214 976 CURVE SMOOTH",
"184 976 LINE SMOOTH",
"166 976 OFFCURVE",
"163 983 OFFCURVE",
"162 999 CURVE SMOOTH",
"158 1111 OFFCURVE",
"123 1218 OFFCURVE",
"102 1358 CURVE SMOOTH",
"100 1372 OFFCURVE",
"100 1382 OFFCURVE",
"100 1394 CURVE SMOOTH",
"100 1472 OFFCURVE",
"142 1516 OFFCURVE",
"200 1516 CURVE SMOOTH",
"258 1516 OFFCURVE",
"300 1472 OFFCURVE",
"300 1394 CURVE SMOOTH",
"300 1382 OFFCURVE",
"300 1372 OFFCURVE",
"298 1358 CURVE SMOOTH"
);
}
);
vertWidth = 0;
width = 400;
},
{
layerId = "C903388A-C428-42EA-B608-801ADA807095";
paths = (
{
closed = 1;
nodes = (
"495 1184 OFFCURVE",
"386 1107 OFFCURVE",
"375 945 CURVE SMOOTH",
"373 918 OFFCURVE",
"373 916 OFFCURVE",
"345 916 CURVE SMOOTH",
"247 916 LINE SMOOTH",
"220 916 OFFCURVE",
"218 932 OFFCURVE",
"216 954 CURVE SMOOTH",
"201 1108 OFFCURVE",
"100 1188 OFFCURVE",
"80 1308 CURVE SMOOTH",
"78 1322 OFFCURVE",
"78 1332 OFFCURVE",
"78 1344 CURVE SMOOTH",
"78 1452 OFFCURVE",
"170 1536 OFFCURVE",
"298 1536 CURVE SMOOTH",
"426 1536 OFFCURVE",
"518 1452 OFFCURVE",
"518 1344 CURVE SMOOTH",
"518 1332 OFFCURVE",
"518 1322 OFFCURVE",
"516 1308 CURVE SMOOTH"
);
}
);
vertWidth = 0;
width = 598;
}
);
leftKerningGroup = kc0_9;
rightKerningGroup = kc0_9;
unicode = 0027;
},
{
glyphname = parenleft;
layers = (
{
layerId = "5492647A-5722-481A-83CB-54A7AD0E630B";
paths = (
{
closed = 1;
nodes = (
"814 -318 LINE SMOOTH",
"809 -342 OFFCURVE",
"808 -340 OFFCURVE",
"785 -334 CURVE SMOOTH",
"355 -226 OFFCURVE",
"110 134 OFFCURVE",
"110 650 CURVE SMOOTH",
"110 1155 OFFCURVE",
"344 1474 OFFCURVE",
"757 1587 CURVE SMOOTH",
"786 1595 OFFCURVE",
"808 1604 OFFCURVE",
"815 1569 CURVE SMOOTH",
"824 1530 LINE SMOOTH",
"831 1497 OFFCURVE",
"827 1500 OFFCURVE",
"798 1490 CURVE SMOOTH",
"473 1382 OFFCURVE",
"340 1099 OFFCURVE",
"340 650 CURVE SMOOTH",
"340 198 OFFCURVE",
"475 -123 OFFCURVE",
"804 -232 CURVE SMOOTH",
"833 -242 OFFCURVE",
"829 -245 OFFCURVE",
"823 -276 CURVE SMOOTH"
);
}
);
vertWidth = 0;
width = 890;
},
{
layerId = "7D0224F7-CECC-4B04-BE8C-3FB6AAD34500";
paths = (
{
closed = 1;
nodes = (
"949 -302 LINE SMOOTH",
"934 -333 OFFCURVE",
"923 -339 OFFCURVE",
"886 -329 CURVE SMOOTH",
"460 -216 OFFCURVE",
"110 141 OFFCURVE",
"110 650 CURVE SMOOTH",
"110 1161 OFFCURVE",
"463 1481 OFFCURVE",
"892 1591 CURVE SMOOTH",
"922 1599 OFFCURVE",
"933 1598 OFFCURVE",
"946 1572 CURVE SMOOTH",
"990 1474 LINE SMOOTH",
"1005 1444 OFFCURVE",
"1010 1441 OFFCURVE",
"978 1428 CURVE SMOOTH",
"712 1322 OFFCURVE",
"580 1096 OFFCURVE",
"580 650 CURVE SMOOTH",
"580 204 OFFCURVE",
"711 -60 OFFCURVE",
"978 -168 CURVE SMOOTH",
"1011 -181 OFFCURVE",
"1009 -186 OFFCURVE",
"994 -217 CURVE SMOOTH"
);
}
);
vertWidth = 0;
width = 1010;
},
{
layerId = "D7E1B457-BD34-420B-BB40-96ED806E1977";
paths = (
{
closed = 1;
nodes = (
"664 -318 LINE SMOOTH",
"659 -342 OFFCURVE",
"658 -341 OFFCURVE",
"635 -334 CURVE SMOOTH",
"305 -226 OFFCURVE",
"110 134 OFFCURVE",
"110 650 CURVE SMOOTH",
"110 1155 OFFCURVE",
"294 1474 OFFCURVE",
"607 1587 CURVE SMOOTH",
"635 1597 OFFCURVE",
"658 1604 OFFCURVE",
"665 1569 CURVE SMOOTH",
"674 1530 LINE SMOOTH",
"681 1497 OFFCURVE",
"676 1503 OFFCURVE",
"648 1490 CURVE SMOOTH",
"423 1382 OFFCURVE",
"340 1099 OFFCURVE",
"340 650 CURVE SMOOTH",
"340 198 OFFCURVE",
"425 -123 OFFCURVE",
"654 -232 CURVE SMOOTH",
"682 -245 OFFCURVE",
"679 -245 OFFCURVE",
"673 -276 CURVE SMOOTH"
);
}
);
vertWidth = 0;
width = 740;
},
{
layerId = "C903388A-C428-42EA-B608-801ADA807095";
paths = (
{
closed = 1;
nodes = (
"949 -302 LINE SMOOTH",
"934 -333 OFFCURVE",
"923 -339 OFFCURVE",
"886 -329 CURVE SMOOTH",
"460 -216 OFFCURVE",
"110 141 OFFCURVE",
"110 650 CURVE SMOOTH",
"110 1161 OFFCURVE",
"463 1481 OFFCURVE",
"892 1591 CURVE SMOOTH",
"922 1599 OFFCURVE",
"933 1598 OFFCURVE",
"946 1572 CURVE SMOOTH",
"990 1474 LINE SMOOTH",
"1005 1444 OFFCURVE",
"1010 1441 OFFCURVE",
"978 1428 CURVE SMOOTH",
"712 1322 OFFCURVE",
"580 1096 OFFCURVE",
"580 650 CURVE SMOOTH",
"580 204 OFFCURVE",
"711 -60 OFFCURVE",
"978 -168 CURVE SMOOTH",
"1011 -181 OFFCURVE",
"1009 -186 OFFCURVE",
"994 -217 CURVE SMOOTH"
);
}
);
vertWidth = 0;
width = 1010;
}
);
unicode = 0028;
},
{
glyphname = parenright;
layers = (
{
layerId = "5492647A-5722-481A-83CB-54A7AD0E630B";
paths = (
{
closed = 1;
nodes = (
"76 1578 LINE SMOOTH",
"81 1602 OFFCURVE",
"82 1600 OFFCURVE",
"105 1594 CURVE SMOOTH",
"535 1486 OFFCURVE",
"780 1126 OFFCURVE",
"780 610 CURVE SMOOTH",
"780 105 OFFCURVE",
"546 -214 OFFCURVE",
"133 -327 CURVE SMOOTH",
"104 -335 OFFCURVE",
"82 -344 OFFCURVE",
"75 -309 CURVE SMOOTH",
"66 -270 LINE SMOOTH",
"59 -237 OFFCURVE",
"63 -240 OFFCURVE",
"92 -230 CURVE SMOOTH",
"417 -122 OFFCURVE",
"550 161 OFFCURVE",
"550 610 CURVE SMOOTH",
"550 1062 OFFCURVE",
"415 1383 OFFCURVE",
"86 1492 CURVE SMOOTH",
"57 1502 OFFCURVE",
"61 1505 OFFCURVE",
"67 1536 CURVE SMOOTH"
);
}
);
vertWidth = 0;
width = 890;
},
{
layerId = "7D0224F7-CECC-4B04-BE8C-3FB6AAD34500";
paths = (
{
closed = 1;
nodes = (
"60 1562 LINE SMOOTH",
"75 1593 OFFCURVE",
"86 1599 OFFCURVE",
"123 1589 CURVE SMOOTH",
"549 1476 OFFCURVE",
"899 1119 OFFCURVE",
"899 610 CURVE SMOOTH",
"899 99 OFFCURVE",
"546 -221 OFFCURVE",
"117 -331 CURVE SMOOTH",
"87 -339 OFFCURVE",
"76 -338 OFFCURVE",
"63 -312 CURVE SMOOTH",
"19 -214 LINE SMOOTH",
"4 -184 OFFCURVE",
"-1 -181 OFFCURVE",
"31 -168 CURVE SMOOTH",
"297 -62 OFFCURVE",
"429 164 OFFCURVE",
"429 610 CURVE SMOOTH",
"429 1056 OFFCURVE",
"298 1320 OFFCURVE",
"31 1428 CURVE SMOOTH",
"-2 1441 OFFCURVE",
"0 1446 OFFCURVE",
"15 1477 CURVE SMOOTH"
);
}
);
vertWidth = 0;
width = 1009;
},
{
layerId = "D7E1B457-BD34-420B-BB40-96ED806E1977";
paths = (
{
closed = 1;
nodes = (
"76 1578 LINE SMOOTH",
"81 1602 OFFCURVE",
"82 1601 OFFCURVE",
"105 1594 CURVE SMOOTH",
"435 1486 OFFCURVE",
"630 1126 OFFCURVE",
"630 610 CURVE SMOOTH",
"630 105 OFFCURVE",
"446 -214 OFFCURVE",
"133 -327 CURVE SMOOTH",
"105 -337 OFFCURVE",
"82 -344 OFFCURVE",
"75 -309 CURVE SMOOTH",
"66 -270 LINE SMOOTH",
"59 -237 OFFCURVE",
"64 -243 OFFCURVE",
"92 -230 CURVE SMOOTH",
"317 -122 OFFCURVE",
"400 161 OFFCURVE",
"400 610 CURVE SMOOTH",
"400 1062 OFFCURVE",
"315 1383 OFFCURVE",
"86 1492 CURVE SMOOTH",
"58 1505 OFFCURVE",
"61 1505 OFFCURVE",
"67 1536 CURVE SMOOTH"
);
}
);
vertWidth = 0;
width = 740;
},
{
layerId = "C903388A-C428-42EA-B608-801ADA807095";
paths = (
{
closed = 1;
nodes = (
"60 1562 LINE SMOOTH",
"75 1593 OFFCURVE",
"86 1599 OFFCURVE",
"123 1589 CURVE SMOOTH",
"549 1476 OFFCURVE",
"899 1119 OFFCURVE",
"899 610 CURVE SMOOTH",
"899 99 OFFCURVE",
"546 -221 OFFCURVE",
"117 -331 CURVE SMOOTH",
"87 -339 OFFCURVE",
"76 -338 OFFCURVE",
"63 -312 CURVE SMOOTH",
"19 -214 LINE SMOOTH",
"4 -184 OFFCURVE",
"-1 -181 OFFCURVE",
"31 -168 CURVE SMOOTH",
"297 -62 OFFCURVE",
"429 164 OFFCURVE",
"429 610 CURVE SMOOTH",
"429 1056 OFFCURVE",
"298 1320 OFFCURVE",
"31 1428 CURVE SMOOTH",
"-2 1441 OFFCURVE",
"0 1446 OFFCURVE",
"15 1477 CURVE SMOOTH"
);
}
);
vertWidth = 0;
width = 1009;
}
);
unicode = 0029;
},
{
glyphname = asterisk;
layers = (
{
layerId = "5492647A-5722-481A-83CB-54A7AD0E630B";
paths = (
{
closed = 1;
nodes = (
"136 822 OFFCURVE",
"153 881 OFFCURVE",
"221 920 CURVE SMOOTH",
"317 975 OFFCURVE",
"435 998 OFFCURVE",
"524 1032 CURVE SMOOTH",
"549 1041 OFFCURVE",
"552 1042 OFFCURVE",
"526 1052 CURVE SMOOTH",
"437 1086 OFFCURVE",
"319 1110 OFFCURVE",
"223 1165 CURVE SMOOTH",
"155 1204 OFFCURVE",
"138 1262 OFFCURVE",
"167 1312 CURVE SMOOTH",
"196 1362 OFFCURVE",
"255 1377 OFFCURVE",
"323 1338 CURVE SMOOTH",
"422 1281 OFFCURVE",
"497 1193 OFFCURVE",
"570 1133 CURVE SMOOTH",
"589 1118 OFFCURVE",
"596 1108 OFFCURVE",
"590 1142 CURVE SMOOTH",
"575 1235 OFFCURVE",
"536 1339 OFFCURVE",
"536 1458 CURVE SMOOTH",
"536 1536 OFFCURVE",
"578 1580 OFFCURVE",
"636 1580 CURVE SMOOTH",
"694 1580 OFFCURVE",
"736 1536 OFFCURVE",
"736 1458 CURVE SMOOTH",
"736 1340 OFFCURVE",
"698 1235 OFFCURVE",
"682 1142 CURVE SMOOTH",
"675 1099 OFFCURVE",
"689 1119 OFFCURVE",
"709 1136 CURVE SMOOTH",
"780 1196 OFFCURVE",
"852 1278 OFFCURVE",
"947 1333 CURVE SMOOTH",
"1015 1372 OFFCURVE",
"1074 1358 OFFCURVE",
"1103 1308 CURVE SMOOTH",
"1132 1258 OFFCURVE",
"1115 1199 OFFCURVE",
"1047 1160 CURVE SMOOTH",
"955 1107 OFFCURVE",
"842 1083 OFFCURVE",
"754 1051 CURVE SMOOTH",
"723 1040 OFFCURVE",
"713 1039 OFFCURVE",
"748 1026 CURVE SMOOTH",
"837 993 OFFCURVE",
"951 969 OFFCURVE",
"1045 915 CURVE SMOOTH",
"1113 876 OFFCURVE",
"1130 818 OFFCURVE",
"1101 768 CURVE SMOOTH",
"1072 718 OFFCURVE",
"1013 703 OFFCURVE",
"945 742 CURVE SMOOTH",
"846 799 OFFCURVE",
"771 887 OFFCURVE",
"698 947 CURVE SMOOTH",
"677 965 OFFCURVE",
"673 970 OFFCURVE",
"679 933 CURVE SMOOTH",
"695 841 OFFCURVE",
"732 739 OFFCURVE",
"732 622 CURVE SMOOTH",
"732 544 OFFCURVE",
"690 500 OFFCURVE",
"632 500 CURVE SMOOTH",
"574 500 OFFCURVE",
"532 544 OFFCURVE",
"532 622 CURVE SMOOTH",
"532 741 OFFCURVE",
"570 845 OFFCURVE",
"586 939 CURVE SMOOTH",
"592 975 OFFCURVE",
"586 966 OFFCURVE",
"566 950 CURVE SMOOTH",
"493 890 OFFCURVE",
"419 804 OFFCURVE",
"321 747 CURVE SMOOTH",
"253 708 OFFCURVE",
"194 722 OFFCURVE",
"165 772 CURVE SMOOTH"
);
}
);
vertWidth = 2310;
width = 1270;
},
{
layerId = "7D0224F7-CECC-4B04-BE8C-3FB6AAD34500";
paths = (
{
closed = 1;
nodes = (
"47 827 OFFCURVE",
"52 925 OFFCURVE",
"146 979 CURVE SMOOTH",
"253 1041 OFFCURVE",
"341 957 OFFCURVE",
"514 1016 CURVE SMOOTH",
"551 1028 OFFCURVE",
"548 1031 OFFCURVE",
"512 1043 CURVE SMOOTH",
"340 1101 OFFCURVE",
"253 1019 OFFCURVE",
"146 1081 CURVE SMOOTH",
"52 1135 OFFCURVE",
"47 1233 OFFCURVE",
"106 1335 CURVE SMOOTH",
"165 1437 OFFCURVE",
"252 1481 OFFCURVE",
"346 1427 CURVE SMOOTH",
"452 1366 OFFCURVE",
"425 1249 OFFCURVE",
"559 1130 CURVE SMOOTH",
"581 1110 OFFCURVE",
"594 1093 OFFCURVE",
"585 1140 CURVE SMOOTH",
"550 1321 OFFCURVE",
"434 1354 OFFCURVE",
"434 1478 CURVE SMOOTH",
"434 1586 OFFCURVE",
"516 1640 OFFCURVE",
"634 1640 CURVE SMOOTH",
"752 1640 OFFCURVE",
"834 1586 OFFCURVE",
"834 1478 CURVE SMOOTH",
"834 1353 OFFCURVE",
"717 1320 OFFCURVE",
"682 1137 CURVE SMOOTH",
"675 1098 OFFCURVE",
"683 1108 OFFCURVE",
"704 1126 CURVE SMOOTH",
"843 1247 OFFCURVE",
"814 1365 OFFCURVE",
"922 1427 CURVE SMOOTH",
"1016 1481 OFFCURVE",
"1103 1437 OFFCURVE",
"1162 1335 CURVE SMOOTH",
"1221 1233 OFFCURVE",
"1216 1135 OFFCURVE",
"1122 1081 CURVE SMOOTH",
"1015 1019 OFFCURVE",
"927 1103 OFFCURVE",
"752 1042 CURVE SMOOTH",
"723 1032 OFFCURVE",
"715 1031 OFFCURVE",
"748 1019 CURVE SMOOTH",
"925 956 OFFCURVE",
"1013 1042 OFFCURVE",
"1122 979 CURVE SMOOTH",
"1216 925 OFFCURVE",
"1221 827 OFFCURVE",
"1162 725 CURVE SMOOTH",
"1103 623 OFFCURVE",
"1016 579 OFFCURVE",
"922 633 CURVE SMOOTH",
"814 695 OFFCURVE",
"843 813 OFFCURVE",
"703 934 CURVE SMOOTH",
"686 949 OFFCURVE",
"675 965 OFFCURVE",
"682 928 CURVE SMOOTH",
"715 740 OFFCURVE",
"834 708 OFFCURVE",
"834 582 CURVE SMOOTH",
"834 474 OFFCURVE",
"752 420 OFFCURVE",
"634 420 CURVE SMOOTH",
"516 420 OFFCURVE",
"434 474 OFFCURVE",
"434 582 CURVE SMOOTH",
"434 708 OFFCURVE",
"553 741 OFFCURVE",
"586 928 CURVE SMOOTH",
"593 965 OFFCURVE",
"581 948 OFFCURVE",
"564 933 CURVE SMOOTH",
"424 812 OFFCURVE",
"454 695 OFFCURVE",
"346 633 CURVE SMOOTH",
"252 579 OFFCURVE",
"165 623 OFFCURVE",
"106 725 CURVE SMOOTH"
);
}
);
vertWidth = 2310;
width = 1270;
},
{
layerId = "D7E1B457-BD34-420B-BB40-96ED806E1977";
paths = (
{
closed = 1;
nodes = (
"136 822 OFFCURVE",
"153 881 OFFCURVE",
"221 920 CURVE SMOOTH",
"317 975 OFFCURVE",
"435 998 OFFCURVE",
"524 1032 CURVE SMOOTH",
"549 1041 OFFCURVE",
"552 1042 OFFCURVE",
"526 1052 CURVE SMOOTH",
"437 1086 OFFCURVE",
"319 1110 OFFCURVE",
"223 1165 CURVE SMOOTH",
"155 1204 OFFCURVE",
"138 1262 OFFCURVE",
"167 1312 CURVE SMOOTH",
"196 1362 OFFCURVE",
"255 1377 OFFCURVE",
"323 1338 CURVE SMOOTH",
"422 1281 OFFCURVE",
"497 1193 OFFCURVE",
"570 1133 CURVE SMOOTH",
"589 1118 OFFCURVE",
"596 1108 OFFCURVE",
"590 1142 CURVE SMOOTH",
"575 1235 OFFCURVE",
"536 1339 OFFCURVE",
"536 1458 CURVE SMOOTH",
"536 1536 OFFCURVE",
"578 1580 OFFCURVE",
"636 1580 CURVE SMOOTH",
"694 1580 OFFCURVE",
"736 1536 OFFCURVE",
"736 1458 CURVE SMOOTH",
"736 1340 OFFCURVE",
"698 1235 OFFCURVE",
"682 1142 CURVE SMOOTH",
"675 1099 OFFCURVE",
"689 1119 OFFCURVE",
"709 1136 CURVE SMOOTH",
"780 1196 OFFCURVE",
"852 1278 OFFCURVE",
"947 1333 CURVE SMOOTH",
"1015 1372 OFFCURVE",
"1074 1358 OFFCURVE",
"1103 1308 CURVE SMOOTH",
"1132 1258 OFFCURVE",
"1115 1199 OFFCURVE",
"1047 1160 CURVE SMOOTH",
"955 1107 OFFCURVE",
"842 1083 OFFCURVE",
"754 1051 CURVE SMOOTH",
"723 1040 OFFCURVE",
"713 1039 OFFCURVE",
"748 1026 CURVE SMOOTH",
"837 993 OFFCURVE",
"951 969 OFFCURVE",
"1045 915 CURVE SMOOTH",
"1113 876 OFFCURVE",
"1130 818 OFFCURVE",
"1101 768 CURVE SMOOTH",
"1072 718 OFFCURVE",
"1013 703 OFFCURVE",
"945 742 CURVE SMOOTH",
"846 799 OFFCURVE",
"771 887 OFFCURVE",
"698 947 CURVE SMOOTH",
"677 965 OFFCURVE",
"673 970 OFFCURVE",
"679 933 CURVE SMOOTH",
"695 841 OFFCURVE",
"732 739 OFFCURVE",
"732 622 CURVE SMOOTH",
"732 544 OFFCURVE",
"690 500 OFFCURVE",
"632 500 CURVE SMOOTH",
"574 500 OFFCURVE",
"532 544 OFFCURVE",
"532 622 CURVE SMOOTH",
"532 741 OFFCURVE",
"570 845 OFFCURVE",
"586 939 CURVE SMOOTH",
"592 975 OFFCURVE",
"586 966 OFFCURVE",
"566 950 CURVE SMOOTH",
"493 890 OFFCURVE",
"419 804 OFFCURVE",
"321 747 CURVE SMOOTH",
"253 708 OFFCURVE",
"194 722 OFFCURVE",
"165 772 CURVE SMOOTH"
);
}
);
vertWidth = 2310;
width = 1270;
},
{
layerId = "C903388A-C428-42EA-B608-801ADA807095";
paths = (
{
closed = 1;
nodes = (
"47 827 OFFCURVE",
"52 925 OFFCURVE",
"146 979 CURVE SMOOTH",
"253 1041 OFFCURVE",
"341 957 OFFCURVE",
"514 1016 CURVE SMOOTH",
"551 1028 OFFCURVE",
"548 1031 OFFCURVE",
"512 1043 CURVE SMOOTH",
"340 1101 OFFCURVE",
"253 1019 OFFCURVE",
"146 1081 CURVE SMOOTH",
"52 1135 OFFCURVE",
"47 1233 OFFCURVE",
"106 1335 CURVE SMOOTH",
"165 1437 OFFCURVE",
"252 1481 OFFCURVE",
"346 1427 CURVE SMOOTH",
"452 1366 OFFCURVE",
"425 1249 OFFCURVE",
"559 1130 CURVE SMOOTH",
"581 1110 OFFCURVE",
"594 1093 OFFCURVE",
"585 1140 CURVE SMOOTH",
"550 1321 OFFCURVE",
"434 1354 OFFCURVE",
"434 1478 CURVE SMOOTH",
"434 1586 OFFCURVE",
"516 1640 OFFCURVE",
"634 1640 CURVE SMOOTH",
"752 1640 OFFCURVE",
"834 1586 OFFCURVE",
"834 1478 CURVE SMOOTH",
"834 1353 OFFCURVE",
"717 1320 OFFCURVE",
"682 1137 CURVE SMOOTH",
"675 1098 OFFCURVE",
"683 1108 OFFCURVE",
"704 1126 CURVE SMOOTH",
"843 1247 OFFCURVE",
"814 1365 OFFCURVE",
"922 1427 CURVE SMOOTH",
"1016 1481 OFFCURVE",
"1103 1437 OFFCURVE",
"1162 1335 CURVE SMOOTH",
"1221 1233 OFFCURVE",
"1216 1135 OFFCURVE",
"1122 1081 CURVE SMOOTH",
"1015 1019 OFFCURVE",
"927 1103 OFFCURVE",
"752 1042 CURVE SMOOTH",
"723 1032 OFFCURVE",
"715 1031 OFFCURVE",
"748 1019 CURVE SMOOTH",
"925 956 OFFCURVE",
"1013 1042 OFFCURVE",
"1122 979 CURVE SMOOTH",
"1216 925 OFFCURVE",
"1221 827 OFFCURVE",
"1162 725 CURVE SMOOTH",
"1103 623 OFFCURVE",
"1016 579 OFFCURVE",
"922 633 CURVE SMOOTH",
"814 695 OFFCURVE",
"843 813 OFFCURVE",
"703 934 CURVE SMOOTH",
"686 949 OFFCURVE",
"675 965 OFFCURVE",
"682 928 CURVE SMOOTH",
"715 740 OFFCURVE",
"834 708 OFFCURVE",
"834 582 CURVE SMOOTH",
"834 474 OFFCURVE",
"752 420 OFFCURVE",
"634 420 CURVE SMOOTH",
"516 420 OFFCURVE",
"434 474 OFFCURVE",
"434 582 CURVE SMOOTH",
"434 708 OFFCURVE",
"553 741 OFFCURVE",
"586 928 CURVE SMOOTH",
"593 965 OFFCURVE",
"581 948 OFFCURVE",
"564 933 CURVE SMOOTH",
"424 812 OFFCURVE",
"454 695 OFFCURVE",
"346 633 CURVE SMOOTH",
"252 579 OFFCURVE",
"165 623 OFFCURVE",
"106 725 CURVE SMOOTH"
);
}
);
vertWidth = 2310;
width = 1270;
}
);
unicode = 002A;
},
{
glyphname = plus;
layers = (
{
layerId = "5492647A-5722-481A-83CB-54A7AD0E630B";
paths = (
{
closed = 1;
nodes = (
"906 836 LINE SMOOTH",
"929 836 OFFCURVE",
"940 832 OFFCURVE",
"940 808 CURVE SMOOTH",
"940 751 LINE SMOOTH",
"940 734 OFFCURVE",
"939 726 OFFCURVE",
"922 726 CURVE SMOOTH",
"624 726 LINE SMOOTH",
"592 726 OFFCURVE",
"584 723 OFFCURVE",
"584 692 CURVE SMOOTH",
"584 389 LINE SMOOTH",
"584 372 OFFCURVE",
"577 370 OFFCURVE",
"559 370 CURVE SMOOTH",
"501 370 LINE SMOOTH",
"481 370 OFFCURVE",
"476 370 OFFCURVE",
"476 390 CURVE SMOOTH",
"476 685 LINE SMOOTH",
"476 720 OFFCURVE",
"475 726 OFFCURVE",
"440 726 CURVE SMOOTH",
"149 726 LINE SMOOTH",
"124 726 OFFCURVE",
"120 731 OFFCURVE",
"120 755 CURVE SMOOTH",
"120 809 LINE SMOOTH",
"120 831 OFFCURVE",
"129 836 OFFCURVE",
"150 836 CURVE SMOOTH",
"442 836 LINE SMOOTH",
"469 836 OFFCURVE",
"476 841 OFFCURVE",
"476 870 CURVE SMOOTH",
"476 1160 LINE SMOOTH",
"476 1183 OFFCURVE",
"480 1190 OFFCURVE",
"505 1190 CURVE SMOOTH",
"562 1190 LINE SMOOTH",
"582 1190 OFFCURVE",
"584 1182 OFFCURVE",
"584 1161 CURVE SMOOTH",
"584 874 LINE SMOOTH",
"584 842 OFFCURVE",
"589 836 OFFCURVE",
"620 836 CURVE SMOOTH"
);
}
);
vertWidth = 0;
width = 1060;
},
{
layerId = "7D0224F7-CECC-4B04-BE8C-3FB6AAD34500";
paths = (
{
closed = 1;
nodes = (
"900 746 LINE SMOOTH",
"927 746 OFFCURVE",
"940 743 OFFCURVE",
"940 714 CURVE SMOOTH",
"940 555 LINE SMOOTH",
"940 525 OFFCURVE",
"938 516 OFFCURVE",
"908 516 CURVE SMOOTH",
"678 516 LINE SMOOTH",
"645 516 OFFCURVE",
"644 512 OFFCURVE",
"644 478 CURVE SMOOTH",
"644 243 LINE SMOOTH",
"644 223 OFFCURVE",
"637 220 OFFCURVE",
"616 220 CURVE SMOOTH",
"446 220 LINE SMOOTH",
"419 220 OFFCURVE",
"416 227 OFFCURVE",
"416 255 CURVE SMOOTH",
"416 474 LINE SMOOTH",
"416 508 OFFCURVE",
"413 516 OFFCURVE",
"380 516 CURVE SMOOTH",
"150 516 LINE SMOOTH",
"128 516 OFFCURVE",
"120 521 OFFCURVE",
"120 545 CURVE SMOOTH",
"120 724 LINE SMOOTH",
"120 746 OFFCURVE",
"125 746 OFFCURVE",
"147 746 CURVE SMOOTH",
"388 746 LINE SMOOTH",
"413 746 OFFCURVE",
"416 754 OFFCURVE",
"416 780 CURVE SMOOTH",
"416 1000 LINE SMOOTH",
"416 1033 OFFCURVE",
"420 1040 OFFCURVE",
"452 1040 CURVE SMOOTH",
"614 1040 LINE SMOOTH",
"643 1040 OFFCURVE",
"644 1031 OFFCURVE",
"644 1001 CURVE SMOOTH",
"644 776 LINE SMOOTH",
"644 750 OFFCURVE",
"649 746 OFFCURVE",
"674 746 CURVE SMOOTH"
);
}
);
vertWidth = 0;
width = 1060;
},
{
layerId = "D7E1B457-BD34-420B-BB40-96ED806E1977";
paths = (
{
closed = 1;
nodes = (
"906 836 LINE SMOOTH",
"929 836 OFFCURVE",
"940 832 OFFCURVE",
"940 808 CURVE SMOOTH",
"940 751 LINE SMOOTH",
"940 734 OFFCURVE",
"939 726 OFFCURVE",
"922 726 CURVE SMOOTH",
"624 726 LINE SMOOTH",
"592 726 OFFCURVE",
"584 723 OFFCURVE",
"584 692 CURVE SMOOTH",
"584 389 LINE SMOOTH",
"584 372 OFFCURVE",
"577 370 OFFCURVE",
"559 370 CURVE SMOOTH",
"501 370 LINE SMOOTH",
"481 370 OFFCURVE",
"476 370 OFFCURVE",
"476 390 CURVE SMOOTH",
"476 685 LINE SMOOTH",
"476 720 OFFCURVE",
"475 726 OFFCURVE",
"440 726 CURVE SMOOTH",
"149 726 LINE SMOOTH",
"124 726 OFFCURVE",
"120 731 OFFCURVE",
"120 755 CURVE SMOOTH",
"120 809 LINE SMOOTH",
"120 831 OFFCURVE",
"129 836 OFFCURVE",
"150 836 CURVE SMOOTH",
"442 836 LINE SMOOTH",
"469 836 OFFCURVE",
"476 841 OFFCURVE",
"476 870 CURVE SMOOTH",
"476 1160 LINE SMOOTH",
"476 1183 OFFCURVE",
"480 1190 OFFCURVE",
"505 1190 CURVE SMOOTH",
"562 1190 LINE SMOOTH",
"582 1190 OFFCURVE",
"584 1182 OFFCURVE",
"584 1161 CURVE SMOOTH",
"584 874 LINE SMOOTH",
"584 842 OFFCURVE",
"589 836 OFFCURVE",
"620 836 CURVE SMOOTH"
);
}
);
vertWidth = 0;
width = 1060;
},
{
layerId = "C903388A-C428-42EA-B608-801ADA807095";
paths = (
{
closed = 1;
nodes = (
"900 746 LINE SMOOTH",
"927 746 OFFCURVE",
"940 743 OFFCURVE",
"940 714 CURVE SMOOTH",
"940 555 LINE SMOOTH",
"940 525 OFFCURVE",
"938 516 OFFCURVE",
"908 516 CURVE SMOOTH",
"678 516 LINE SMOOTH",
"645 516 OFFCURVE",
"644 512 OFFCURVE",
"644 478 CURVE SMOOTH",
"644 243 LINE SMOOTH",
"644 223 OFFCURVE",
"637 220 OFFCURVE",
"616 220 CURVE SMOOTH",
"446 220 LINE SMOOTH",
"419 220 OFFCURVE",
"416 227 OFFCURVE",
"416 255 CURVE SMOOTH",
"416 474 LINE SMOOTH",
"416 508 OFFCURVE",
"413 516 OFFCURVE",
"380 516 CURVE SMOOTH",
"150 516 LINE SMOOTH",
"128 516 OFFCURVE",
"120 521 OFFCURVE",
"120 545 CURVE SMOOTH",
"120 724 LINE SMOOTH",
"120 746 OFFCURVE",
"125 746 OFFCURVE",
"147 746 CURVE SMOOTH",
"388 746 LINE SMOOTH",
"413 746 OFFCURVE",
"416 754 OFFCURVE",
"416 780 CURVE SMOOTH",
"416 1000 LINE SMOOTH",
"416 1033 OFFCURVE",
"420 1040 OFFCURVE",
"452 1040 CURVE SMOOTH",
"614 1040 LINE SMOOTH",
"643 1040 OFFCURVE",
"644 1031 OFFCURVE",
"644 1001 CURVE SMOOTH",
"644 776 LINE SMOOTH",
"644 750 OFFCURVE",
"649 746 OFFCURVE",
"674 746 CURVE SMOOTH"
);
}
);
vertWidth = 0;
width = 1060;
}
);
unicode = 002B;
},
{
glyphname = comma;
layers = (
{
layerId = "5492647A-5722-481A-83CB-54A7AD0E630B";
paths = (
{
closed = 1;
nodes = (
"154 164 OFFCURVE",
"212 216 OFFCURVE",
"288 216 CURVE SMOOTH",
"366 216 OFFCURVE",
"428 154 OFFCURVE",
"428 8 CURVE SMOOTH",
"428 -126 OFFCURVE",
"338 -296 OFFCURVE",
"173 -311 CURVE SMOOTH",
"158 -312 OFFCURVE",
"150 -313 OFFCURVE",
"150 -296 CURVE SMOOTH",
"150 -253 LINE SMOOTH",
"150 -235 OFFCURVE",
"160 -232 OFFCURVE",
"175 -230 CURVE SMOOTH",
"266 -216 OFFCURVE",
"344 -124 OFFCURVE",
"333 -9 CURVE SMOOTH",
"331 7 OFFCURVE",
"322 -1 OFFCURVE",
"311 -8 CURVE SMOOTH",
"295 -19 OFFCURVE",
"281 -20 OFFCURVE",
"260 -20 CURVE SMOOTH",
"194 -20 OFFCURVE",
"154 32 OFFCURVE",
"154 98 CURVE SMOOTH"
);
}
);
vertWidth = 0;
width = 578;
},
{
layerId = "7D0224F7-CECC-4B04-BE8C-3FB6AAD34500";
paths = (
{
closed = 1;
nodes = (
"79 344 OFFCURVE",
"207 436 OFFCURVE",
"343 436 CURVE SMOOTH",
"511 436 OFFCURVE",
"623 325 OFFCURVE",
"623 109 CURVE SMOOTH",
"623 -171 OFFCURVE",
"336 -365 OFFCURVE",
"152 -389 CURVE SMOOTH",
"123 -393 OFFCURVE",
"115 -388 OFFCURVE",
"115 -356 CURVE SMOOTH",
"115 -237 LINE SMOOTH",
"115 -217 OFFCURVE",
"123 -213 OFFCURVE",
"140 -211 CURVE SMOOTH",
"260 -199 OFFCURVE",
"381 -101 OFFCURVE",
"422 -32 CURVE SMOOTH",
"427 -24 OFFCURVE",
"420 -18 OFFCURVE",
"408 -23 CURVE SMOOTH",
"385 -33 OFFCURVE",
"349 -40 OFFCURVE",
"305 -40 CURVE SMOOTH",
"169 -40 OFFCURVE",
"79 52 OFFCURVE",
"79 198 CURVE SMOOTH"
);
}
);
vertWidth = 0;
width = 703;
},
{
layerId = "D7E1B457-BD34-420B-BB40-96ED806E1977";
paths = (
{
closed = 1;
nodes = (
"154 164 OFFCURVE",
"212 216 OFFCURVE",
"288 216 CURVE SMOOTH",
"366 216 OFFCURVE",
"428 154 OFFCURVE",
"428 8 CURVE SMOOTH",
"428 -126 OFFCURVE",
"338 -296 OFFCURVE",
"173 -311 CURVE SMOOTH",
"158 -312 OFFCURVE",
"150 -313 OFFCURVE",
"150 -296 CURVE SMOOTH",
"150 -253 LINE SMOOTH",
"150 -235 OFFCURVE",
"160 -232 OFFCURVE",
"175 -230 CURVE SMOOTH",
"266 -216 OFFCURVE",
"344 -124 OFFCURVE",
"333 -9 CURVE SMOOTH",
"331 7 OFFCURVE",
"322 -1 OFFCURVE",
"311 -8 CURVE SMOOTH",
"295 -19 OFFCURVE",
"281 -20 OFFCURVE",
"260 -20 CURVE SMOOTH",
"194 -20 OFFCURVE",
"154 32 OFFCURVE",
"154 98 CURVE SMOOTH"
);
}
);
vertWidth = 0;
width = 578;
},
{
layerId = "C903388A-C428-42EA-B608-801ADA807095";
paths = (
{
closed = 1;
nodes = (
"79 344 OFFCURVE",
"207 436 OFFCURVE",
"343 436 CURVE SMOOTH",
"511 436 OFFCURVE",
"623 325 OFFCURVE",
"623 109 CURVE SMOOTH",
"623 -171 OFFCURVE",
"336 -365 OFFCURVE",
"152 -389 CURVE SMOOTH",
"123 -393 OFFCURVE",
"115 -388 OFFCURVE",
"115 -356 CURVE SMOOTH",
"115 -237 LINE SMOOTH",
"115 -217 OFFCURVE",
"123 -213 OFFCURVE",
"140 -211 CURVE SMOOTH",
"260 -199 OFFCURVE",
"381 -101 OFFCURVE",
"422 -32 CURVE SMOOTH",
"427 -24 OFFCURVE",
"420 -18 OFFCURVE",
"408 -23 CURVE SMOOTH",
"385 -33 OFFCURVE",
"349 -40 OFFCURVE",
"305 -40 CURVE SMOOTH",
"169 -40 OFFCURVE",
"79 52 OFFCURVE",
"79 198 CURVE SMOOTH"
);
}
);
vertWidth = 0;
width = 703;
}
);
leftKerningGroup = kc0_20;
rightKerningGroup = kc0_23;
unicode = 002C;
},
{
glyphname = hyphen;
layers = (
{
layerId = "5492647A-5722-481A-83CB-54A7AD0E630B";
paths = (
{
closed = 1;
nodes = (
"534 710 LINE SMOOTH",
"557 710 OFFCURVE",
"560 706 OFFCURVE",
"560 682 CURVE SMOOTH",
"560 603 LINE SMOOTH",
"560 579 OFFCURVE",
"558 570 OFFCURVE",
"532 570 CURVE SMOOTH",
"106 570 LINE SMOOTH",
"81 570 OFFCURVE",
"80 574 OFFCURVE",
"80 600 CURVE SMOOTH",
"80 682 LINE SMOOTH",
"80 705 OFFCURVE",
"87 710 OFFCURVE",
"108 710 CURVE SMOOTH"
);
}
);
vertWidth = 0;
width = 640;
},
{
layerId = "7D0224F7-CECC-4B04-BE8C-3FB6AAD34500";
paths = (
{
closed = 1;
nodes = (
"666 770 LINE SMOOTH",
"697 770 OFFCURVE",
"700 763 OFFCURVE",
"700 731 CURVE SMOOTH",
"700 581 LINE SMOOTH",
"700 546 OFFCURVE",
"699 540 OFFCURVE",
"664 540 CURVE SMOOTH",
"162 540 LINE SMOOTH",
"126 540 OFFCURVE",
"120 545 OFFCURVE",
"120 580 CURVE SMOOTH",
"120 729 LINE SMOOTH",
"120 761 OFFCURVE",
"122 770 OFFCURVE",
"154 770 CURVE SMOOTH"
);
}
);
vertWidth = 0;
width = 820;
},
{
layerId = "D7E1B457-BD34-420B-BB40-96ED806E1977";
paths = (
{
closed = 1;
nodes = (
"534 710 LINE SMOOTH",
"557 710 OFFCURVE",
"560 706 OFFCURVE",
"560 682 CURVE SMOOTH",
"560 603 LINE SMOOTH",
"560 579 OFFCURVE",
"558 570 OFFCURVE",
"532 570 CURVE SMOOTH",
"106 570 LINE SMOOTH",
"81 570 OFFCURVE",
"80 574 OFFCURVE",
"80 600 CURVE SMOOTH",
"80 682 LINE SMOOTH",
"80 705 OFFCURVE",
"87 710 OFFCURVE",
"108 710 CURVE SMOOTH"
);
}
);
vertWidth = 0;
width = 640;
},
{
layerId = "C903388A-C428-42EA-B608-801ADA807095";
paths = (
{
closed = 1;
nodes = (
"666 770 LINE SMOOTH",
"697 770 OFFCURVE",
"700 763 OFFCURVE",
"700 731 CURVE SMOOTH",
"700 581 LINE SMOOTH",
"700 546 OFFCURVE",
"699 540 OFFCURVE",
"664 540 CURVE SMOOTH",
"162 540 LINE SMOOTH",
"126 540 OFFCURVE",
"120 545 OFFCURVE",
"120 580 CURVE SMOOTH",
"120 729 LINE SMOOTH",
"120 761 OFFCURVE",
"122 770 OFFCURVE",
"154 770 CURVE SMOOTH"
);
}
);
vertWidth = 0;
width = 820;
}
);
unicode = 002D;
},
{
glyphname = period;
layers = (
{
layerId = "5492647A-5722-481A-83CB-54A7AD0E630B";
paths = (
{
closed = 1;
nodes = (
"150 173 OFFCURVE",
"209 232 OFFCURVE",
"282 232 CURVE SMOOTH",
"355 232 OFFCURVE",
"414 173 OFFCURVE",
"414 100 CURVE SMOOTH",
"414 27 OFFCURVE",
"355 -32 OFFCURVE",
"282 -32 CURVE SMOOTH",
"209 -32 OFFCURVE",
"150 27 OFFCURVE",
"150 100 CURVE SMOOTH"
);
}
);
vertWidth = 2190;
width = 564;
},
{
layerId = "7D0224F7-CECC-4B04-BE8C-3FB6AAD34500";
paths = (
{
closed = 1;
nodes = (
"80 332 OFFCURVE",
"188 440 OFFCURVE",
"320 440 CURVE SMOOTH",
"452 440 OFFCURVE",
"560 332 OFFCURVE",
"560 200 CURVE SMOOTH",
"560 68 OFFCURVE",
"452 -40 OFFCURVE",
"320 -40 CURVE SMOOTH",
"188 -40 OFFCURVE",
"80 68 OFFCURVE",
"80 200 CURVE SMOOTH"
);
}
);
vertWidth = 0;
width = 640;
},
{
layerId = "D7E1B457-BD34-420B-BB40-96ED806E1977";
paths = (
{
closed = 1;
nodes = (
"150 173 OFFCURVE",
"209 232 OFFCURVE",
"282 232 CURVE SMOOTH",
"355 232 OFFCURVE",
"414 173 OFFCURVE",
"414 100 CURVE SMOOTH",
"414 27 OFFCURVE",
"355 -32 OFFCURVE",
"282 -32 CURVE SMOOTH",
"209 -32 OFFCURVE",
"150 27 OFFCURVE",
"150 100 CURVE SMOOTH"
);
}
);
vertWidth = 2190;
width = 564;
},
{
layerId = "C903388A-C428-42EA-B608-801ADA807095";
paths = (
{
closed = 1;
nodes = (
"80 332 OFFCURVE",
"188 440 OFFCURVE",
"320 440 CURVE SMOOTH",
"452 440 OFFCURVE",
"560 332 OFFCURVE",
"560 200 CURVE SMOOTH",
"560 68 OFFCURVE",
"452 -40 OFFCURVE",
"320 -40 CURVE SMOOTH",
"188 -40 OFFCURVE",
"80 68 OFFCURVE",
"80 200 CURVE SMOOTH"
);
}
);
vertWidth = 0;
width = 640;
}
);
leftKerningGroup = kc0_20;
rightKerningGroup = kc0_23;
unicode = 002E;
},
{
glyphname = slash;
layers = (
{
layerId = "5492647A-5722-481A-83CB-54A7AD0E630B";
paths = (
{
closed = 1;
nodes = (
"919 1560 LINE SMOOTH",
"957 1560 OFFCURVE",
"958 1555 OFFCURVE",
"948 1530 CURVE SMOOTH",
"231 -268 LINE SMOOTH",
"220 -296 OFFCURVE",
"210 -300 OFFCURVE",
"169 -300 CURVE SMOOTH",
"137 -300 LINE SMOOTH",
"88 -300 OFFCURVE",
"85 -289 OFFCURVE",
"97 -258 CURVE SMOOTH",
"818 1526 LINE SMOOTH",
"829 1553 OFFCURVE",
"834 1560 OFFCURVE",
"874 1560 CURVE SMOOTH"
);
}
);
vertWidth = 0;
width = 1040;
},
{
layerId = "7D0224F7-CECC-4B04-BE8C-3FB6AAD34500";
paths = (
{
closed = 1;
nodes = (
"881 1560 LINE SMOOTH",
"948 1560 OFFCURVE",
"959 1557 OFFCURVE",
"942 1505 CURVE SMOOTH",
"353 -254 LINE SMOOTH",
"340 -294 OFFCURVE",
"332 -300 OFFCURVE",
"277 -300 CURVE SMOOTH",
"167 -300 LINE SMOOTH",
"96 -300 OFFCURVE",
"80 -299 OFFCURVE",
"98 -246 CURVE SMOOTH",
"700 1524 LINE SMOOTH",
"711 1555 OFFCURVE",
"719 1560 OFFCURVE",
"763 1560 CURVE SMOOTH"
);
}
);
vertWidth = 0;
width = 1040;
},
{
layerId = "D7E1B457-BD34-420B-BB40-96ED806E1977";
paths = (
{
closed = 1;
nodes = (
"919 1560 LINE SMOOTH",
"957 1560 OFFCURVE",
"958 1555 OFFCURVE",
"948 1530 CURVE SMOOTH",
"231 -268 LINE SMOOTH",
"220 -296 OFFCURVE",
"210 -300 OFFCURVE",
"169 -300 CURVE SMOOTH",
"137 -300 LINE SMOOTH",
"88 -300 OFFCURVE",
"85 -289 OFFCURVE",
"97 -258 CURVE SMOOTH",
"818 1526 LINE SMOOTH",
"829 1553 OFFCURVE",
"834 1560 OFFCURVE",
"874 1560 CURVE SMOOTH"
);
}
);
vertWidth = 0;
width = 1040;
},
{
layerId = "C903388A-C428-42EA-B608-801ADA807095";
paths = (
{
closed = 1;
nodes = (
"881 1560 LINE SMOOTH",
"948 1560 OFFCURVE",
"959 1557 OFFCURVE",
"942 1505 CURVE SMOOTH",
"353 -254 LINE SMOOTH",
"340 -294 OFFCURVE",
"332 -300 OFFCURVE",
"277 -300 CURVE SMOOTH",
"167 -300 LINE SMOOTH",
"96 -300 OFFCURVE",
"80 -299 OFFCURVE",
"98 -246 CURVE SMOOTH",
"700 1524 LINE SMOOTH",
"711 1555 OFFCURVE",
"719 1560 OFFCURVE",
"763 1560 CURVE SMOOTH"
);
}
);
vertWidth = 0;
width = 1040;
}
);
leftKerningGroup = kc0_5;
rightKerningGroup = kc0_12;
unicode = 002F;
},
{
glyphname = zero;
layers = (
{
layerId = "5492647A-5722-481A-83CB-54A7AD0E630B";
paths = (
{
closed = 1;
nodes = (
"80 1316 OFFCURVE",
"344 1520 OFFCURVE",
"590 1520 CURVE SMOOTH",
"856 1520 OFFCURVE",
"1100 1316 OFFCURVE",
"1100 750 CURVE SMOOTH",
"1100 184 OFFCURVE",
"816 -20 OFFCURVE",
"590 -20 CURVE SMOOTH",
"344 -20 OFFCURVE",
"80 184 OFFCURVE",
"80 750 CURVE SMOOTH"
);
},
{
closed = 1;
nodes = (
"300 266 OFFCURVE",
"422 80 OFFCURVE",
"590 80 CURVE SMOOTH",
"778 80 OFFCURVE",
"880 266 OFFCURVE",
"880 750 CURVE SMOOTH",
"880 1234 OFFCURVE",
"778 1420 OFFCURVE",
"590 1420 CURVE SMOOTH",
"422 1420 OFFCURVE",
"300 1234 OFFCURVE",
"300 750 CURVE SMOOTH"
);
}
);
vertWidth = 0;
width = 1180;
},
{
layerId = "7D0224F7-CECC-4B04-BE8C-3FB6AAD34500";
paths = (
{
closed = 1;
nodes = (
"50 1316 OFFCURVE",
"214 1520 OFFCURVE",
"560 1520 CURVE SMOOTH",
"926 1520 OFFCURVE",
"1070 1316 OFFCURVE",
"1070 750 CURVE SMOOTH",
"1070 184 OFFCURVE",
"886 -20 OFFCURVE",
"560 -20 CURVE SMOOTH",
"214 -20 OFFCURVE",
"50 184 OFFCURVE",
"50 750 CURVE SMOOTH"
);
},
{
closed = 1;
nodes = (
"470 266 OFFCURVE",
"492 190 OFFCURVE",
"560 190 CURVE SMOOTH",
"638 190 OFFCURVE",
"650 266 OFFCURVE",
"650 750 CURVE SMOOTH",
"650 1234 OFFCURVE",
"638 1310 OFFCURVE",
"560 1310 CURVE SMOOTH",
"492 1310 OFFCURVE",
"470 1234 OFFCURVE",
"470 750 CURVE SMOOTH"
);
}
);
vertWidth = 0;
width = 1120;
},
{
layerId = "D7E1B457-BD34-420B-BB40-96ED806E1977";
paths = (
{
closed = 1;
nodes = (
"80 1316 OFFCURVE",
"194 1520 OFFCURVE",
"440 1520 CURVE SMOOTH",
"706 1520 OFFCURVE",
"800 1316 OFFCURVE",
"800 750 CURVE SMOOTH",
"800 184 OFFCURVE",
"666 -20 OFFCURVE",
"440 -20 CURVE SMOOTH",
"194 -20 OFFCURVE",
"80 184 OFFCURVE",
"80 750 CURVE SMOOTH"
);
},
{
closed = 1;
nodes = (
"300 216 OFFCURVE",
"332 80 OFFCURVE",
"440 80 CURVE SMOOTH",
"568 80 OFFCURVE",
"580 216 OFFCURVE",
"580 750 CURVE SMOOTH",
"580 1284 OFFCURVE",
"568 1420 OFFCURVE",
"440 1420 CURVE SMOOTH",
"332 1420 OFFCURVE",
"300 1284 OFFCURVE",
"300 750 CURVE SMOOTH"
);
}
);
vertWidth = 0;
width = 880;
},
{
layerId = "C903388A-C428-42EA-B608-801ADA807095";
paths = (
{
closed = 1;
nodes = (
"72 1316 OFFCURVE",
"336 1520 OFFCURVE",
"682 1520 CURVE SMOOTH",
"1048 1520 OFFCURVE",
"1292 1316 OFFCURVE",
"1292 750 CURVE SMOOTH",
"1292 184 OFFCURVE",
"1008 -20 OFFCURVE",
"682 -20 CURVE SMOOTH",
"336 -20 OFFCURVE",
"72 184 OFFCURVE",
"72 750 CURVE SMOOTH"
);
},
{
closed = 1;
nodes = (
"492 306 OFFCURVE",
"554 190 OFFCURVE",
"682 190 CURVE SMOOTH",
"820 190 OFFCURVE",
"872 306 OFFCURVE",
"872 750 CURVE SMOOTH",
"872 1194 OFFCURVE",
"820 1310 OFFCURVE",
"682 1310 CURVE SMOOTH",
"554 1310 OFFCURVE",
"492 1194 OFFCURVE",
"492 750 CURVE SMOOTH"
);
}
);
vertWidth = 0;
width = 1364;
}
);
unicode = 0030;
},
{
glyphname = one;
layers = (
{
layerId = "5492647A-5722-481A-83CB-54A7AD0E630B";
paths = (
{
closed = 1;
nodes = (
"100 80 LINE SMOOTH",
"100 109 OFFCURVE",
"111 110 OFFCURVE",
"140 110 CURVE SMOOTH",
"398 110 LINE SMOOTH",
"434 110 OFFCURVE",
"440 118 OFFCURVE",
"440 152 CURVE SMOOTH",
"440 1173 LINE SMOOTH",
"440 1209 OFFCURVE",
"437 1220 OFFCURVE",
"402 1220 CURVE SMOOTH",
"178 1220 LINE SMOOTH",
"149 1220 OFFCURVE",
"134 1222 OFFCURVE",
"134 1254 CURVE SMOOTH",
"134 1284 LINE SMOOTH",
"134 1320 OFFCURVE",
"138 1330 OFFCURVE",
"176 1330 CURVE SMOOTH",
"370 1331 OFFCURVE",
"435 1345 OFFCURVE",
"522 1538 CURVE SMOOTH",
"532 1559 OFFCURVE",
"530 1580 OFFCURVE",
"564 1580 CURVE SMOOTH",
"592 1580 LINE SMOOTH",
"617 1580 OFFCURVE",
"630 1579 OFFCURVE",
"630 1554 CURVE SMOOTH",
"630 162 LINE SMOOTH",
"630 115 OFFCURVE",
"636 110 OFFCURVE",
"684 110 CURVE SMOOTH",
"906 110 LINE SMOOTH",
"932 110 OFFCURVE",
"950 109 OFFCURVE",
"950 80 CURVE SMOOTH",
"950 40 LINE SMOOTH",
"950 8 OFFCURVE",
"947 0 OFFCURVE",
"916 0 CURVE SMOOTH",
"134 0 LINE SMOOTH",
"104 0 OFFCURVE",
"100 7 OFFCURVE",
"100 38 CURVE SMOOTH"
);
}
);
vertWidth = 2310;
width = 1050;
},
{
layerId = "7D0224F7-CECC-4B04-BE8C-3FB6AAD34500";
paths = (
{
closed = 1;
nodes = (
"70 166 LINE SMOOTH",
"70 208 OFFCURVE",
"80 210 OFFCURVE",
"123 210 CURVE SMOOTH",
"215 210 LINE SMOOTH",
"264 210 OFFCURVE",
"270 217 OFFCURVE",
"270 264 CURVE SMOOTH",
"270 1023 LINE SMOOTH",
"270 1063 OFFCURVE",
"261 1070 OFFCURVE",
"223 1070 CURVE SMOOTH",
"149 1070 LINE SMOOTH",
"116 1070 OFFCURVE",
"104 1073 OFFCURVE",
"104 1109 CURVE SMOOTH",
"104 1229 LINE SMOOTH",
"104 1283 OFFCURVE",
"136.043 1278.764 OFFCURVE",
"183 1281 CURVE SMOOTH",
"267 1285 OFFCURVE",
"356 1310 OFFCURVE",
"449 1485 CURVE SMOOTH",
"466 1517 OFFCURVE",
"471 1530 OFFCURVE",
"523 1530 CURVE SMOOTH",
"609 1530 LINE SMOOTH",
"652 1530 OFFCURVE",
"660 1525 OFFCURVE",
"660 1484 CURVE SMOOTH",
"660 266 LINE SMOOTH",
"660 212 OFFCURVE",
"670 210 OFFCURVE",
"725 210 CURVE SMOOTH",
"797 210 LINE SMOOTH",
"830 210 OFFCURVE",
"850 206 OFFCURVE",
"850 170 CURVE SMOOTH",
"850 59 LINE SMOOTH",
"850 10 OFFCURVE",
"848 0 OFFCURVE",
"799 0 CURVE SMOOTH",
"135 0 LINE SMOOTH",
"77 0 OFFCURVE",
"70 5 OFFCURVE",
"70 65 CURVE SMOOTH"
);
}
);
vertWidth = 2310;
width = 920;
},
{
layerId = "D7E1B457-BD34-420B-BB40-96ED806E1977";
paths = (
{
closed = 1;
nodes = (
"80 80 LINE SMOOTH",
"80 109 OFFCURVE",
"91 110 OFFCURVE",
"120 110 CURVE SMOOTH",
"228 110 LINE SMOOTH",
"264 110 OFFCURVE",
"270 118 OFFCURVE",
"270 152 CURVE SMOOTH",
"270 1173 LINE SMOOTH",
"270 1209 OFFCURVE",
"267 1220 OFFCURVE",
"232 1220 CURVE SMOOTH",
"128 1220 LINE SMOOTH",
"99 1220 OFFCURVE",
"84 1222 OFFCURVE",
"84 1254 CURVE SMOOTH",
"84 1284 LINE SMOOTH",
"84 1320 OFFCURVE",
"88 1329 OFFCURVE",
"126 1330 CURVE SMOOTH",
"200 1331 OFFCURVE",
"305 1345 OFFCURVE",
"352 1538 CURVE SMOOTH",
"358 1561 OFFCURVE",
"360 1580 OFFCURVE",
"394 1580 CURVE SMOOTH",
"422 1580 LINE SMOOTH",
"447 1580 OFFCURVE",
"460 1579 OFFCURVE",
"460 1554 CURVE SMOOTH",
"460 162 LINE SMOOTH",
"460 115 OFFCURVE",
"466 110 OFFCURVE",
"514 110 CURVE SMOOTH",
"586 110 LINE SMOOTH",
"612 110 OFFCURVE",
"630 109 OFFCURVE",
"630 80 CURVE SMOOTH",
"630 40 LINE SMOOTH",
"630 8 OFFCURVE",
"627 0 OFFCURVE",
"596 0 CURVE SMOOTH",
"114 0 LINE SMOOTH",
"84 0 OFFCURVE",
"80 7 OFFCURVE",
"80 38 CURVE SMOOTH"
);
}
);
vertWidth = 2310;
width = 700;
},
{
layerId = "C903388A-C428-42EA-B608-801ADA807095";
paths = (
{
closed = 1;
nodes = (
"70 166 LINE SMOOTH",
"70 208 OFFCURVE",
"80 210 OFFCURVE",
"123 210 CURVE SMOOTH",
"385 210 LINE SMOOTH",
"434 210 OFFCURVE",
"440 217 OFFCURVE",
"440 264 CURVE SMOOTH",
"440 1073 LINE SMOOTH",
"440 1113 OFFCURVE",
"431 1120 OFFCURVE",
"393 1120 CURVE SMOOTH",
"149 1120 LINE SMOOTH",
"116 1120 OFFCURVE",
"104 1123 OFFCURVE",
"104 1159 CURVE SMOOTH",
"104 1279 LINE SMOOTH",
"104 1333 OFFCURVE",
"136 1330 OFFCURVE",
"183 1331 CURVE SMOOTH",
"367 1335 OFFCURVE",
"526 1360 OFFCURVE",
"619 1535 CURVE SMOOTH",
"636 1567 OFFCURVE",
"641 1580 OFFCURVE",
"693 1580 CURVE SMOOTH",
"779 1580 LINE SMOOTH",
"822 1580 OFFCURVE",
"830 1575 OFFCURVE",
"830 1534 CURVE SMOOTH",
"830 266 LINE SMOOTH",
"830 212 OFFCURVE",
"840 210 OFFCURVE",
"895 210 CURVE SMOOTH",
"1117 210 LINE SMOOTH",
"1150 210 OFFCURVE",
"1170 206 OFFCURVE",
"1170 170 CURVE SMOOTH",
"1170 59 LINE SMOOTH",
"1170 10 OFFCURVE",
"1168 0 OFFCURVE",
"1119 0 CURVE SMOOTH",
"135 0 LINE SMOOTH",
"77 0 OFFCURVE",
"70 5 OFFCURVE",
"70 65 CURVE SMOOTH"
);
}
);
vertWidth = 2310;
width = 1200;
}
);
unicode = 0031;
},
{
glyphname = two;
layers = (
{
layerId = "5492647A-5722-481A-83CB-54A7AD0E630B";
paths = (
{
closed = 1;
nodes = (
"1085 63 OFFCURVE",
"963 -20 OFFCURVE",
"790 -20 CURVE SMOOTH",
"576 -20 OFFCURVE",
"446 100 OFFCURVE",
"300 100 CURVE SMOOTH",
"241 100 OFFCURVE",
"210 73 OFFCURVE",
"190 30 CURVE SMOOTH",
"183 13 OFFCURVE",
"178 0 OFFCURVE",
"151 0 CURVE SMOOTH",
"103 0 LINE SMOOTH",
"82 0 OFFCURVE",
"80 10 OFFCURVE",
"80 29 CURVE SMOOTH",
"89 307 OFFCURVE",
"235 503 OFFCURVE",
"514 698 CURVE SMOOTH",
"662 801 OFFCURVE",
"834 942 OFFCURVE",
"834 1170 CURVE SMOOTH",
"834 1348 OFFCURVE",
"732 1436 OFFCURVE",
"554 1436 CURVE SMOOTH",
"396 1436 OFFCURVE",
"270 1348 OFFCURVE",
"270 1294 CURVE SMOOTH",
"270 1248 OFFCURVE",
"364 1238 OFFCURVE",
"364 1146 CURVE SMOOTH",
"364 1072 OFFCURVE",
"299 1030 OFFCURVE",
"245 1030 CURVE SMOOTH",
"187 1030 OFFCURVE",
"112 1066 OFFCURVE",
"112 1162 CURVE SMOOTH",
"112 1346 OFFCURVE",
"290 1520 OFFCURVE",
"584 1520 CURVE SMOOTH",
"866 1520 OFFCURVE",
"1056 1400 OFFCURVE",
"1056 1140 CURVE SMOOTH",
"1056 900 OFFCURVE",
"847 740 OFFCURVE",
"564 580 CURVE SMOOTH",
"372 472 OFFCURVE",
"260 339 OFFCURVE",
"207 204 CURVE SMOOTH",
"192 165 OFFCURVE",
"170 134 OFFCURVE",
"186 134 CURVE SMOOTH",
"205 134 OFFCURVE",
"203 163 OFFCURVE",
"230 191 CURVE SMOOTH",
"276 238 OFFCURVE",
"340 269 OFFCURVE",
"420 269 CURVE SMOOTH",
"570 269 OFFCURVE",
"650 181 OFFCURVE",
"802 181 CURVE SMOOTH",
"919 181 OFFCURVE",
"968 235 OFFCURVE",
"975 327 CURVE SMOOTH",
"978 350 OFFCURVE",
"977 354 OFFCURVE",
"1003 354 CURVE SMOOTH",
"1044 354 LINE SMOOTH",
"1067 354 OFFCURVE",
"1069 349 OFFCURVE",
"1070 325 CURVE SMOOTH"
);
}
);
vertWidth = 2310;
width = 1140;
},
{
layerId = "7D0224F7-CECC-4B04-BE8C-3FB6AAD34500";
paths = (
{
closed = 1;
nodes = (
"1042.957 141 OFFCURVE",
"972.957 -20 OFFCURVE",
"724.957 -20 CURVE SMOOTH",
"540.957 -20 OFFCURVE",
"500.957 100 OFFCURVE",
"414.957 100 CURVE SMOOTH",
"357.957 100 OFFCURVE",
"320.957 74 OFFCURVE",
"297.957 34 CURVE SMOOTH",
"281.957 7 OFFCURVE",
"287.957 0 OFFCURVE",
"242.957 0 CURVE SMOOTH",
"100.957 0 LINE SMOOTH",
"61.957 0 OFFCURVE",
"55.957 4 OFFCURVE",
"55.957 42 CURVE SMOOTH",
"56.957 320 OFFCURVE",
"147.547 625.523 OFFCURVE",
"428.957 808 CURVE SMOOTH",
"556.957 891 OFFCURVE",
"588.957 972 OFFCURVE",
"588.957 1150 CURVE SMOOTH",
"588.957 1288 OFFCURVE",
"566.957 1336 OFFCURVE",
"498.957 1336 CURVE SMOOTH",
"450.957 1336 OFFCURVE",
"406.957 1302 OFFCURVE",
"406.957 1274 CURVE SMOOTH",
"406.957 1238 OFFCURVE",
"538.957 1228 OFFCURVE",
"538.957 1056 CURVE SMOOTH",
"538.957 922 OFFCURVE",
"433.957 850 OFFCURVE",
"319.957 850 CURVE SMOOTH",
"201.957 850 OFFCURVE",
"86.957 946 OFFCURVE",
"86.957 1102 CURVE SMOOTH",
"86.957 1376 OFFCURVE",
"264.957 1520 OFFCURVE",
"558.957 1520 CURVE SMOOTH",
"830.957 1520 OFFCURVE",
"1010.957 1360 OFFCURVE",
"1010.957 1140 CURVE SMOOTH",
"1010.957 900 OFFCURVE",
"761.55 767.614 OFFCURVE",
"598.957 670 CURVE SMOOTH",
"433.43 570.624 OFFCURVE",
"386.957 516 OFFCURVE",
"353.957 441 CURVE SMOOTH",
"325.08 375.371 OFFCURVE",
"289.957 301 OFFCURVE",
"311.957 301 CURVE SMOOTH",
"334.957 301 OFFCURVE",
"323.957 356 OFFCURVE",
"385.957 414 CURVE SMOOTH",
"432.957 458 OFFCURVE",
"478.957 469 OFFCURVE",
"514.957 469 CURVE SMOOTH",
"624.957 469 OFFCURVE",
"654.957 381 OFFCURVE",
"746.957 381 CURVE SMOOTH",
"823.957 381 OFFCURVE",
"844.957 431 OFFCURVE",
"857.957 510 CURVE SMOOTH",
"863.957 552 OFFCURVE",
"858.957 554 OFFCURVE",
"906.957 554 CURVE SMOOTH",
"1012.957 554 LINE SMOOTH",
"1056.957 554 OFFCURVE",
"1053.957 552 OFFCURVE",
"1053.957 510 CURVE SMOOTH"
);
}
);
vertWidth = 2310;
width = 1094;
},
{
layerId = "D7E1B457-BD34-420B-BB40-96ED806E1977";
paths = (
{
closed = 1;
nodes = (
"785 63 OFFCURVE",
"723 -20 OFFCURVE",
"600 -20 CURVE SMOOTH",
"436 -20 OFFCURVE",
"396 100 OFFCURVE",
"300 100 CURVE SMOOTH",
"241 100 OFFCURVE",
"210 73 OFFCURVE",
"190 30 CURVE SMOOTH",
"183 13 OFFCURVE",
"178 0 OFFCURVE",
"151 0 CURVE SMOOTH",
"103 0 LINE SMOOTH",
"82 0 OFFCURVE",
"80 10 OFFCURVE",
"80 29 CURVE SMOOTH",
"89 307 OFFCURVE",
"185 501 OFFCURVE",
"364 698 CURVE SMOOTH",
"466 810 OFFCURVE",
"554 942 OFFCURVE",
"554 1170 CURVE SMOOTH",
"554 1348 OFFCURVE",
"512 1426 OFFCURVE",
"384 1426 CURVE SMOOTH",
"277 1426 OFFCURVE",
"240 1358 OFFCURVE",
"240 1324 CURVE SMOOTH",
"240 1278 OFFCURVE",
"364 1258 OFFCURVE",
"364 1146 CURVE SMOOTH",
"364 1072 OFFCURVE",
"299 1030 OFFCURVE",
"245 1030 CURVE SMOOTH",
"187 1030 OFFCURVE",
"102 1086 OFFCURVE",
"102 1212 CURVE SMOOTH",
"102 1346 OFFCURVE",
"190 1520 OFFCURVE",
"454 1520 CURVE SMOOTH",
"686 1520 OFFCURVE",
"776 1390 OFFCURVE",
"776 1170 CURVE SMOOTH",
"776 930 OFFCURVE",
"648 755 OFFCURVE",
"414 580 CURVE SMOOTH",
"298 493 OFFCURVE",
"223 339 OFFCURVE",
"200 204 CURVE SMOOTH",
"193 163 OFFCURVE",
"170 134 OFFCURVE",
"186 134 CURVE SMOOTH",
"205 134 OFFCURVE",
"211 157 OFFCURVE",
"230 191 CURVE SMOOTH",
"256 238 OFFCURVE",
"300 269 OFFCURVE",
"380 269 CURVE SMOOTH",
"480 269 OFFCURVE",
"510 181 OFFCURVE",
"602 181 CURVE SMOOTH",
"659 181 OFFCURVE",
"668 235 OFFCURVE",
"675 327 CURVE SMOOTH",
"678 350 OFFCURVE",
"677 354 OFFCURVE",
"703 354 CURVE SMOOTH",
"744 354 LINE SMOOTH",
"767 354 OFFCURVE",
"769 349 OFFCURVE",
"770 325 CURVE SMOOTH"
);
}
);
vertWidth = 2310;
width = 840;
},
{
layerId = "C903388A-C428-42EA-B608-801ADA807095";
paths = (
{
closed = 1;
nodes = (
"1343 141 OFFCURVE",
"1193 -20 OFFCURVE",
"925 -20 CURVE SMOOTH",
"691 -20 OFFCURVE",
"561 100 OFFCURVE",
"415 100 CURVE SMOOTH",
"358 100 OFFCURVE",
"321 74 OFFCURVE",
"298 34 CURVE SMOOTH",
"282 7 OFFCURVE",
"288 0 OFFCURVE",
"243 0 CURVE SMOOTH",
"101 0 LINE SMOOTH",
"62 0 OFFCURVE",
"56 4 OFFCURVE",
"56 42 CURVE SMOOTH",
"57 320 OFFCURVE",
"194 576 OFFCURVE",
"469 768 CURVE SMOOTH",
"617 871 OFFCURVE",
"869 972 OFFCURVE",
"869 1150 CURVE SMOOTH",
"869 1288 OFFCURVE",
"817 1346 OFFCURVE",
"609 1346 CURVE SMOOTH",
"481 1346 OFFCURVE",
"377 1298 OFFCURVE",
"377 1254 CURVE SMOOTH",
"377 1218 OFFCURVE",
"539 1228 OFFCURVE",
"539 1056 CURVE SMOOTH",
"539 922 OFFCURVE",
"434 850 OFFCURVE",
"320 850 CURVE SMOOTH",
"202 850 OFFCURVE",
"87 926 OFFCURVE",
"87 1082 CURVE SMOOTH",
"87 1356 OFFCURVE",
"345 1520 OFFCURVE",
"699 1520 CURVE SMOOTH",
"1061 1520 OFFCURVE",
"1291 1400 OFFCURVE",
"1291 1140 CURVE SMOOTH",
"1291 860 OFFCURVE",
"1010 792 OFFCURVE",
"709 660 CURVE SMOOTH",
"541 586 OFFCURVE",
"443 516 OFFCURVE",
"380 441 CURVE SMOOTH",
"334 386 OFFCURVE",
"290 301 OFFCURVE",
"312 301 CURVE SMOOTH",
"335 301 OFFCURVE",
"334 356 OFFCURVE",
"396 414 CURVE SMOOTH",
"443 458 OFFCURVE",
"519 469 OFFCURVE",
"585 469 CURVE SMOOTH",
"755 469 OFFCURVE",
"835 381 OFFCURVE",
"987 381 CURVE SMOOTH",
"1094 381 OFFCURVE",
"1145 431 OFFCURVE",
"1158 510 CURVE SMOOTH",
"1164 552 OFFCURVE",
"1159 554 OFFCURVE",
"1207 554 CURVE SMOOTH",
"1313 554 LINE SMOOTH",
"1357 554 OFFCURVE",
"1354 552 OFFCURVE",
"1354 510 CURVE SMOOTH"
);
}
);
vertWidth = 2310;
width = 1425;
}
);
unicode = 0032;
},
{
glyphname = three;
layers = (
{
layerId = "5492647A-5722-481A-83CB-54A7AD0E630B";
paths = (
{
closed = 1;
nodes = (
"50 394 OFFCURVE",
"120 430 OFFCURVE",
"178 430 CURVE SMOOTH",
"232 430 OFFCURVE",
"292 388 OFFCURVE",
"292 314 CURVE SMOOTH",
"292 242 OFFCURVE",
"228 232 OFFCURVE",
"228 186 CURVE SMOOTH",
"228 132 OFFCURVE",
"314 64 OFFCURVE",
"482 64 CURVE SMOOTH",
"700 64 OFFCURVE",
"778 232 OFFCURVE",
"778 380 CURVE SMOOTH",
"778 514 OFFCURVE",
"732 685 OFFCURVE",
"474 717 CURVE SMOOTH",
"428 723 OFFCURVE",
"384 703 OFFCURVE",
"384 762 CURVE SMOOTH",
"384 780 LINE SMOOTH",
"384 839 OFFCURVE",
"429 819 OFFCURVE",
"474 826 CURVE SMOOTH",
"725 864 OFFCURVE",
"738 1066 OFFCURVE",
"738 1182 CURVE SMOOTH",
"738 1330 OFFCURVE",
"660 1436 OFFCURVE",
"482 1436 CURVE SMOOTH",
"354 1436 OFFCURVE",
"288 1370 OFFCURVE",
"288 1316 CURVE SMOOTH",
"288 1270 OFFCURVE",
"352 1260 OFFCURVE",
"352 1188 CURVE SMOOTH",
"352 1114 OFFCURVE",
"292 1072 OFFCURVE",
"238 1072 CURVE SMOOTH",
"180 1072 OFFCURVE",
"110 1108 OFFCURVE",
"110 1204 CURVE SMOOTH",
"110 1368 OFFCURVE",
"238 1520 OFFCURVE",
"522 1520 CURVE SMOOTH",
"724 1520 OFFCURVE",
"940 1422 OFFCURVE",
"940 1182 CURVE SMOOTH",
"940 1046 OFFCURVE",
"906 896 OFFCURVE",
"732 814 CURVE SMOOTH",
"657 779 OFFCURVE",
"646 792 OFFCURVE",
"646 770 CURVE SMOOTH",
"646 754 OFFCURVE",
"684 758 OFFCURVE",
"726 743 CURVE SMOOTH",
"924 673 OFFCURVE",
"980 534 OFFCURVE",
"980 380 CURVE SMOOTH",
"980 160 OFFCURVE",
"804 -20 OFFCURVE",
"502 -20 CURVE SMOOTH",
"198 -20 OFFCURVE",
"50 134 OFFCURVE",
"50 298 CURVE SMOOTH"
);
}
);
vertWidth = 2310;
width = 1060;
},
{
layerId = "7D0224F7-CECC-4B04-BE8C-3FB6AAD34500";
paths = (
{
closed = 1;
nodes = (
"50 484 OFFCURVE",
"140 590 OFFCURVE",
"288 590 CURVE SMOOTH",
"422 590 OFFCURVE",
"492 518 OFFCURVE",
"492 424 CURVE SMOOTH",
"492 272 OFFCURVE",
"357 262 OFFCURVE",
"357 216 CURVE SMOOTH",
"357 182 OFFCURVE",
"394 164 OFFCURVE",
"422 164 CURVE SMOOTH",
"500 164 OFFCURVE",
"528 212 OFFCURVE",
"528 420 CURVE SMOOTH",
"528 556 OFFCURVE",
"479 655 OFFCURVE",
"406 670 CURVE SMOOTH",
"368.662 677.672 OFFCURVE",
"354 663 OFFCURVE",
"354 707 CURVE SMOOTH",
"354 838 LINE SMOOTH",
"354 877 OFFCURVE",
"363.332 866.389 OFFCURVE",
"397 872 CURVE SMOOTH",
"481 886 OFFCURVE",
"508 995 OFFCURVE",
"508 1142 CURVE SMOOTH",
"508 1290 OFFCURVE",
"470 1346 OFFCURVE",
"402 1346 CURVE SMOOTH",
"374 1346 OFFCURVE",
"338 1330 OFFCURVE",
"338 1296 CURVE SMOOTH",
"338 1250 OFFCURVE",
"472 1260 OFFCURVE",
"472 1118 CURVE SMOOTH",
"472 1034 OFFCURVE",
"392 952 OFFCURVE",
"268 952 CURVE SMOOTH",
"150 952 OFFCURVE",
"30 1028 OFFCURVE",
"30 1174 CURVE SMOOTH",
"30 1368 OFFCURVE",
"188 1520 OFFCURVE",
"492 1520 CURVE SMOOTH",
"764 1520 OFFCURVE",
"910 1372 OFFCURVE",
"910 1142 CURVE SMOOTH",
"910 998 OFFCURVE",
"835 888 OFFCURVE",
"734 818 CURVE SMOOTH",
"696.05 791.698 OFFCURVE",
"660 789 OFFCURVE",
"660 775 CURVE SMOOTH",
"660 758 OFFCURVE",
"683.935 758.729 OFFCURVE",
"734 732 CURVE SMOOTH",
"852 669 OFFCURVE",
"930 561 OFFCURVE",
"930 400 CURVE SMOOTH",
"930 100 OFFCURVE",
"734 -20 OFFCURVE",
"432 -20 CURVE SMOOTH",
"148 -20 OFFCURVE",
"50 154 OFFCURVE",
"50 348 CURVE SMOOTH"
);
}
);
vertWidth = 2310;
width = 960;
},
{
layerId = "D7E1B457-BD34-420B-BB40-96ED806E1977";
paths = (
{
closed = 1;
nodes = (
"50 344 OFFCURVE",
"100 430 OFFCURVE",
"178 430 CURVE SMOOTH",
"252 430 OFFCURVE",
"292 388 OFFCURVE",
"292 314 CURVE SMOOTH",
"292 202 OFFCURVE",
"188 202 OFFCURVE",
"188 156 CURVE SMOOTH",
"188 102 OFFCURVE",
"254 63 OFFCURVE",
"322 63 CURVE SMOOTH",
"490 63 OFFCURVE",
"528 232 OFFCURVE",
"528 380 CURVE SMOOTH",
"528 564 OFFCURVE",
"472 705 OFFCURVE",
"324 717 CURVE SMOOTH",
"278 721 OFFCURVE",
"234 703 OFFCURVE",
"234 762 CURVE SMOOTH",
"234 780 LINE SMOOTH",
"234 839 OFFCURVE",
"279 823 OFFCURVE",
"324 826 CURVE SMOOTH",
"465 834 OFFCURVE",
"496 1026 OFFCURVE",
"496 1142 CURVE SMOOTH",
"496 1290 OFFCURVE",
"470 1436 OFFCURVE",
"332 1436 CURVE SMOOTH",
"234 1436 OFFCURVE",
"198 1390 OFFCURVE",
"198 1336 CURVE SMOOTH",
"198 1290 OFFCURVE",
"322 1300 OFFCURVE",
"322 1188 CURVE SMOOTH",
"322 1114 OFFCURVE",
"282 1072 OFFCURVE",
"208 1072 CURVE SMOOTH",
"130 1072 OFFCURVE",
"80 1158 OFFCURVE",
"80 1254 CURVE SMOOTH",
"80 1378 OFFCURVE",
"158 1520 OFFCURVE",
"382 1520 CURVE SMOOTH",
"604 1520 OFFCURVE",
"690 1382 OFFCURVE",
"690 1182 CURVE SMOOTH",
"690 896 OFFCURVE",
"601 881 OFFCURVE",
"532 834 CURVE SMOOTH",
"489 805 OFFCURVE",
"446 792 OFFCURVE",
"446 770 CURVE SMOOTH",
"446 754 OFFCURVE",
"483 746 OFFCURVE",
"526 733 CURVE SMOOTH",
"684 683 OFFCURVE",
"730 534 OFFCURVE",
"730 380 CURVE SMOOTH",
"730 160 OFFCURVE",
"604 -20 OFFCURVE",
"322 -20 CURVE SMOOTH",
"148 -20 OFFCURVE",
"50 94 OFFCURVE",
"50 248 CURVE SMOOTH"
);
}
);
vertWidth = 2310;
width = 780;
},
{
layerId = "C903388A-C428-42EA-B608-801ADA807095";
paths = (
{
closed = 1;
nodes = (
"30 484 OFFCURVE",
"120 590 OFFCURVE",
"268 590 CURVE SMOOTH",
"402 590 OFFCURVE",
"472 518 OFFCURVE",
"472 424 CURVE SMOOTH",
"472 292 OFFCURVE",
"347 292 OFFCURVE",
"347 246 CURVE SMOOTH",
"347 192 OFFCURVE",
"444 164 OFFCURVE",
"522 164 CURVE SMOOTH",
"670 164 OFFCURVE",
"788 212 OFFCURVE",
"788 420 CURVE SMOOTH",
"788 556 OFFCURVE",
"699 655 OFFCURVE",
"516 670 CURVE SMOOTH",
"478 673 OFFCURVE",
"464 663 OFFCURVE",
"464 707 CURVE SMOOTH",
"464 838 LINE SMOOTH",
"464 877 OFFCURVE",
"473 869 OFFCURVE",
"507 872 CURVE SMOOTH",
"691 886 OFFCURVE",
"748 995 OFFCURVE",
"748 1142 CURVE SMOOTH",
"748 1290 OFFCURVE",
"650 1346 OFFCURVE",
"522 1346 CURVE SMOOTH",
"464 1346 OFFCURVE",
"398 1330 OFFCURVE",
"398 1296 CURVE SMOOTH",
"398 1250 OFFCURVE",
"532 1260 OFFCURVE",
"532 1118 CURVE SMOOTH",
"532 1034 OFFCURVE",
"452 952 OFFCURVE",
"328 952 CURVE SMOOTH",
"210 952 OFFCURVE",
"90 1028 OFFCURVE",
"90 1174 CURVE SMOOTH",
"90 1368 OFFCURVE",
"288 1520 OFFCURVE",
"602 1520 CURVE SMOOTH",
"934 1520 OFFCURVE",
"1150 1372 OFFCURVE",
"1150 1142 CURVE SMOOTH",
"1150 998 OFFCURVE",
"1065 868 OFFCURVE",
"844 798 CURVE SMOOTH",
"800 784 OFFCURVE",
"770 789 OFFCURVE",
"770 775 CURVE SMOOTH",
"770 758 OFFCURVE",
"789 766 OFFCURVE",
"844 752 CURVE SMOOTH",
"1082 689 OFFCURVE",
"1190 561 OFFCURVE",
"1190 400 CURVE SMOOTH",
"1190 100 OFFCURVE",
"884 -20 OFFCURVE",
"582 -20 CURVE SMOOTH",
"228 -20 OFFCURVE",
"30 154 OFFCURVE",
"30 348 CURVE SMOOTH"
);
}
);
vertWidth = 2310;
width = 1235;
}
);
unicode = 0033;
},
{
glyphname = four;
layers = (
{
layerId = "5492647A-5722-481A-83CB-54A7AD0E630B";
paths = (
{
closed = 1;
nodes = (
"1030 26 LINE SMOOTH",
"1030 3 OFFCURVE",
"1023 0 OFFCURVE",
"999 0 CURVE SMOOTH",
"532 0 LINE SMOOTH",
"507 0 OFFCURVE",
"500 5 OFFCURVE",
"500 32 CURVE SMOOTH",
"500 77 LINE SMOOTH",
"500 103 OFFCURVE",
"505 110 OFFCURVE",
"530 110 CURVE SMOOTH",
"662 110 LINE SMOOTH",
"683 110 OFFCURVE",
"690 115 OFFCURVE",
"690 135 CURVE SMOOTH",
"690 422 LINE SMOOTH",
"690 453 OFFCURVE",
"687 460 OFFCURVE",
"657 460 CURVE SMOOTH",
"154 460 LINE SMOOTH",
"124 460 OFFCURVE",
"117 463 OFFCURVE",
"103 477 CURVE SMOOTH",
"77 503 LINE SMOOTH",
"58 522 OFFCURVE",
"63 528 OFFCURVE",
"74 555 CURVE SMOOTH",
"214 886 OFFCURVE",
"626 1050 OFFCURVE",
"728 1447 CURVE SMOOTH",
"736 1477 OFFCURVE",
"728 1500 OFFCURVE",
"769 1500 CURVE SMOOTH",
"878 1500 LINE SMOOTH",
"919 1500 OFFCURVE",
"927 1496 OFFCURVE",
"922 1459 CURVE SMOOTH",
"867 1047 OFFCURVE",
"392 874 OFFCURVE",
"234 618 CURVE SMOOTH",
"215 587 OFFCURVE",
"223 570 OFFCURVE",
"280 570 CURVE SMOOTH",
"672 570 LINE SMOOTH",
"693 570 OFFCURVE",
"690 575 OFFCURVE",
"690 595 CURVE SMOOTH",
"690 720 LINE SMOOTH",
"690 753 OFFCURVE",
"698 752 OFFCURVE",
"715 765 CURVE SMOOTH",
"762 801 OFFCURVE",
"790 848 OFFCURVE",
"820 938 CURVE SMOOTH",
"826 955 OFFCURVE",
"823 970 OFFCURVE",
"848 970 CURVE SMOOTH",
"854 970 LINE SMOOTH",
"880 970 OFFCURVE",
"880 963 OFFCURVE",
"880 939 CURVE SMOOTH",
"880 614 LINE SMOOTH",
"880 576 OFFCURVE",
"885 570 OFFCURVE",
"922 570 CURVE SMOOTH",
"1029 570 LINE SMOOTH",
"1056 570 OFFCURVE",
"1060 563 OFFCURVE",
"1060 535 CURVE SMOOTH",
"1060 490 LINE SMOOTH",
"1060 463 OFFCURVE",
"1052 460 OFFCURVE",
"1024 460 CURVE SMOOTH",
"915 460 LINE SMOOTH",
"884 460 OFFCURVE",
"880 450 OFFCURVE",
"880 421 CURVE SMOOTH",
"880 146 LINE SMOOTH",
"880 115 OFFCURVE",
"886 110 OFFCURVE",
"918 110 CURVE SMOOTH",
"995 110 LINE SMOOTH",
"1020 110 OFFCURVE",
"1030 109 OFFCURVE",
"1030 84 CURVE SMOOTH"
);
}
);
vertWidth = 2310;
width = 1080;
},
{
layerId = "7D0224F7-CECC-4B04-BE8C-3FB6AAD34500";
paths = (
{
closed = 1;
nodes = (
"936 36 LINE SMOOTH",
"936 3 OFFCURVE",
"928 0 OFFCURVE",
"894 0 CURVE SMOOTH",
"362 0 LINE SMOOTH",
"315 0 OFFCURVE",
"306 1 OFFCURVE",
"306 48 CURVE SMOOTH",
"306 165 LINE SMOOTH",
"306 201 OFFCURVE",
"313 210 OFFCURVE",
"350 210 CURVE SMOOTH",
"399 210 LINE SMOOTH",
"443 210 OFFCURVE",
"446 217 OFFCURVE",
"446 262 CURVE SMOOTH",
"446 356 LINE SMOOTH",
"446 410 OFFCURVE",
"446 410 OFFCURVE",
"392 410 CURVE SMOOTH",
"94 410 LINE SMOOTH",
"51 410 OFFCURVE",
"51 418 OFFCURVE",
"37 444 CURVE SMOOTH",
"6 502 LINE SMOOTH",
"-6 523 OFFCURVE",
"1 532 OFFCURVE",
"12 554 CURVE SMOOTH",
"169 868 OFFCURVE",
"381 1048 OFFCURVE",
"484 1444 CURVE SMOOTH",
"495 1486 OFFCURVE",
"496 1500 OFFCURVE",
"552 1500 CURVE SMOOTH",
"822 1500 LINE SMOOTH",
"875 1500 OFFCURVE",
"884 1495 OFFCURVE",
"876 1448 CURVE SMOOTH",
"812 1062 OFFCURVE",
"533 911 OFFCURVE",
"337 692 CURVE SMOOTH",
"310 662 OFFCURVE",
"285 620 OFFCURVE",
"363 620 CURVE SMOOTH",
"408 620 LINE SMOOTH",
"443 620 OFFCURVE",
"446 628 OFFCURVE",
"446 664 CURVE SMOOTH",
"446 710 LINE SMOOTH",
"446 757 OFFCURVE",
"457 754 OFFCURVE",
"488 771 CURVE SMOOTH",
"554 806 OFFCURVE",
"643 854 OFFCURVE",
"684 940 CURVE SMOOTH",
"693 960 OFFCURVE",
"699 970 OFFCURVE",
"730 970 CURVE SMOOTH",
"796 970 LINE SMOOTH",
"827 970 OFFCURVE",
"836 969 OFFCURVE",
"836 938 CURVE SMOOTH",
"836 678 LINE SMOOTH",
"836 645 OFFCURVE",
"845 620 OFFCURVE",
"882 620 CURVE SMOOTH",
"930 620 LINE SMOOTH",
"962 620 OFFCURVE",
"966 612 OFFCURVE",
"966 582 CURVE SMOOTH",
"966 466 LINE SMOOTH",
"966 420 OFFCURVE",
"966 410 OFFCURVE",
"920 410 CURVE SMOOTH",
"890 410 LINE SMOOTH",
"849 410 OFFCURVE",
"836 406 OFFCURVE",
"836 362 CURVE SMOOTH",
"836 262 LINE SMOOTH",
"836 217 OFFCURVE",
"841 210 OFFCURVE",
"888 210 CURVE SMOOTH",
"892 210 LINE SMOOTH",
"931 210 OFFCURVE",
"936 204 OFFCURVE",
"936 164 CURVE SMOOTH"
);
}
);
vertWidth = 2310;
width = 984;
},
{
layerId = "D7E1B457-BD34-420B-BB40-96ED806E1977";
paths = (
{
closed = 1;
nodes = (
"800 26 LINE SMOOTH",
"800 3 OFFCURVE",
"793 0 OFFCURVE",
"769 0 CURVE SMOOTH",
"432 0 LINE SMOOTH",
"407 0 OFFCURVE",
"400 5 OFFCURVE",
"400 32 CURVE SMOOTH",
"400 77 LINE SMOOTH",
"400 103 OFFCURVE",
"405 110 OFFCURVE",
"430 110 CURVE SMOOTH",
"462 110 LINE SMOOTH",
"483 110 OFFCURVE",
"490 115 OFFCURVE",
"490 135 CURVE SMOOTH",
"490 422 LINE SMOOTH",
"490 453 OFFCURVE",
"487 460 OFFCURVE",
"457 460 CURVE SMOOTH",
"154 460 LINE SMOOTH",
"124 460 OFFCURVE",
"117 463 OFFCURVE",
"103 477 CURVE SMOOTH",
"77 503 LINE SMOOTH",
"58 522 OFFCURVE",
"63 528 OFFCURVE",
"74 555 CURVE SMOOTH",
"214 886 OFFCURVE",
"426 1050 OFFCURVE",
"528 1447 CURVE SMOOTH",
"536 1477 OFFCURVE",
"528 1500 OFFCURVE",
"569 1500 CURVE SMOOTH",
"678 1500 LINE SMOOTH",
"719 1500 OFFCURVE",
"727 1496 OFFCURVE",
"722 1459 CURVE SMOOTH",
"667 1047 OFFCURVE",
"392 874 OFFCURVE",
"234 618 CURVE SMOOTH",
"215 587 OFFCURVE",
"223 570 OFFCURVE",
"280 570 CURVE SMOOTH",
"472 570 LINE SMOOTH",
"493 570 OFFCURVE",
"490 575 OFFCURVE",
"490 595 CURVE SMOOTH",
"490 720 LINE SMOOTH",
"490 753 OFFCURVE",
"498 752 OFFCURVE",
"515 765 CURVE SMOOTH",
"562 801 OFFCURVE",
"590 848 OFFCURVE",
"620 938 CURVE SMOOTH",
"626 955 OFFCURVE",
"623 970 OFFCURVE",
"648 970 CURVE SMOOTH",
"654 970 LINE SMOOTH",
"680 970 OFFCURVE",
"680 963 OFFCURVE",
"680 939 CURVE SMOOTH",
"680 614 LINE SMOOTH",
"680 576 OFFCURVE",
"685 570 OFFCURVE",
"722 570 CURVE SMOOTH",
"799 570 LINE SMOOTH",
"826 570 OFFCURVE",
"830 563 OFFCURVE",
"830 535 CURVE SMOOTH",
"830 490 LINE SMOOTH",
"830 463 OFFCURVE",
"822 460 OFFCURVE",
"794 460 CURVE SMOOTH",
"715 460 LINE SMOOTH",
"684 460 OFFCURVE",
"680 450 OFFCURVE",
"680 421 CURVE SMOOTH",
"680 146 LINE SMOOTH",
"680 115 OFFCURVE",
"686 110 OFFCURVE",
"718 110 CURVE SMOOTH",
"765 110 LINE SMOOTH",
"790 110 OFFCURVE",
"800 109 OFFCURVE",
"800 84 CURVE SMOOTH"
);
}
);
vertWidth = 2310;
width = 870;
},
{
layerId = "C903388A-C428-42EA-B608-801ADA807095";
paths = (
{
closed = 1;
nodes = (
"1260 36 LINE SMOOTH",
"1260 3 OFFCURVE",
"1252 0 OFFCURVE",
"1218 0 CURVE SMOOTH",
"486 0 LINE SMOOTH",
"439 0 OFFCURVE",
"430 1 OFFCURVE",
"430 48 CURVE SMOOTH",
"430 165 LINE SMOOTH",
"430 201 OFFCURVE",
"437 210 OFFCURVE",
"474 210 CURVE SMOOTH",
"623 210 LINE SMOOTH",
"667 210 OFFCURVE",
"670 217 OFFCURVE",
"670 262 CURVE SMOOTH",
"670 356 LINE SMOOTH",
"670 410 OFFCURVE",
"670 410 OFFCURVE",
"616 410 CURVE SMOOTH",
"118 410 LINE SMOOTH",
"75 410 OFFCURVE",
"75 418 OFFCURVE",
"61 444 CURVE SMOOTH",
"30 502 LINE SMOOTH",
"18 523 OFFCURVE",
"25 532 OFFCURVE",
"36 554 CURVE SMOOTH",
"193 868 OFFCURVE",
"605 1048 OFFCURVE",
"708 1444 CURVE SMOOTH",
"719 1486 OFFCURVE",
"720 1500 OFFCURVE",
"776 1500 CURVE SMOOTH",
"1046 1500 LINE SMOOTH",
"1099 1500 OFFCURVE",
"1108 1495 OFFCURVE",
"1100 1448 CURVE SMOOTH",
"1036 1062 OFFCURVE",
"557 911 OFFCURVE",
"361 692 CURVE SMOOTH",
"334 662 OFFCURVE",
"309 620 OFFCURVE",
"387 620 CURVE SMOOTH",
"632 620 LINE SMOOTH",
"667 620 OFFCURVE",
"670 628 OFFCURVE",
"670 664 CURVE SMOOTH",
"670 710 LINE SMOOTH",
"670 757 OFFCURVE",
"681 754 OFFCURVE",
"712 771 CURVE SMOOTH",
"778 806 OFFCURVE",
"867 854 OFFCURVE",
"908 940 CURVE SMOOTH",
"917 960 OFFCURVE",
"923 970 OFFCURVE",
"954 970 CURVE SMOOTH",
"1020 970 LINE SMOOTH",
"1051 970 OFFCURVE",
"1060 969 OFFCURVE",
"1060 938 CURVE SMOOTH",
"1060 678 LINE SMOOTH",
"1060 645 OFFCURVE",
"1069 620 OFFCURVE",
"1106 620 CURVE SMOOTH",
"1254 620 LINE SMOOTH",
"1286 620 OFFCURVE",
"1290 612 OFFCURVE",
"1290 582 CURVE SMOOTH",
"1290 466 LINE SMOOTH",
"1290 420 OFFCURVE",
"1290 410 OFFCURVE",
"1244 410 CURVE SMOOTH",
"1114 410 LINE SMOOTH",
"1073 410 OFFCURVE",
"1060 406 OFFCURVE",
"1060 362 CURVE SMOOTH",
"1060 262 LINE SMOOTH",
"1060 217 OFFCURVE",
"1065 210 OFFCURVE",
"1112 210 CURVE SMOOTH",
"1216 210 LINE SMOOTH",
"1255 210 OFFCURVE",
"1260 204 OFFCURVE",
"1260 164 CURVE SMOOTH"
);
}
);
vertWidth = 2310;
width = 1310;
}
);
unicode = 0034;
},
{
glyphname = five;
layers = (
{
layerId = "5492647A-5722-481A-83CB-54A7AD0E630B";
paths = (
{
closed = 1;
nodes = (
"60 374 OFFCURVE",
"130 410 OFFCURVE",
"188 410 CURVE SMOOTH",
"242 410 OFFCURVE",
"302 368 OFFCURVE",
"302 294 CURVE SMOOTH",
"302 222 OFFCURVE",
"238 212 OFFCURVE",
"238 166 CURVE SMOOTH",
"238 112 OFFCURVE",
"324 64 OFFCURVE",
"432 64 CURVE SMOOTH",
"630 64 OFFCURVE",
"768 252 OFFCURVE",
"768 460 CURVE SMOOTH",
"768 728 OFFCURVE",
"650 902 OFFCURVE",
"472 902 CURVE SMOOTH",
"359 902 OFFCURVE",
"296 879 OFFCURVE",
"234 803 CURVE SMOOTH",
"218 784 OFFCURVE",
"211 774 OFFCURVE",
"173 774 CURVE SMOOTH",
"131 774 LINE SMOOTH",
"93 774 OFFCURVE",
"96 788 OFFCURVE",
"100 818 CURVE SMOOTH",
"183 1462 LINE SMOOTH",
"187 1493 OFFCURVE",
"194 1500 OFFCURVE",
"228 1500 CURVE SMOOTH",
"474 1500 LINE SMOOTH",
"696 1500 OFFCURVE",
"738 1469 OFFCURVE",
"798 1536 CURVE SMOOTH",
"808 1547 OFFCURVE",
"812 1564 OFFCURVE",
"837 1564 CURVE SMOOTH",
"894 1564 LINE SMOOTH",
"908 1564 OFFCURVE",
"911 1562 OFFCURVE",
"908 1550 CURVE SMOOTH",
"896 1500 LINE SMOOTH",
"860 1336 OFFCURVE",
"824 1320 OFFCURVE",
"350 1320 CURVE SMOOTH",
"306 1320 LINE SMOOTH",
"276 1320 OFFCURVE",
"265 1316 OFFCURVE",
"261 1288 CURVE SMOOTH",
"219 966 LINE SMOOTH",
"213 918 OFFCURVE",
"203 894 OFFCURVE",
"211 890 CURVE SMOOTH",
"224 884 OFFCURVE",
"230 906 OFFCURVE",
"266 934 CURVE SMOOTH",
"317 974 OFFCURVE",
"388 1000 OFFCURVE",
"496 1000 CURVE SMOOTH",
"818 1000 OFFCURVE",
"970 780 OFFCURVE",
"970 500 CURVE SMOOTH",
"970 200 OFFCURVE",
"734 -20 OFFCURVE",
"452 -20 CURVE SMOOTH",
"208 -20 OFFCURVE",
"60 114 OFFCURVE",
"60 278 CURVE SMOOTH"
);
}
);
vertWidth = 2310;
width = 1030;
},
{
layerId = "7D0224F7-CECC-4B04-BE8C-3FB6AAD34500";
paths = (
{
closed = 1;
nodes = (
"30 464 OFFCURVE",
"130 550 OFFCURVE",
"258 550 CURVE SMOOTH",
"382 550 OFFCURVE",
"462 468 OFFCURVE",
"462 364 CURVE SMOOTH",
"462 232 OFFCURVE",
"378 242 OFFCURVE",
"378 196 CURVE SMOOTH",
"378 162 OFFCURVE",
"404 144 OFFCURVE",
"422 144 CURVE SMOOTH",
"470 144 OFFCURVE",
"498 302 OFFCURVE",
"498 510 CURVE SMOOTH",
"498 728 OFFCURVE",
"480 782 OFFCURVE",
"442 782 CURVE SMOOTH",
"413 782 OFFCURVE",
"391 763 OFFCURVE",
"305 655 CURVE SMOOTH",
"289 634 OFFCURVE",
"278 624 OFFCURVE",
"239 624 CURVE SMOOTH",
"175 624 LINE SMOOTH",
"121 624 OFFCURVE",
"126 642 OFFCURVE",
"131 686 CURVE SMOOTH",
"183 1460 LINE SMOOTH",
"187 1498 OFFCURVE",
"197 1500 OFFCURVE",
"239 1500 CURVE SMOOTH",
"294 1500 LINE SMOOTH",
"495 1500 OFFCURVE",
"597 1468 OFFCURVE",
"663 1543 CURVE SMOOTH",
"676 1558 OFFCURVE",
"686 1564 OFFCURVE",
"717 1564 CURVE SMOOTH",
"822 1564 LINE SMOOTH",
"848 1564 OFFCURVE",
"859 1557 OFFCURVE",
"854 1534 CURVE SMOOTH",
"851 1500 LINE SMOOTH",
"836.363 1334.115 OFFCURVE",
"844 1120 OFFCURVE",
"510 1120 CURVE SMOOTH",
"355 1120 LINE SMOOTH",
"317 1120 OFFCURVE",
"305.803 1110.514 OFFCURVE",
"308 1078 CURVE SMOOTH",
"303 930 LINE SMOOTH",
"305.528 892.576 OFFCURVE",
"296 850 OFFCURVE",
"304 846 CURVE SMOOTH",
"319 837 OFFCURVE",
"336.128 863.184 OFFCURVE",
"359 896 CURVE SMOOTH",
"405 962 OFFCURVE",
"475 1000 OFFCURVE",
"586 1000 CURVE SMOOTH",
"878 1000 OFFCURVE",
"900 780 OFFCURVE",
"900 500 CURVE SMOOTH",
"900 160 OFFCURVE",
"804 -20 OFFCURVE",
"462 -20 CURVE SMOOTH",
"158 -20 OFFCURVE",
"30 114 OFFCURVE",
"30 318 CURVE SMOOTH"
);
}
);
vertWidth = 2310;
width = 930;
},
{
layerId = "D7E1B457-BD34-420B-BB40-96ED806E1977";
paths = (
{
closed = 1;
nodes = (
"60 364 OFFCURVE",
"130 410 OFFCURVE",
"188 410 CURVE SMOOTH",
"242 410 OFFCURVE",
"302 368 OFFCURVE",
"302 294 CURVE SMOOTH",
"302 222 OFFCURVE",
"208 182 OFFCURVE",
"208 136 CURVE SMOOTH",
"208 102 OFFCURVE",
"254 64 OFFCURVE",
"332 64 CURVE SMOOTH",
"510 64 OFFCURVE",
"568 252 OFFCURVE",
"568 460 CURVE SMOOTH",
"568 728 OFFCURVE",
"560 902 OFFCURVE",
"422 902 CURVE SMOOTH",
"339 902 OFFCURVE",
"286 869 OFFCURVE",
"234 803 CURVE SMOOTH",
"219 783 OFFCURVE",
"211 774 OFFCURVE",
"173 774 CURVE SMOOTH",
"131 774 LINE SMOOTH",
"93 774 OFFCURVE",
"96 788 OFFCURVE",
"100 818 CURVE SMOOTH",
"183 1462 LINE SMOOTH",
"187 1493 OFFCURVE",
"194 1500 OFFCURVE",
"228 1500 CURVE SMOOTH",
"374 1500 LINE SMOOTH",
"446 1500 OFFCURVE",
"538 1469 OFFCURVE",
"598 1536 CURVE SMOOTH",
"608 1547 OFFCURVE",
"612 1564 OFFCURVE",
"637 1564 CURVE SMOOTH",
"694 1564 LINE SMOOTH",
"708 1564 OFFCURVE",
"711 1562 OFFCURVE",
"708 1550 CURVE SMOOTH",
"696 1500 LINE SMOOTH",
"660 1336 OFFCURVE",
"624 1320 OFFCURVE",
"350 1320 CURVE SMOOTH",
"306 1320 LINE SMOOTH",
"276 1320 OFFCURVE",
"265 1316 OFFCURVE",
"261 1288 CURVE SMOOTH",
"219 966 LINE SMOOTH",
"213 918 OFFCURVE",
"203 894 OFFCURVE",
"211 890 CURVE SMOOTH",
"224 884 OFFCURVE",
"233 902 OFFCURVE",
"266 934 CURVE SMOOTH",
"297 964 OFFCURVE",
"368 1000 OFFCURVE",
"446 1000 CURVE SMOOTH",
"718 1000 OFFCURVE",
"770 780 OFFCURVE",
"770 500 CURVE SMOOTH",
"770 200 OFFCURVE",
"634 -20 OFFCURVE",
"352 -20 CURVE SMOOTH",
"128 -20 OFFCURVE",
"60 124 OFFCURVE",
"60 258 CURVE SMOOTH"
);
}
);
vertWidth = 2310;
width = 840;
},
{
layerId = "C903388A-C428-42EA-B608-801ADA807095";
paths = (
{
closed = 1;
nodes = (
"65 464 OFFCURVE",
"165 550 OFFCURVE",
"293 550 CURVE SMOOTH",
"417 550 OFFCURVE",
"497 468 OFFCURVE",
"497 384 CURVE SMOOTH",
"497 292 OFFCURVE",
"423 252 OFFCURVE",
"423 206 CURVE SMOOTH",
"423 162 OFFCURVE",
"479 144 OFFCURVE",
"557 144 CURVE SMOOTH",
"715 144 OFFCURVE",
"843 302 OFFCURVE",
"843 510 CURVE SMOOTH",
"843 728 OFFCURVE",
"725 812 OFFCURVE",
"607 812 CURVE SMOOTH",
"528 812 OFFCURVE",
"426 763 OFFCURVE",
"340 655 CURVE SMOOTH",
"324 634 OFFCURVE",
"313 624 OFFCURVE",
"274 624 CURVE SMOOTH",
"210 624 LINE SMOOTH",
"156 624 OFFCURVE",
"161 642 OFFCURVE",
"166 686 CURVE SMOOTH",
"258 1460 LINE SMOOTH",
"262 1498 OFFCURVE",
"272 1500 OFFCURVE",
"314 1500 CURVE SMOOTH",
"679 1500 LINE SMOOTH",
"880 1500 OFFCURVE",
"942 1468 OFFCURVE",
"1008 1543 CURVE SMOOTH",
"1021 1558 OFFCURVE",
"1031 1564 OFFCURVE",
"1062 1564 CURVE SMOOTH",
"1167 1564 LINE SMOOTH",
"1193 1564 OFFCURVE",
"1204 1557 OFFCURVE",
"1199 1534 CURVE SMOOTH",
"1191 1500 LINE SMOOTH",
"1155 1336 OFFCURVE",
"1119 1120 OFFCURVE",
"645 1120 CURVE SMOOTH",
"420 1120 LINE SMOOTH",
"382 1120 OFFCURVE",
"378 1111 OFFCURVE",
"373 1078 CURVE SMOOTH",
"353 930 LINE SMOOTH",
"347 892 OFFCURVE",
"331 850 OFFCURVE",
"339 846 CURVE SMOOTH",
"354 837 OFFCURVE",
"362 872 OFFCURVE",
"394 896 CURVE SMOOTH",
"470 952 OFFCURVE",
"580 1000 OFFCURVE",
"721 1000 CURVE SMOOTH",
"1063 1000 OFFCURVE",
"1245 780 OFFCURVE",
"1245 500 CURVE SMOOTH",
"1245 160 OFFCURVE",
"979 -20 OFFCURVE",
"597 -20 CURVE SMOOTH",
"293 -20 OFFCURVE",
"65 114 OFFCURVE",
"65 318 CURVE SMOOTH"
);
}
);
vertWidth = 2310;
width = 1300;
}
);
unicode = 0035;
},
{
glyphname = six;
layers = (
{
layerId = "5492647A-5722-481A-83CB-54A7AD0E630B";
paths = (
{
closed = 1;
nodes = (
"746 1408 OFFCURVE",
"716 1436 OFFCURVE",
"638 1436 CURVE SMOOTH",
"406 1436 OFFCURVE",
"319 1203 OFFCURVE",
"303 860 CURVE SMOOTH",
"301 827 OFFCURVE",
"297 814 OFFCURVE",
"304 810 CURVE SMOOTH",
"312 806 OFFCURVE",
"316 820 OFFCURVE",
"333 839 CURVE SMOOTH",
"400 913 OFFCURVE",
"500 960 OFFCURVE",
"632 960 CURVE SMOOTH",
"854 960 OFFCURVE",
"1040 800 OFFCURVE",
"1040 470 CURVE SMOOTH",
"1040 150 OFFCURVE",
"860 -20 OFFCURVE",
"578 -20 CURVE SMOOTH",
"256 -20 OFFCURVE",
"100 170 OFFCURVE",
"100 740 CURVE SMOOTH",
"100 1220 OFFCURVE",
"306 1520 OFFCURVE",
"628 1520 CURVE SMOOTH",
"792 1520 OFFCURVE",
"940 1446 OFFCURVE",
"940 1282 CURVE SMOOTH",
"940 1186 OFFCURVE",
"870 1150 OFFCURVE",
"812 1150 CURVE SMOOTH",
"758 1150 OFFCURVE",
"698 1192 OFFCURVE",
"698 1266 CURVE SMOOTH",
"698 1338 OFFCURVE",
"746 1356 OFFCURVE",
"746 1382 CURVE SMOOTH"
);
},
{
closed = 1;
nodes = (
"840 698 OFFCURVE",
"746 862 OFFCURVE",
"588 862 CURVE SMOOTH",
"422 862 OFFCURVE",
"300 720 OFFCURVE",
"300 560 CURVE SMOOTH",
"300 262 OFFCURVE",
"400 70 OFFCURVE",
"598 70 CURVE SMOOTH",
"776 70 OFFCURVE",
"840 252 OFFCURVE",
"840 470 CURVE SMOOTH"
);
}
);
vertWidth = 2310;
width = 1100;
},
{
layerId = "7D0224F7-CECC-4B04-BE8C-3FB6AAD34500";
paths = (
{
closed = 1;
nodes = (
"586 1358 OFFCURVE",
"576 1366 OFFCURVE",
"558 1366 CURVE SMOOTH",
"460 1366 OFFCURVE",
"454 1197 OFFCURVE",
"434 864 CURVE SMOOTH",
"432 829 OFFCURVE",
"427 815 OFFCURVE",
"434 811 CURVE SMOOTH",
"443 806 OFFCURVE",
"453.004 817.422 OFFCURVE",
"467 842 CURVE SMOOTH",
"508 914 OFFCURVE",
"572 960 OFFCURVE",
"662 960 CURVE SMOOTH",
"884 960 OFFCURVE",
"980 810 OFFCURVE",
"980 500 CURVE SMOOTH",
"980 130 OFFCURVE",
"810 -20 OFFCURVE",
"508 -20 CURVE SMOOTH",
"186 -20 OFFCURVE",
"30 170 OFFCURVE",
"30 740 CURVE SMOOTH",
"30 1220 OFFCURVE",
"186 1520 OFFCURVE",
"558 1520 CURVE SMOOTH",
"832 1520 OFFCURVE",
"930 1376 OFFCURVE",
"930 1222 CURVE SMOOTH",
"930 1086 OFFCURVE",
"851 990 OFFCURVE",
"712 990 CURVE SMOOTH",
"578 990 OFFCURVE",
"488 1062 OFFCURVE",
"488 1176 CURVE SMOOTH",
"488 1288 OFFCURVE",
"586 1316 OFFCURVE",
"586 1342 CURVE SMOOTH"
);
},
{
closed = 1;
nodes = (
"580 658 OFFCURVE",
"546 722 OFFCURVE",
"508 722 CURVE SMOOTH",
"472 722 OFFCURVE",
"430 620 OFFCURVE",
"430 460 CURVE SMOOTH",
"430 302 OFFCURVE",
"450 210 OFFCURVE",
"508 210 CURVE SMOOTH",
"556 210 OFFCURVE",
"580 292 OFFCURVE",
"580 470 CURVE SMOOTH"
);
}
);
vertWidth = 2310;
width = 1010;
},
{
layerId = "D7E1B457-BD34-420B-BB40-96ED806E1977";
paths = (
{
closed = 1;
nodes = (
"556 1418 OFFCURVE",
"516 1436 OFFCURVE",
"468 1436 CURVE SMOOTH",
"306 1436 OFFCURVE",
"279 1193 OFFCURVE",
"263 900 CURVE SMOOTH",
"261 867 OFFCURVE",
"257 854 OFFCURVE",
"264 850 CURVE SMOOTH",
"272 846 OFFCURVE",
"277 859 OFFCURVE",
"293 879 CURVE SMOOTH",
"330 923 OFFCURVE",
"390 960 OFFCURVE",
"492 960 CURVE SMOOTH",
"694 960 OFFCURVE",
"800 800 OFFCURVE",
"800 470 CURVE SMOOTH",
"800 160 OFFCURVE",
"650 -20 OFFCURVE",
"438 -20 CURVE SMOOTH",
"186 -20 OFFCURVE",
"60 180 OFFCURVE",
"60 740 CURVE SMOOTH",
"60 1220 OFFCURVE",
"186 1520 OFFCURVE",
"488 1520 CURVE SMOOTH",
"622 1520 OFFCURVE",
"720 1426 OFFCURVE",
"720 1312 CURVE SMOOTH",
"720 1196 OFFCURVE",
"650 1150 OFFCURVE",
"592 1150 CURVE SMOOTH",
"538 1150 OFFCURVE",
"478 1192 OFFCURVE",
"478 1266 CURVE SMOOTH",
"478 1338 OFFCURVE",
"556 1366 OFFCURVE",
"556 1392 CURVE SMOOTH"
);
},
{
closed = 1;
nodes = (
"600 698 OFFCURVE",
"536 862 OFFCURVE",
"428 862 CURVE SMOOTH",
"302 862 OFFCURVE",
"260 720 OFFCURVE",
"260 560 CURVE SMOOTH",
"260 262 OFFCURVE",
"280 70 OFFCURVE",
"438 70 CURVE SMOOTH",
"566 70 OFFCURVE",
"600 252 OFFCURVE",
"600 470 CURVE SMOOTH"
);
}
);
vertWidth = 2310;
width = 840;
},
{
layerId = "C903388A-C428-42EA-B608-801ADA807095";
paths = (
{
closed = 1;
nodes = (
"826 1338 OFFCURVE",
"806 1366 OFFCURVE",
"738 1366 CURVE SMOOTH",
"620 1366 OFFCURVE",
"504 1197 OFFCURVE",
"484 864 CURVE SMOOTH",
"482 829 OFFCURVE",
"477 815 OFFCURVE",
"484 811 CURVE SMOOTH",
"493 806 OFFCURVE",
"497 822 OFFCURVE",
"517 842 CURVE SMOOTH",
"588 914 OFFCURVE",
"702 960 OFFCURVE",
"832 960 CURVE SMOOTH",
"1054 960 OFFCURVE",
"1270 810 OFFCURVE",
"1270 500 CURVE SMOOTH",
"1270 130 OFFCURVE",
"980 -20 OFFCURVE",
"678 -20 CURVE SMOOTH",
"356 -20 OFFCURVE",
"80 170 OFFCURVE",
"80 740 CURVE SMOOTH",
"80 1220 OFFCURVE",
"356 1520 OFFCURVE",
"728 1520 CURVE SMOOTH",
"1032 1520 OFFCURVE",
"1220 1386 OFFCURVE",
"1220 1222 CURVE SMOOTH",
"1220 1086 OFFCURVE",
"1141 990 OFFCURVE",
"1002 990 CURVE SMOOTH",
"868 990 OFFCURVE",
"778 1062 OFFCURVE",
"778 1176 CURVE SMOOTH",
"778 1248 OFFCURVE",
"826 1286 OFFCURVE",
"826 1312 CURVE SMOOTH"
);
},
{
closed = 1;
nodes = (
"870 658 OFFCURVE",
"786 722 OFFCURVE",
"678 722 CURVE SMOOTH",
"572 722 OFFCURVE",
"480 620 OFFCURVE",
"480 460 CURVE SMOOTH",
"480 302 OFFCURVE",
"550 210 OFFCURVE",
"678 210 CURVE SMOOTH",
"796 210 OFFCURVE",
"870 292 OFFCURVE",
"870 470 CURVE SMOOTH"
);
}
);
vertWidth = 2310;
width = 1330;
}
);
unicode = 0036;
},
{
glyphname = seven;
layers = (
{
layerId = "5492647A-5722-481A-83CB-54A7AD0E630B";
paths = (
{
closed = 1;
nodes = (
"84 1439 OFFCURVE",
"185 1520 OFFCURVE",
"360 1520 CURVE SMOOTH",
"554 1520 OFFCURVE",
"624 1400 OFFCURVE",
"790 1400 CURVE SMOOTH",
"864 1400 OFFCURVE",
"896 1433 OFFCURVE",
"916 1483 CURVE SMOOTH",
"921 1496 OFFCURVE",
"922 1500 OFFCURVE",
"941 1500 CURVE SMOOTH",
"1010 1500 LINE SMOOTH",
"1033 1500 OFFCURVE",
"1029 1494 OFFCURVE",
"1026 1473 CURVE SMOOTH",
"1002 1323 OFFCURVE",
"805 997 OFFCURVE",
"676 736 CURVE SMOOTH",
"584 548 OFFCURVE",
"568 472 OFFCURVE",
"568 384 CURVE SMOOTH",
"568 238 OFFCURVE",
"634 208 OFFCURVE",
"634 116 CURVE SMOOTH",
"634 42 OFFCURVE",
"594 -20 OFFCURVE",
"506 -20 CURVE SMOOTH",
"428 -20 OFFCURVE",
"374 54 OFFCURVE",
"374 192 CURVE SMOOTH",
"374 370 OFFCURVE",
"426 554 OFFCURVE",
"558 762 CURVE SMOOTH",
"649 906 OFFCURVE",
"760 1097 OFFCURVE",
"833 1254 CURVE SMOOTH",
"843 1275 OFFCURVE",
"855 1291 OFFCURVE",
"850 1296 CURVE SMOOTH",
"845 1301 OFFCURVE",
"833 1283 OFFCURVE",
"812 1277 CURVE SMOOTH",
"786 1269 OFFCURVE",
"756 1266 OFFCURVE",
"720 1266 CURVE SMOOTH",
"520 1266 OFFCURVE",
"500 1334 OFFCURVE",
"348 1334 CURVE SMOOTH",
"227 1334 OFFCURVE",
"178 1281 OFFCURVE",
"174 1166 CURVE SMOOTH",
"174 1151 OFFCURVE",
"173 1146 OFFCURVE",
"158 1146 CURVE SMOOTH",
"102 1146 LINE SMOOTH",
"87 1146 OFFCURVE",
"80 1147 OFFCURVE",
"80 1162 CURVE SMOOTH"
);
}
);
vertWidth = 2310;
width = 1048;
},
{
layerId = "7D0224F7-CECC-4B04-BE8C-3FB6AAD34500";
paths = (
{
closed = 1;
nodes = (
"10.463 1347 OFFCURVE",
"119.463 1520 OFFCURVE",
"320.463 1520 CURVE SMOOTH",
"514.463 1520 OFFCURVE",
"534.463 1400 OFFCURVE",
"700.463 1400 CURVE SMOOTH",
"768.463 1400 OFFCURVE",
"801.463 1427 OFFCURVE",
"821.463 1471 CURVE SMOOTH",
"829.463 1489 OFFCURVE",
"832.463 1500 OFFCURVE",
"860.463 1500 CURVE SMOOTH",
"989.463 1500 LINE SMOOTH",
"1024.463 1500 OFFCURVE",
"1030.463 1493 OFFCURVE",
"1025.463 1460 CURVE SMOOTH",
"1002.463 1305 OFFCURVE",
"841.463 993 OFFCURVE",
"696.463 756 CURVE SMOOTH",
"592.696 586.396 OFFCURVE",
"548.463 532 OFFCURVE",
"548.463 464 CURVE SMOOTH",
"548.463 368 OFFCURVE",
"724.463 368 OFFCURVE",
"724.463 216 CURVE SMOOTH",
"724.463 102 OFFCURVE",
"654.463 -20 OFFCURVE",
"496.463 -20 CURVE SMOOTH",
"348.463 -20 OFFCURVE",
"234.463 74 OFFCURVE",
"234.463 252 CURVE SMOOTH",
"234.463 430 OFFCURVE",
"331.146 540.104 OFFCURVE",
"458.463 762 CURVE SMOOTH",
"528.463 884 OFFCURVE",
"568.463 965 OFFCURVE",
"664.463 1100 CURVE SMOOTH",
"693.463 1141 OFFCURVE",
"718.463 1176 OFFCURVE",
"708.463 1186 CURVE SMOOTH",
"693.463 1201 OFFCURVE",
"663.061 1165.315 OFFCURVE",
"640.463 1136 CURVE SMOOTH",
"603.463 1088 OFFCURVE",
"564.463 1076 OFFCURVE",
"510.463 1076 CURVE SMOOTH",
"420.463 1076 OFFCURVE",
"420.463 1134 OFFCURVE",
"338.463 1134 CURVE SMOOTH",
"271.463 1134 OFFCURVE",
"186.463 1082 OFFCURVE",
"176.463 980 CURVE SMOOTH",
"174.463 957 OFFCURVE",
"181.463 946 OFFCURVE",
"153.463 946 CURVE SMOOTH",
"37.463 946 LINE SMOOTH",
"7.463 946 OFFCURVE",
"-0.537 954 OFFCURVE",
"0.463 982 CURVE SMOOTH"
);
}
);
vertWidth = 2310;
width = 1027;
},
{
layerId = "D7E1B457-BD34-420B-BB40-96ED806E1977";
paths = (
{
closed = 1;
nodes = (
"54 1439 OFFCURVE",
"145 1520 OFFCURVE",
"300 1520 CURVE SMOOTH",
"414 1520 OFFCURVE",
"464 1400 OFFCURVE",
"560 1400 CURVE SMOOTH",
"634 1400 OFFCURVE",
"666 1433 OFFCURVE",
"686 1483 CURVE SMOOTH",
"691 1496 OFFCURVE",
"692 1500 OFFCURVE",
"711 1500 CURVE SMOOTH",
"780 1500 LINE SMOOTH",
"803 1500 OFFCURVE",
"799 1494 OFFCURVE",
"796 1473 CURVE SMOOTH",
"772 1323 OFFCURVE",
"650 1008 OFFCURVE",
"546 736 CURVE SMOOTH",
"474 548 OFFCURVE",
"438 472 OFFCURVE",
"438 384 CURVE SMOOTH",
"438 238 OFFCURVE",
"504 208 OFFCURVE",
"504 116 CURVE SMOOTH",
"504 42 OFFCURVE",
"464 -20 OFFCURVE",
"376 -20 CURVE SMOOTH",
"298 -20 OFFCURVE",
"244 54 OFFCURVE",
"244 192 CURVE SMOOTH",
"244 370 OFFCURVE",
"336 554 OFFCURVE",
"428 762 CURVE SMOOTH",
"497 918 OFFCURVE",
"558 1097 OFFCURVE",
"611 1254 CURVE SMOOTH",
"618 1276 OFFCURVE",
"625 1291 OFFCURVE",
"620 1296 CURVE SMOOTH",
"615 1301 OFFCURVE",
"603 1283 OFFCURVE",
"582 1277 CURVE SMOOTH",
"556 1269 OFFCURVE",
"526 1266 OFFCURVE",
"490 1266 CURVE SMOOTH",
"390 1266 OFFCURVE",
"350 1334 OFFCURVE",
"268 1334 CURVE SMOOTH",
"167 1334 OFFCURVE",
"148 1281 OFFCURVE",
"144 1166 CURVE SMOOTH",
"144 1151 OFFCURVE",
"143 1146 OFFCURVE",
"128 1146 CURVE SMOOTH",
"72 1146 LINE SMOOTH",
"57 1146 OFFCURVE",
"50 1147 OFFCURVE",
"50 1162 CURVE SMOOTH"
);
}
);
vertWidth = 2310;
width = 818;
},
{
layerId = "C903388A-C428-42EA-B608-801ADA807095";
paths = (
{
closed = 1;
nodes = (
"75 1347 OFFCURVE",
"284 1520 OFFCURVE",
"485 1520 CURVE SMOOTH",
"679 1520 OFFCURVE",
"799 1400 OFFCURVE",
"965 1400 CURVE SMOOTH",
"1033 1400 OFFCURVE",
"1066 1427 OFFCURVE",
"1086 1471 CURVE SMOOTH",
"1094 1489 OFFCURVE",
"1097 1500 OFFCURVE",
"1125 1500 CURVE SMOOTH",
"1254 1500 LINE SMOOTH",
"1289 1500 OFFCURVE",
"1295 1493 OFFCURVE",
"1290 1460 CURVE SMOOTH",
"1267 1305 OFFCURVE",
"1076 993 OFFCURVE",
"891 756 CURVE SMOOTH",
"769 599 OFFCURVE",
"713 532 OFFCURVE",
"713 464 CURVE SMOOTH",
"713 368 OFFCURVE",
"889 368 OFFCURVE",
"889 216 CURVE SMOOTH",
"889 102 OFFCURVE",
"819 -20 OFFCURVE",
"661 -20 CURVE SMOOTH",
"513 -20 OFFCURVE",
"399 74 OFFCURVE",
"399 252 CURVE SMOOTH",
"399 430 OFFCURVE",
"501 564 OFFCURVE",
"663 762 CURVE SMOOTH",
"763 884 OFFCURVE",
"833 965 OFFCURVE",
"929 1100 CURVE SMOOTH",
"958 1141 OFFCURVE",
"983 1176 OFFCURVE",
"973 1186 CURVE SMOOTH",
"958 1201 OFFCURVE",
"934 1159 OFFCURVE",
"905 1136 CURVE SMOOTH",
"858 1098 OFFCURVE",
"779 1066 OFFCURVE",
"725 1066 CURVE SMOOTH",
"605 1066 OFFCURVE",
"545 1134 OFFCURVE",
"443 1134 CURVE SMOOTH",
"356 1134 OFFCURVE",
"251 1082 OFFCURVE",
"241 980 CURVE SMOOTH",
"239 957 OFFCURVE",
"246 946 OFFCURVE",
"218 946 CURVE SMOOTH",
"102 946 LINE SMOOTH",
"72 946 OFFCURVE",
"64 954 OFFCURVE",
"65 982 CURVE SMOOTH"
);
}
);
vertWidth = 2310;
width = 1303;
}
);
unicode = 0037;
},
{
glyphname = eight;
layers = (
{
layerId = "5492647A-5722-481A-83CB-54A7AD0E630B";
paths = (
{
closed = 1;
nodes = (
"270 252 OFFCURVE",
"352 70 OFFCURVE",
"530 70 CURVE SMOOTH",
"708 70 OFFCURVE",
"790 252 OFFCURVE",
"790 420 CURVE SMOOTH",
"790 588 OFFCURVE",
"708 770 OFFCURVE",
"530 770 CURVE SMOOTH",
"352 770 OFFCURVE",
"270 588 OFFCURVE",
"270 420 CURVE SMOOTH"
);
},
{
closed = 1;
nodes = (
"120 1360 OFFCURVE",
"288 1520 OFFCURVE",
"530 1520 CURVE SMOOTH",
"772 1520 OFFCURVE",
"940 1360 OFFCURVE",
"940 1140 CURVE SMOOTH",
"940 987 OFFCURVE",
"859 880 OFFCURVE",
"728 827 CURVE SMOOTH",
"708 819 OFFCURVE",
"695 818 OFFCURVE",
"695 811 CURVE SMOOTH",
"695 805 OFFCURVE",
"703 802 OFFCURVE",
"726 794 CURVE SMOOTH",
"889 734 OFFCURVE",
"990 598 OFFCURVE",
"990 420 CURVE SMOOTH",
"990 180 OFFCURVE",
"812 -20 OFFCURVE",
"530 -20 CURVE SMOOTH",
"248 -20 OFFCURVE",
"70 180 OFFCURVE",
"70 420 CURVE SMOOTH",
"70 595 OFFCURVE",
"167 722 OFFCURVE",
"326 784 CURVE SMOOTH",
"345 792 OFFCURVE",
"372 799 OFFCURVE",
"372 808 CURVE SMOOTH",
"372 817 OFFCURVE",
"355 820 OFFCURVE",
"324 833 CURVE SMOOTH",
"198 887 OFFCURVE",
"120 990 OFFCURVE",
"120 1140 CURVE SMOOTH"
);
},
{
closed = 1;
nodes = (
"320 992 OFFCURVE",
"392 850 OFFCURVE",
"530 850 CURVE SMOOTH",
"668 850 OFFCURVE",
"740 992 OFFCURVE",
"740 1140 CURVE SMOOTH",
"740 1288 OFFCURVE",
"668 1430 OFFCURVE",
"530 1430 CURVE SMOOTH",
"392 1430 OFFCURVE",
"320 1288 OFFCURVE",
"320 1140 CURVE SMOOTH"
);
}
);
vertWidth = 2310;
width = 1060;
},
{
layerId = "7D0224F7-CECC-4B04-BE8C-3FB6AAD34500";
paths = (
{
closed = 1;
nodes = (
"430 216 OFFCURVE",
"472 170 OFFCURVE",
"520 170 CURVE SMOOTH",
"568 170 OFFCURVE",
"600 216 OFFCURVE",
"600 444 CURVE SMOOTH",
"600 662 OFFCURVE",
"568 720 OFFCURVE",
"520 720 CURVE SMOOTH",
"472 720 OFFCURVE",
"430 662 OFFCURVE",
"430 444 CURVE SMOOTH"
);
},
{
closed = 1;
nodes = (
"60 1370 OFFCURVE",
"198 1520 OFFCURVE",
"520 1520 CURVE SMOOTH",
"852 1520 OFFCURVE",
"990 1370 OFFCURVE",
"990 1150 CURVE SMOOTH",
"990 1004 OFFCURVE",
"888 897 OFFCURVE",
"765 842 CURVE SMOOTH",
"734 828 OFFCURVE",
"709 824 OFFCURVE",
"709 810 CURVE SMOOTH",
"709 798 OFFCURVE",
"735 792 OFFCURVE",
"764 780 CURVE SMOOTH",
"918 716 OFFCURVE",
"1020 591 OFFCURVE",
"1020 420 CURVE SMOOTH",
"1020 160 OFFCURVE",
"882 -20 OFFCURVE",
"520 -20 CURVE SMOOTH",
"158 -20 OFFCURVE",
"30 160 OFFCURVE",
"30 420 CURVE SMOOTH",
"30 600 OFFCURVE",
"134 731 OFFCURVE",
"302 790 CURVE SMOOTH",
"323 797 OFFCURVE",
"336 797 OFFCURVE",
"336 812 CURVE SMOOTH",
"336 826 OFFCURVE",
"313 827 OFFCURVE",
"299 832 CURVE SMOOTH",
"164 884 OFFCURVE",
"60 994 OFFCURVE",
"60 1150 CURVE SMOOTH"
);
},
{
closed = 1;
nodes = (
"450 957 OFFCURVE",
"482 900 OFFCURVE",
"520 900 CURVE SMOOTH",
"578 900 OFFCURVE",
"590 957 OFFCURVE",
"590 1105 CURVE SMOOTH",
"590 1253 OFFCURVE",
"574 1330 OFFCURVE",
"526 1330 CURVE SMOOTH",
"478 1330 OFFCURVE",
"450 1253 OFFCURVE",
"450 1105 CURVE SMOOTH"
);
}
);
vertWidth = 2310;
width = 1050;
},
{
layerId = "D7E1B457-BD34-420B-BB40-96ED806E1977";
paths = (
{
closed = 1;
nodes = (
"240 182 OFFCURVE",
"292 70 OFFCURVE",
"370 70 CURVE SMOOTH",
"448 70 OFFCURVE",
"500 182 OFFCURVE",
"500 420 CURVE SMOOTH",
"500 668 OFFCURVE",
"448 760 OFFCURVE",
"370 760 CURVE SMOOTH",
"292 760 OFFCURVE",
"240 668 OFFCURVE",
"240 420 CURVE SMOOTH"
);
},
{
closed = 1;
nodes = (
"90 1410 OFFCURVE",
"178 1520 OFFCURVE",
"370 1520 CURVE SMOOTH",
"562 1520 OFFCURVE",
"650 1410 OFFCURVE",
"650 1140 CURVE SMOOTH",
"650 937 OFFCURVE",
"579 860 OFFCURVE",
"498 827 CURVE SMOOTH",
"478 819 OFFCURVE",
"465 818 OFFCURVE",
"465 811 CURVE SMOOTH",
"465 805 OFFCURVE",
"473 801 OFFCURVE",
"496 794 CURVE SMOOTH",
"639 754 OFFCURVE",
"700 638 OFFCURVE",
"700 420 CURVE SMOOTH",
"700 180 OFFCURVE",
"652 -20 OFFCURVE",
"370 -20 CURVE SMOOTH",
"88 -20 OFFCURVE",
"40 180 OFFCURVE",
"40 420 CURVE SMOOTH",
"40 635 OFFCURVE",
"107 732 OFFCURVE",
"236 784 CURVE SMOOTH",
"255 792 OFFCURVE",
"282 799 OFFCURVE",
"282 808 CURVE SMOOTH",
"282 817 OFFCURVE",
"265 819 OFFCURVE",
"234 833 CURVE SMOOTH",
"158 867 OFFCURVE",
"90 940 OFFCURVE",
"90 1140 CURVE SMOOTH"
);
},
{
closed = 1;
nodes = (
"270 912 OFFCURVE",
"322 860 OFFCURVE",
"370 860 CURVE SMOOTH",
"418 860 OFFCURVE",
"470 912 OFFCURVE",
"470 1140 CURVE SMOOTH",
"470 1368 OFFCURVE",
"418 1430 OFFCURVE",
"370 1430 CURVE SMOOTH",
"322 1430 OFFCURVE",
"270 1368 OFFCURVE",
"270 1140 CURVE SMOOTH"
);
}
);
vertWidth = 2310;
width = 740;
},
{
layerId = "C903388A-C428-42EA-B608-801ADA807095";
paths = (
{
closed = 1;
nodes = (
"450 236 OFFCURVE",
"542 170 OFFCURVE",
"640 170 CURVE SMOOTH",
"728 170 OFFCURVE",
"820 236 OFFCURVE",
"820 444 CURVE SMOOTH",
"820 612 OFFCURVE",
"728 720 OFFCURVE",
"640 720 CURVE SMOOTH",
"542 720 OFFCURVE",
"450 612 OFFCURVE",
"450 444 CURVE SMOOTH"
);
},
{
closed = 1;
nodes = (
"100 1360 OFFCURVE",
"318 1520 OFFCURVE",
"640 1520 CURVE SMOOTH",
"972 1520 OFFCURVE",
"1190 1360 OFFCURVE",
"1190 1140 CURVE SMOOTH",
"1190 994 OFFCURVE",
"1108 897 OFFCURVE",
"985 842 CURVE SMOOTH",
"954 828 OFFCURVE",
"929 824 OFFCURVE",
"929 810 CURVE SMOOTH",
"929 798 OFFCURVE",
"955 792 OFFCURVE",
"984 780 CURVE SMOOTH",
"1138 716 OFFCURVE",
"1240 591 OFFCURVE",
"1240 420 CURVE SMOOTH",
"1240 160 OFFCURVE",
"1002 -20 OFFCURVE",
"640 -20 CURVE SMOOTH",
"278 -20 OFFCURVE",
"50 160 OFFCURVE",
"50 420 CURVE SMOOTH",
"50 600 OFFCURVE",
"154 731 OFFCURVE",
"322 790 CURVE SMOOTH",
"343 797 OFFCURVE",
"356 797 OFFCURVE",
"356 812 CURVE SMOOTH",
"356 826 OFFCURVE",
"333 827 OFFCURVE",
"319 832 CURVE SMOOTH",
"184 884 OFFCURVE",
"100 984 OFFCURVE",
"100 1140 CURVE SMOOTH"
);
},
{
closed = 1;
nodes = (
"500 957 OFFCURVE",
"582 900 OFFCURVE",
"640 900 CURVE SMOOTH",
"718 900 OFFCURVE",
"780 957 OFFCURVE",
"780 1105 CURVE SMOOTH",
"780 1253 OFFCURVE",
"718 1330 OFFCURVE",
"650 1330 CURVE SMOOTH",
"582 1330 OFFCURVE",
"500 1253 OFFCURVE",
"500 1105 CURVE SMOOTH"
);
}
);
vertWidth = 2310;
width = 1290;
}
);
unicode = 0038;
},
{
glyphname = nine;
layers = (
{
layerId = "5492647A-5722-481A-83CB-54A7AD0E630B";
paths = (
{
closed = 1;
nodes = (
"354 92 OFFCURVE",
"384 64 OFFCURVE",
"462 64 CURVE SMOOTH",
"694 64 OFFCURVE",
"781 297 OFFCURVE",
"797 640 CURVE SMOOTH",
"799 673 OFFCURVE",
"803 686 OFFCURVE",
"796 690 CURVE SMOOTH",
"788 694 OFFCURVE",
"784 680 OFFCURVE",
"767 661 CURVE SMOOTH",
"700 587 OFFCURVE",
"600 540 OFFCURVE",
"468 540 CURVE SMOOTH",
"246 540 OFFCURVE",
"60 700 OFFCURVE",
"60 1030 CURVE SMOOTH",
"60 1350 OFFCURVE",
"240 1520 OFFCURVE",
"522 1520 CURVE SMOOTH",
"844 1520 OFFCURVE",
"1000 1330 OFFCURVE",
"1000 760 CURVE SMOOTH",
"1000 280 OFFCURVE",
"794 -20 OFFCURVE",
"472 -20 CURVE SMOOTH",
"308 -20 OFFCURVE",
"160 54 OFFCURVE",
"160 218 CURVE SMOOTH",
"160 314 OFFCURVE",
"230 350 OFFCURVE",
"288 350 CURVE SMOOTH",
"342 350 OFFCURVE",
"402 308 OFFCURVE",
"402 234 CURVE SMOOTH",
"402 162 OFFCURVE",
"354 144 OFFCURVE",
"354 118 CURVE SMOOTH"
);
},
{
closed = 1;
nodes = (
"260 802 OFFCURVE",
"354 638 OFFCURVE",
"512 638 CURVE SMOOTH",
"678 638 OFFCURVE",
"800 780 OFFCURVE",
"800 940 CURVE SMOOTH",
"800 1238 OFFCURVE",
"700 1430 OFFCURVE",
"502 1430 CURVE SMOOTH",
"324 1430 OFFCURVE",
"260 1248 OFFCURVE",
"260 1030 CURVE SMOOTH"
);
}
);
vertWidth = 2310;
width = 1100;
},
{
layerId = "7D0224F7-CECC-4B04-BE8C-3FB6AAD34500";
paths = (
{
closed = 1;
nodes = (
"424 142 OFFCURVE",
"434 134 OFFCURVE",
"452 134 CURVE SMOOTH",
"550 134 OFFCURVE",
"556 303 OFFCURVE",
"576 636 CURVE SMOOTH",
"578 671 OFFCURVE",
"583 685 OFFCURVE",
"576 689 CURVE SMOOTH",
"567 694 OFFCURVE",
"556.996 682.578 OFFCURVE",
"543 658 CURVE SMOOTH",
"502 586 OFFCURVE",
"438 540 OFFCURVE",
"348 540 CURVE SMOOTH",
"126 540 OFFCURVE",
"30 690 OFFCURVE",
"30 1000 CURVE SMOOTH",
"30 1370 OFFCURVE",
"200 1520 OFFCURVE",
"502 1520 CURVE SMOOTH",
"824 1520 OFFCURVE",
"980 1330 OFFCURVE",
"980 760 CURVE SMOOTH",
"980 280 OFFCURVE",
"824 -20 OFFCURVE",
"452 -20 CURVE SMOOTH",
"178 -20 OFFCURVE",
"80 124 OFFCURVE",
"80 278 CURVE SMOOTH",
"80 414 OFFCURVE",
"159 510 OFFCURVE",
"298 510 CURVE SMOOTH",
"432 510 OFFCURVE",
"522 438 OFFCURVE",
"522 324 CURVE SMOOTH",
"522 212 OFFCURVE",
"424 184 OFFCURVE",
"424 158 CURVE SMOOTH"
);
},
{
closed = 1;
nodes = (
"430 842 OFFCURVE",
"464 778 OFFCURVE",
"502 778 CURVE SMOOTH",
"538 778 OFFCURVE",
"580 880 OFFCURVE",
"580 1040 CURVE SMOOTH",
"580 1198 OFFCURVE",
"560 1290 OFFCURVE",
"502 1290 CURVE SMOOTH",
"454 1290 OFFCURVE",
"430 1208 OFFCURVE",
"430 1030 CURVE SMOOTH"
);
}
);
vertWidth = 2310;
width = 1010;
},
{
layerId = "D7E1B457-BD34-420B-BB40-96ED806E1977";
paths = (
{
closed = 1;
nodes = (
"284 82 OFFCURVE",
"324 64 OFFCURVE",
"372 64 CURVE SMOOTH",
"534 64 OFFCURVE",
"561 307 OFFCURVE",
"577 600 CURVE SMOOTH",
"579 633 OFFCURVE",
"583 646 OFFCURVE",
"576 650 CURVE SMOOTH",
"568 654 OFFCURVE",
"563 641 OFFCURVE",
"547 621 CURVE SMOOTH",
"510 577 OFFCURVE",
"450 540 OFFCURVE",
"348 540 CURVE SMOOTH",
"146 540 OFFCURVE",
"40 700 OFFCURVE",
"40 1030 CURVE SMOOTH",
"40 1340 OFFCURVE",
"190 1520 OFFCURVE",
"402 1520 CURVE SMOOTH",
"654 1520 OFFCURVE",
"780 1320 OFFCURVE",
"780 760 CURVE SMOOTH",
"780 280 OFFCURVE",
"654 -20 OFFCURVE",
"352 -20 CURVE SMOOTH",
"218 -20 OFFCURVE",
"120 74 OFFCURVE",
"120 188 CURVE SMOOTH",
"120 304 OFFCURVE",
"190 350 OFFCURVE",
"248 350 CURVE SMOOTH",
"302 350 OFFCURVE",
"362 308 OFFCURVE",
"362 234 CURVE SMOOTH",
"362 162 OFFCURVE",
"284 134 OFFCURVE",
"284 108 CURVE SMOOTH"
);
},
{
closed = 1;
nodes = (
"240 802 OFFCURVE",
"304 638 OFFCURVE",
"412 638 CURVE SMOOTH",
"538 638 OFFCURVE",
"580 780 OFFCURVE",
"580 940 CURVE SMOOTH",
"580 1238 OFFCURVE",
"560 1430 OFFCURVE",
"402 1430 CURVE SMOOTH",
"274 1430 OFFCURVE",
"240 1248 OFFCURVE",
"240 1030 CURVE SMOOTH"
);
}
);
vertWidth = 2310;
width = 840;
},
{
layerId = "C903388A-C428-42EA-B608-801ADA807095";
paths = (
{
closed = 1;
nodes = (
"504 162 OFFCURVE",
"524 134 OFFCURVE",
"592 134 CURVE SMOOTH",
"710 134 OFFCURVE",
"826 303 OFFCURVE",
"846 636 CURVE SMOOTH",
"848 671 OFFCURVE",
"853 685 OFFCURVE",
"846 689 CURVE SMOOTH",
"837 694 OFFCURVE",
"833 678 OFFCURVE",
"813 658 CURVE SMOOTH",
"742 586 OFFCURVE",
"628 540 OFFCURVE",
"498 540 CURVE SMOOTH",
"276 540 OFFCURVE",
"60 690 OFFCURVE",
"60 1000 CURVE SMOOTH",
"60 1370 OFFCURVE",
"350 1520 OFFCURVE",
"652 1520 CURVE SMOOTH",
"974 1520 OFFCURVE",
"1250 1330 OFFCURVE",
"1250 760 CURVE SMOOTH",
"1250 280 OFFCURVE",
"974 -20 OFFCURVE",
"602 -20 CURVE SMOOTH",
"298 -20 OFFCURVE",
"110 114 OFFCURVE",
"110 278 CURVE SMOOTH",
"110 414 OFFCURVE",
"189 510 OFFCURVE",
"328 510 CURVE SMOOTH",
"462 510 OFFCURVE",
"552 438 OFFCURVE",
"552 324 CURVE SMOOTH",
"552 252 OFFCURVE",
"504 214 OFFCURVE",
"504 188 CURVE SMOOTH"
);
},
{
closed = 1;
nodes = (
"460 842 OFFCURVE",
"544 778 OFFCURVE",
"652 778 CURVE SMOOTH",
"758 778 OFFCURVE",
"850 880 OFFCURVE",
"850 1040 CURVE SMOOTH",
"850 1198 OFFCURVE",
"780 1290 OFFCURVE",
"652 1290 CURVE SMOOTH",
"534 1290 OFFCURVE",
"460 1208 OFFCURVE",
"460 1030 CURVE SMOOTH"
);
}
);
vertWidth = 2310;
width = 1330;
}
);
unicode = 0039;
},
{
glyphname = less;
layers = (
{
layerId = "5492647A-5722-481A-83CB-54A7AD0E630B";
paths = (
{
closed = 1;
nodes = (
"962 495 LINE SMOOTH",
"990 484 OFFCURVE",
"1000 477 OFFCURVE",
"1000 437 CURVE SMOOTH",
"1000 395 LINE SMOOTH",
"1000 350 OFFCURVE",
"983 357 OFFCURVE",
"956 367 CURVE SMOOTH",
"152 678 LINE SMOOTH",
"123 689 OFFCURVE",
"120 699 OFFCURVE",
"120 740 CURVE SMOOTH",
"120 820 LINE SMOOTH",
"120 862 OFFCURVE",
"125 862 OFFCURVE",
"154 873 CURVE SMOOTH",
"966 1187 LINE SMOOTH",
"991 1197 OFFCURVE",
"1000 1193 OFFCURVE",
"1000 1159 CURVE SMOOTH",
"1000 1113 LINE SMOOTH",
"1000 1076 OFFCURVE",
"989 1066 OFFCURVE",
"964 1056 CURVE SMOOTH",
"298 799 LINE SMOOTH",
"267 787 OFFCURVE",
"250 787 OFFCURVE",
"250 776 CURVE SMOOTH",
"250 765 OFFCURVE",
"263 765 OFFCURVE",
"296 752 CURVE SMOOTH"
);
}
);
vertWidth = 0;
width = 1120;
},
{
layerId = "7D0224F7-CECC-4B04-BE8C-3FB6AAD34500";
paths = (
{
closed = 1;
nodes = (
"960 555 LINE SMOOTH",
"989 544 OFFCURVE",
"1000 533 OFFCURVE",
"1000 491 CURVE SMOOTH",
"1000 373 LINE SMOOTH",
"1000 315 OFFCURVE",
"993 313 OFFCURVE",
"954 328 CURVE SMOOTH",
"164 642 LINE SMOOTH",
"131 655 OFFCURVE",
"120 672 OFFCURVE",
"120 720 CURVE SMOOTH",
"120 830 LINE SMOOTH",
"120 890 OFFCURVE",
"135 896 OFFCURVE",
"176 912 CURVE SMOOTH",
"940 1216 LINE SMOOTH",
"980 1232 OFFCURVE",
"1000 1235 OFFCURVE",
"1000 1169 CURVE SMOOTH",
"1000 1082 LINE SMOOTH",
"1000 1025 OFFCURVE",
"992 1007 OFFCURVE",
"952 992 CURVE SMOOTH",
"438 802 LINE SMOOTH",
"403 789 OFFCURVE",
"382 788 OFFCURVE",
"382 776 CURVE SMOOTH",
"382 759 OFFCURVE",
"399 763 OFFCURVE",
"438 748 CURVE SMOOTH"
);
}
);
vertWidth = 0;
width = 1120;
},
{
layerId = "D7E1B457-BD34-420B-BB40-96ED806E1977";
paths = (
{
closed = 1;
nodes = (
"962 495 LINE SMOOTH",
"990 484 OFFCURVE",
"1000 477 OFFCURVE",
"1000 437 CURVE SMOOTH",
"1000 395 LINE SMOOTH",
"1000 350 OFFCURVE",
"983 357 OFFCURVE",
"956 367 CURVE SMOOTH",
"152 678 LINE SMOOTH",
"123 689 OFFCURVE",
"120 699 OFFCURVE",
"120 740 CURVE SMOOTH",
"120 820 LINE SMOOTH",
"120 862 OFFCURVE",
"125 862 OFFCURVE",
"154 873 CURVE SMOOTH",
"966 1187 LINE SMOOTH",
"991 1197 OFFCURVE",
"1000 1193 OFFCURVE",
"1000 1159 CURVE SMOOTH",
"1000 1113 LINE SMOOTH",
"1000 1076 OFFCURVE",
"989 1066 OFFCURVE",
"964 1056 CURVE SMOOTH",
"298 799 LINE SMOOTH",
"267 787 OFFCURVE",
"250 787 OFFCURVE",
"250 776 CURVE SMOOTH",
"250 765 OFFCURVE",
"263 765 OFFCURVE",
"296 752 CURVE SMOOTH"
);
}
);
vertWidth = 0;
width = 1120;
},
{
layerId = "C903388A-C428-42EA-B608-801ADA807095";
paths = (
{
closed = 1;
nodes = (
"960 555 LINE SMOOTH",
"989 544 OFFCURVE",
"1000 533 OFFCURVE",
"1000 491 CURVE SMOOTH",
"1000 373 LINE SMOOTH",
"1000 315 OFFCURVE",
"993 313 OFFCURVE",
"954 328 CURVE SMOOTH",
"164 642 LINE SMOOTH",
"131 655 OFFCURVE",
"120 672 OFFCURVE",
"120 720 CURVE SMOOTH",
"120 830 LINE SMOOTH",
"120 890 OFFCURVE",
"135 896 OFFCURVE",
"176 912 CURVE SMOOTH",
"940 1216 LINE SMOOTH",
"980 1232 OFFCURVE",
"1000 1235 OFFCURVE",
"1000 1169 CURVE SMOOTH",
"1000 1082 LINE SMOOTH",
"1000 1025 OFFCURVE",
"992 1007 OFFCURVE",
"952 992 CURVE SMOOTH",
"438 802 LINE SMOOTH",
"403 789 OFFCURVE",
"382 788 OFFCURVE",
"382 776 CURVE SMOOTH",
"382 759 OFFCURVE",
"399 763 OFFCURVE",
"438 748 CURVE SMOOTH"
);
}
);
vertWidth = 0;
width = 1120;
}
);
unicode = 003C;
},
{
glyphname = equal;
layers = (
{
layerId = "5492647A-5722-481A-83CB-54A7AD0E630B";
paths = (
{
closed = 1;
nodes = (
"967 680 LINE SMOOTH",
"997 680 OFFCURVE",
"1000 676 OFFCURVE",
"1000 652 CURVE SMOOTH",
"1000 603 LINE SMOOTH",
"1000 579 OFFCURVE",
"998 570 OFFCURVE",
"964 570 CURVE SMOOTH",
"154 570 LINE SMOOTH",
"122 570 OFFCURVE",
"120 574 OFFCURVE",
"120 600 CURVE SMOOTH",
"120 652 LINE SMOOTH",
"120 675 OFFCURVE",
"130 680 OFFCURVE",
"157 680 CURVE SMOOTH"
);
},
{
closed = 1;
nodes = (
"967 980 LINE SMOOTH",
"997 980 OFFCURVE",
"1000 976 OFFCURVE",
"1000 952 CURVE SMOOTH",
"1000 903 LINE SMOOTH",
"1000 879 OFFCURVE",
"998 870 OFFCURVE",
"964 870 CURVE SMOOTH",
"154 870 LINE SMOOTH",
"122 870 OFFCURVE",
"120 874 OFFCURVE",
"120 900 CURVE SMOOTH",
"120 952 LINE SMOOTH",
"120 975 OFFCURVE",
"130 980 OFFCURVE",
"157 980 CURVE SMOOTH"
);
}
);
vertWidth = 0;
width = 1120;
},
{
layerId = "7D0224F7-CECC-4B04-BE8C-3FB6AAD34500";
paths = (
{
closed = 1;
nodes = (
"956 690 LINE SMOOTH",
"996 690 OFFCURVE",
"1000 683 OFFCURVE",
"1000 651 CURVE SMOOTH",
"1000 501 LINE SMOOTH",
"1000 466 OFFCURVE",
"999 460 OFFCURVE",
"954 460 CURVE SMOOTH",
"175 460 LINE SMOOTH",
"128 460 OFFCURVE",
"120 465 OFFCURVE",
"120 500 CURVE SMOOTH",
"120 649 LINE SMOOTH",
"120 681 OFFCURVE",
"123 690 OFFCURVE",
"164 690 CURVE SMOOTH"
);
},
{
closed = 1;
nodes = (
"956 1090 LINE SMOOTH",
"996 1090 OFFCURVE",
"1000 1083 OFFCURVE",
"1000 1051 CURVE SMOOTH",
"1000 901 LINE SMOOTH",
"1000 866 OFFCURVE",
"999 860 OFFCURVE",
"954 860 CURVE SMOOTH",
"175 860 LINE SMOOTH",
"128 860 OFFCURVE",
"120 865 OFFCURVE",
"120 900 CURVE SMOOTH",
"120 1049 LINE SMOOTH",
"120 1081 OFFCURVE",
"123 1090 OFFCURVE",
"164 1090 CURVE SMOOTH"
);
}
);
vertWidth = 0;
width = 1120;
},
{
layerId = "D7E1B457-BD34-420B-BB40-96ED806E1977";
paths = (
{
closed = 1;
nodes = (
"967 680 LINE SMOOTH",
"997 680 OFFCURVE",
"1000 676 OFFCURVE",
"1000 652 CURVE SMOOTH",
"1000 603 LINE SMOOTH",
"1000 579 OFFCURVE",
"998 570 OFFCURVE",
"964 570 CURVE SMOOTH",
"154 570 LINE SMOOTH",
"122 570 OFFCURVE",
"120 574 OFFCURVE",
"120 600 CURVE SMOOTH",
"120 652 LINE SMOOTH",
"120 675 OFFCURVE",
"130 680 OFFCURVE",
"157 680 CURVE SMOOTH"
);
},
{
closed = 1;
nodes = (
"967 980 LINE SMOOTH",
"997 980 OFFCURVE",
"1000 976 OFFCURVE",
"1000 952 CURVE SMOOTH",
"1000 903 LINE SMOOTH",
"1000 879 OFFCURVE",
"998 870 OFFCURVE",
"964 870 CURVE SMOOTH",
"154 870 LINE SMOOTH",
"122 870 OFFCURVE",
"120 874 OFFCURVE",
"120 900 CURVE SMOOTH",
"120 952 LINE SMOOTH",
"120 975 OFFCURVE",
"130 980 OFFCURVE",
"157 980 CURVE SMOOTH"
);
}
);
vertWidth = 0;
width = 1120;
},
{
layerId = "C903388A-C428-42EA-B608-801ADA807095";
paths = (
{
closed = 1;
nodes = (
"956 690 LINE SMOOTH",
"996 690 OFFCURVE",
"1000 683 OFFCURVE",
"1000 651 CURVE SMOOTH",
"1000 501 LINE SMOOTH",
"1000 466 OFFCURVE",
"999 460 OFFCURVE",
"954 460 CURVE SMOOTH",
"175 460 LINE SMOOTH",
"128 460 OFFCURVE",
"120 465 OFFCURVE",
"120 500 CURVE SMOOTH",
"120 649 LINE SMOOTH",
"120 681 OFFCURVE",
"123 690 OFFCURVE",
"164 690 CURVE SMOOTH"
);
},
{
closed = 1;
nodes = (
"956 1090 LINE SMOOTH",
"996 1090 OFFCURVE",
"1000 1083 OFFCURVE",
"1000 1051 CURVE SMOOTH",
"1000 901 LINE SMOOTH",
"1000 866 OFFCURVE",
"999 860 OFFCURVE",
"954 860 CURVE SMOOTH",
"175 860 LINE SMOOTH",
"128 860 OFFCURVE",
"120 865 OFFCURVE",
"120 900 CURVE SMOOTH",
"120 1049 LINE SMOOTH",
"120 1081 OFFCURVE",
"123 1090 OFFCURVE",
"164 1090 CURVE SMOOTH"
);
}
);
vertWidth = 0;
width = 1120;
}
);
unicode = 003D;
},
{
glyphname = greater;
layers = (
{
layerId = "5492647A-5722-481A-83CB-54A7AD0E630B";
paths = (
{
closed = 1;
nodes = (
"158 1055 LINE SMOOTH",
"130 1066 OFFCURVE",
"120 1073 OFFCURVE",
"120 1113 CURVE SMOOTH",
"120 1155 LINE SMOOTH",
"120 1200 OFFCURVE",
"137 1193 OFFCURVE",
"164 1183 CURVE SMOOTH",
"968 872 LINE SMOOTH",
"997 861 OFFCURVE",
"1000 851 OFFCURVE",
"1000 810 CURVE SMOOTH",
"1000 730 LINE SMOOTH",
"1000 688 OFFCURVE",
"995 688 OFFCURVE",
"966 677 CURVE SMOOTH",
"154 363 LINE SMOOTH",
"129 353 OFFCURVE",
"120 357 OFFCURVE",
"120 391 CURVE SMOOTH",
"120 437 LINE SMOOTH",
"120 474 OFFCURVE",
"131 484 OFFCURVE",
"156 494 CURVE SMOOTH",
"822 751 LINE SMOOTH",
"853 763 OFFCURVE",
"870 763 OFFCURVE",
"870 774 CURVE SMOOTH",
"870 785 OFFCURVE",
"857 785 OFFCURVE",
"824 798 CURVE SMOOTH"
);
}
);
vertWidth = 0;
width = 1120;
},
{
layerId = "7D0224F7-CECC-4B04-BE8C-3FB6AAD34500";
paths = (
{
closed = 1;
nodes = (
"160 995 LINE SMOOTH",
"131 1006 OFFCURVE",
"120 1017 OFFCURVE",
"120 1059 CURVE SMOOTH",
"120 1177 LINE SMOOTH",
"120 1235 OFFCURVE",
"127 1237 OFFCURVE",
"166 1222 CURVE SMOOTH",
"956 908 LINE SMOOTH",
"989 895 OFFCURVE",
"1000 878 OFFCURVE",
"1000 830 CURVE SMOOTH",
"1000 720 LINE SMOOTH",
"1000 660 OFFCURVE",
"985 654 OFFCURVE",
"944 638 CURVE SMOOTH",
"180 334 LINE SMOOTH",
"140 318 OFFCURVE",
"120 315 OFFCURVE",
"120 381 CURVE SMOOTH",
"120 468 LINE SMOOTH",
"120 525 OFFCURVE",
"128 543 OFFCURVE",
"168 558 CURVE SMOOTH",
"682 748 LINE SMOOTH",
"717 761 OFFCURVE",
"738 762 OFFCURVE",
"738 774 CURVE SMOOTH",
"738 791 OFFCURVE",
"721 787 OFFCURVE",
"682 802 CURVE SMOOTH"
);
}
);
vertWidth = 0;
width = 1120;
},
{
layerId = "D7E1B457-BD34-420B-BB40-96ED806E1977";
paths = (
{
closed = 1;
nodes = (
"158 1055 LINE SMOOTH",
"130 1066 OFFCURVE",
"120 1073 OFFCURVE",
"120 1113 CURVE SMOOTH",
"120 1155 LINE SMOOTH",
"120 1200 OFFCURVE",
"137 1193 OFFCURVE",
"164 1183 CURVE SMOOTH",
"968 872 LINE SMOOTH",
"997 861 OFFCURVE",
"1000 851 OFFCURVE",
"1000 810 CURVE SMOOTH",
"1000 730 LINE SMOOTH",
"1000 688 OFFCURVE",
"995 688 OFFCURVE",
"966 677 CURVE SMOOTH",
"154 363 LINE SMOOTH",
"129 353 OFFCURVE",
"120 357 OFFCURVE",
"120 391 CURVE SMOOTH",
"120 437 LINE SMOOTH",
"120 474 OFFCURVE",
"131 484 OFFCURVE",
"156 494 CURVE SMOOTH",
"822 751 LINE SMOOTH",
"853 763 OFFCURVE",
"870 763 OFFCURVE",
"870 774 CURVE SMOOTH",
"870 785 OFFCURVE",
"857 785 OFFCURVE",
"824 798 CURVE SMOOTH"
);
}
);
vertWidth = 0;
width = 1120;
},
{
layerId = "C903388A-C428-42EA-B608-801ADA807095";
paths = (
{
closed = 1;
nodes = (
"160 995 LINE SMOOTH",
"131 1006 OFFCURVE",
"120 1017 OFFCURVE",
"120 1059 CURVE SMOOTH",
"120 1177 LINE SMOOTH",
"120 1235 OFFCURVE",
"127 1237 OFFCURVE",
"166 1222 CURVE SMOOTH",
"956 908 LINE SMOOTH",
"989 895 OFFCURVE",
"1000 878 OFFCURVE",
"1000 830 CURVE SMOOTH",
"1000 720 LINE SMOOTH",
"1000 660 OFFCURVE",
"985 654 OFFCURVE",
"944 638 CURVE SMOOTH",
"180 334 LINE SMOOTH",
"140 318 OFFCURVE",
"120 315 OFFCURVE",
"120 381 CURVE SMOOTH",
"120 468 LINE SMOOTH",
"120 525 OFFCURVE",
"128 543 OFFCURVE",
"168 558 CURVE SMOOTH",
"682 748 LINE SMOOTH",
"717 761 OFFCURVE",
"738 762 OFFCURVE",
"738 774 CURVE SMOOTH",
"738 791 OFFCURVE",
"721 787 OFFCURVE",
"682 802 CURVE SMOOTH"
);
}
);
vertWidth = 0;
width = 1120;
}
);
unicode = 003E;
},
{
glyphname = question;
layers = (
{
components = (
{
name = period;
transform = "{1, 0, 0, 1, 298, 0}";
}
);
layerId = "5492647A-5722-481A-83CB-54A7AD0E630B";
paths = (
{
closed = 1;
nodes = (
"298 1264 OFFCURVE",
"360 1262 OFFCURVE",
"360 1160 CURVE SMOOTH",
"360 1076 OFFCURVE",
"294 1040 OFFCURVE",
"224 1040 CURVE SMOOTH",
"154 1040 OFFCURVE",
"90 1086 OFFCURVE",
"90 1182 CURVE SMOOTH",
"90 1346 OFFCURVE",
"238 1520 OFFCURVE",
"522 1520 CURVE SMOOTH",
"844 1520 OFFCURVE",
"1000 1360 OFFCURVE",
"1000 1100 CURVE SMOOTH",
"1000 901 OFFCURVE",
"847 703 OFFCURVE",
"601 640 CURVE SMOOTH",
"569 632 OFFCURVE",
"554 630 OFFCURVE",
"554 587 CURVE SMOOTH",
"554 451 LINE SMOOTH",
"554 421 OFFCURVE",
"546 418 OFFCURVE",
"515 418 CURVE SMOOTH",
"478 418 LINE SMOOTH",
"443 418 OFFCURVE",
"434 420 OFFCURVE",
"434 455 CURVE SMOOTH",
"434 651 LINE SMOOTH",
"434 694 OFFCURVE",
"443 700 OFFCURVE",
"473 711 CURVE SMOOTH",
"667 783 OFFCURVE",
"798 947 OFFCURVE",
"798 1140 CURVE SMOOTH",
"798 1288 OFFCURVE",
"720 1436 OFFCURVE",
"522 1436 CURVE SMOOTH",
"354 1436 OFFCURVE",
"298 1368 OFFCURVE",
"298 1324 CURVE SMOOTH"
);
}
);
vertWidth = 0;
width = 1100;
},
{
components = (
{
name = period;
transform = "{1, 0, 0, 1, 258, 0}";
}
);
layerId = "7D0224F7-CECC-4B04-BE8C-3FB6AAD34500";
paths = (
{
closed = 1;
nodes = (
"358 1294 OFFCURVE",
"500 1312 OFFCURVE",
"500 1150 CURVE SMOOTH",
"500 1026 OFFCURVE",
"374 940 OFFCURVE",
"264 940 CURVE SMOOTH",
"144 940 OFFCURVE",
"30 1026 OFFCURVE",
"30 1182 CURVE SMOOTH",
"30 1346 OFFCURVE",
"228 1520 OFFCURVE",
"562 1520 CURVE SMOOTH",
"884 1520 OFFCURVE",
"1140 1390 OFFCURVE",
"1140 1100 CURVE SMOOTH",
"1140 840 OFFCURVE",
"925 690 OFFCURVE",
"666 618 CURVE SMOOTH",
"639 611 OFFCURVE",
"634 613 OFFCURVE",
"631 580 CURVE SMOOTH",
"628 536 LINE SMOOTH",
"625 500 OFFCURVE",
"608 498 OFFCURVE",
"572 498 CURVE SMOOTH",
"506 498 LINE SMOOTH",
"440 498 OFFCURVE",
"433 504 OFFCURVE",
"425 560 CURVE SMOOTH",
"411 652 LINE SMOOTH",
"402 712 OFFCURVE",
"426 702 OFFCURVE",
"470 722 CURVE SMOOTH",
"643 799 OFFCURVE",
"738 956 OFFCURVE",
"738 1140 CURVE SMOOTH",
"738 1288 OFFCURVE",
"680 1396 OFFCURVE",
"522 1396 CURVE SMOOTH",
"414 1396 OFFCURVE",
"358 1358 OFFCURVE",
"358 1334 CURVE SMOOTH"
);
}
);
vertWidth = 0;
width = 1170;
},
{
components = (
{
name = period;
transform = "{1, 0, 0, 1, 298, 0}";
}
);
layerId = "D7E1B457-BD34-420B-BB40-96ED806E1977";
paths = (
{
closed = 1;
nodes = (
"298 1264 OFFCURVE",
"360 1262 OFFCURVE",
"360 1160 CURVE SMOOTH",
"360 1076 OFFCURVE",
"294 1040 OFFCURVE",
"224 1040 CURVE SMOOTH",
"154 1040 OFFCURVE",
"90 1086 OFFCURVE",
"90 1182 CURVE SMOOTH",
"90 1346 OFFCURVE",
"238 1520 OFFCURVE",
"522 1520 CURVE SMOOTH",
"844 1520 OFFCURVE",
"1000 1360 OFFCURVE",
"1000 1100 CURVE SMOOTH",
"1000 901 OFFCURVE",
"847 703 OFFCURVE",
"601 640 CURVE SMOOTH",
"569 632 OFFCURVE",
"554 630 OFFCURVE",
"554 587 CURVE SMOOTH",
"554 451 LINE SMOOTH",
"554 421 OFFCURVE",
"546 418 OFFCURVE",
"515 418 CURVE SMOOTH",
"478 418 LINE SMOOTH",
"443 418 OFFCURVE",
"434 420 OFFCURVE",
"434 455 CURVE SMOOTH",
"434 651 LINE SMOOTH",
"434 694 OFFCURVE",
"443 700 OFFCURVE",
"473 711 CURVE SMOOTH",
"667 783 OFFCURVE",
"798 947 OFFCURVE",
"798 1140 CURVE SMOOTH",
"798 1288 OFFCURVE",
"720 1436 OFFCURVE",
"522 1436 CURVE SMOOTH",
"354 1436 OFFCURVE",
"298 1368 OFFCURVE",
"298 1324 CURVE SMOOTH"
);
}
);
vertWidth = 0;
width = 1100;
},
{
components = (
{
name = period;
transform = "{1, 0, 0, 1, 258, 0}";
}
);
layerId = "C903388A-C428-42EA-B608-801ADA807095";
paths = (
{
closed = 1;
nodes = (
"358 1294 OFFCURVE",
"500 1312 OFFCURVE",
"500 1150 CURVE SMOOTH",
"500 1026 OFFCURVE",
"374 940 OFFCURVE",
"264 940 CURVE SMOOTH",
"144 940 OFFCURVE",
"30 1026 OFFCURVE",
"30 1182 CURVE SMOOTH",
"30 1346 OFFCURVE",
"228 1520 OFFCURVE",
"562 1520 CURVE SMOOTH",
"884 1520 OFFCURVE",
"1140 1390 OFFCURVE",
"1140 1100 CURVE SMOOTH",
"1140 840 OFFCURVE",
"925 690 OFFCURVE",
"666 618 CURVE SMOOTH",
"639 611 OFFCURVE",
"634 613 OFFCURVE",
"631 580 CURVE SMOOTH",
"628 536 LINE SMOOTH",
"625 500 OFFCURVE",
"608 498 OFFCURVE",
"572 498 CURVE SMOOTH",
"506 498 LINE SMOOTH",
"440 498 OFFCURVE",
"433 504 OFFCURVE",
"425 560 CURVE SMOOTH",
"411 652 LINE SMOOTH",
"402 712 OFFCURVE",
"426 702 OFFCURVE",
"470 722 CURVE SMOOTH",
"643 799 OFFCURVE",
"738 956 OFFCURVE",
"738 1140 CURVE SMOOTH",
"738 1288 OFFCURVE",
"680 1396 OFFCURVE",
"522 1396 CURVE SMOOTH",
"414 1396 OFFCURVE",
"358 1358 OFFCURVE",
"358 1334 CURVE SMOOTH"
);
}
);
vertWidth = 0;
width = 1170;
}
);
unicode = 003F;
},
{
glyphname = at;
layers = (
{
layerId = "5492647A-5722-481A-83CB-54A7AD0E630B";
paths = (
{
closed = 1;
nodes = (
"1328 776 OFFCURVE",
"1300 956 OFFCURVE",
"1168 956 CURVE SMOOTH",
"1020 956 OFFCURVE",
"870 728 OFFCURVE",
"870 480 CURVE SMOOTH",
"870 346 OFFCURVE",
"900 244 OFFCURVE",
"1028 244 CURVE SMOOTH",
"1150 244 OFFCURVE",
"1328 436 OFFCURVE",
"1328 692 CURVE SMOOTH"
);
},
{
closed = 1;
nodes = (
"1474 -336 OFFCURVE",
"1245 -428 OFFCURVE",
"938 -428 CURVE SMOOTH",
"652 -428 OFFCURVE",
"130 -224 OFFCURVE",
"130 442 CURVE SMOOTH",
"130 1108 OFFCURVE",
"624 1580 OFFCURVE",
"1170 1580 CURVE SMOOTH",
"1716 1580 OFFCURVE",
"2010 1208 OFFCURVE",
"2010 842 CURVE SMOOTH",
"2010 522 OFFCURVE",
"1824 140 OFFCURVE",
"1482 140 CURVE SMOOTH",
"1376 140 OFFCURVE",
"1322 198 OFFCURVE",
"1289 267 CURVE SMOOTH",
"1269 309 OFFCURVE",
"1272 325 OFFCURVE",
"1223 271 CURVE SMOOTH",
"1148 188 OFFCURVE",
"1057 140 OFFCURVE",
"968 140 CURVE SMOOTH",
"810 140 OFFCURVE",
"668 251 OFFCURVE",
"668 460 CURVE SMOOTH",
"668 760 OFFCURVE",
"898 1058 OFFCURVE",
"1136 1058 CURVE SMOOTH",
"1239 1058 OFFCURVE",
"1311 1004 OFFCURVE",
"1351 912 CURVE SMOOTH",
"1379 848 OFFCURVE",
"1378 841 OFFCURVE",
"1393 905 CURVE SMOOTH",
"1417 1010 LINE SMOOTH",
"1422 1033 OFFCURVE",
"1429 1040 OFFCURVE",
"1459 1040 CURVE SMOOTH",
"1550 1040 LINE SMOOTH",
"1596 1040 OFFCURVE",
"1601 1027 OFFCURVE",
"1591 986 CURVE SMOOTH",
"1460 420 LINE SMOOTH",
"1456 394 OFFCURVE",
"1432 264 OFFCURVE",
"1526 264 CURVE SMOOTH",
"1728 264 OFFCURVE",
"1884 542 OFFCURVE",
"1884 850 CURVE SMOOTH",
"1884 1204 OFFCURVE",
"1572 1474 OFFCURVE",
"1204 1474 CURVE SMOOTH",
"716 1474 OFFCURVE",
"340 1006 OFFCURVE",
"340 462 CURVE SMOOTH",
"340 -142 OFFCURVE",
"702 -318 OFFCURVE",
"990 -318 CURVE SMOOTH",
"1185 -318 OFFCURVE",
"1385 -255 OFFCURVE",
"1557 -86 CURVE SMOOTH",
"1588 -56 OFFCURVE",
"1588 -46 OFFCURVE",
"1620 -78 CURVE SMOOTH",
"1649 -107 LINE SMOOTH",
"1674 -132 OFFCURVE",
"1664 -136 OFFCURVE",
"1640 -161 CURVE SMOOTH"
);
}
);
vertWidth = 2310;
width = 2120;
},
{
layerId = "7D0224F7-CECC-4B04-BE8C-3FB6AAD34500";
paths = (
{
closed = 1;
nodes = (
"1348 776 OFFCURVE",
"1344 836 OFFCURVE",
"1288 836 CURVE SMOOTH",
"1200 836 OFFCURVE",
"1130 608 OFFCURVE",
"1130 480 CURVE SMOOTH",
"1130 386 OFFCURVE",
"1140 364 OFFCURVE",
"1168 364 CURVE SMOOTH",
"1250 364 OFFCURVE",
"1348 536 OFFCURVE",
"1348 692 CURVE SMOOTH"
);
},
{
closed = 1;
nodes = (
"1600 -353 OFFCURVE",
"1350 -448 OFFCURVE",
"1038 -448 CURVE SMOOTH",
"672 -448 OFFCURVE",
"90 -224 OFFCURVE",
"90 442 CURVE SMOOTH",
"90 1108 OFFCURVE",
"644 1600 OFFCURVE",
"1270 1600 CURVE SMOOTH",
"1856 1600 OFFCURVE",
"2180 1248 OFFCURVE",
"2180 802 CURVE SMOOTH",
"2180 462 OFFCURVE",
"1944 126 OFFCURVE",
"1582 126 CURVE SMOOTH",
"1481 126 OFFCURVE",
"1405 172 OFFCURVE",
"1354 230 CURVE SMOOTH",
"1324 264 OFFCURVE",
"1314 272 OFFCURVE",
"1274 239 CURVE SMOOTH",
"1200 178 OFFCURVE",
"1119 130 OFFCURVE",
"1008 130 CURVE SMOOTH",
"850 130 OFFCURVE",
"708 211 OFFCURVE",
"708 420 CURVE SMOOTH",
"708 640 OFFCURVE",
"878 1068 OFFCURVE",
"1196 1068 CURVE SMOOTH",
"1314 1068 OFFCURVE",
"1372 1027 OFFCURVE",
"1400 958 CURVE SMOOTH",
"1415 922 OFFCURVE",
"1420 917 OFFCURVE",
"1428 961 CURVE SMOOTH",
"1438 1012 LINE SMOOTH",
"1444 1042 OFFCURVE",
"1449 1040 OFFCURVE",
"1486 1040 CURVE SMOOTH",
"1719 1040 LINE SMOOTH",
"1770 1040 OFFCURVE",
"1783 1036 OFFCURVE",
"1772 989 CURVE SMOOTH",
"1640 440 LINE SMOOTH",
"1636 414 OFFCURVE",
"1610 340 OFFCURVE",
"1676 340 CURVE SMOOTH",
"1778 340 OFFCURVE",
"1954 482 OFFCURVE",
"1954 810 CURVE SMOOTH",
"1954 1224 OFFCURVE",
"1612 1364 OFFCURVE",
"1344 1364 CURVE SMOOTH",
"956 1364 OFFCURVE",
"540 1046 OFFCURVE",
"540 482 CURVE SMOOTH",
"540 58 OFFCURVE",
"762 -218 OFFCURVE",
"1110 -218 CURVE SMOOTH",
"1284 -218 OFFCURVE",
"1446 -208 OFFCURVE",
"1612 -51 CURVE SMOOTH",
"1642 -23 OFFCURVE",
"1645 -3 OFFCURVE",
"1677 -35 CURVE SMOOTH",
"1770 -128 LINE SMOOTH",
"1791 -149 OFFCURVE",
"1788 -151 OFFCURVE",
"1768 -173 CURVE SMOOTH"
);
}
);
vertWidth = 2310;
width = 2300;
},
{
layerId = "D7E1B457-BD34-420B-BB40-96ED806E1977";
paths = (
{
closed = 1;
nodes = (
"1328 776 OFFCURVE",
"1300 956 OFFCURVE",
"1168 956 CURVE SMOOTH",
"1020 956 OFFCURVE",
"870 728 OFFCURVE",
"870 480 CURVE SMOOTH",
"870 346 OFFCURVE",
"900 244 OFFCURVE",
"1028 244 CURVE SMOOTH",
"1150 244 OFFCURVE",
"1328 436 OFFCURVE",
"1328 692 CURVE SMOOTH"
);
},
{
closed = 1;
nodes = (
"1474 -336 OFFCURVE",
"1245 -428 OFFCURVE",
"938 -428 CURVE SMOOTH",
"652 -428 OFFCURVE",
"130 -224 OFFCURVE",
"130 442 CURVE SMOOTH",
"130 1108 OFFCURVE",
"624 1580 OFFCURVE",
"1170 1580 CURVE SMOOTH",
"1716 1580 OFFCURVE",
"2010 1208 OFFCURVE",
"2010 842 CURVE SMOOTH",
"2010 522 OFFCURVE",
"1824 140 OFFCURVE",
"1482 140 CURVE SMOOTH",
"1376 140 OFFCURVE",
"1322 198 OFFCURVE",
"1289 267 CURVE SMOOTH",
"1269 309 OFFCURVE",
"1272 325 OFFCURVE",
"1223 271 CURVE SMOOTH",
"1148 188 OFFCURVE",
"1057 140 OFFCURVE",
"968 140 CURVE SMOOTH",
"810 140 OFFCURVE",
"668 251 OFFCURVE",
"668 460 CURVE SMOOTH",
"668 760 OFFCURVE",
"898 1058 OFFCURVE",
"1136 1058 CURVE SMOOTH",
"1239 1058 OFFCURVE",
"1311 1004 OFFCURVE",
"1351 912 CURVE SMOOTH",
"1379 848 OFFCURVE",
"1378 841 OFFCURVE",
"1393 905 CURVE SMOOTH",
"1417 1010 LINE SMOOTH",
"1422 1033 OFFCURVE",
"1429 1040 OFFCURVE",
"1459 1040 CURVE SMOOTH",
"1550 1040 LINE SMOOTH",
"1596 1040 OFFCURVE",
"1601 1027 OFFCURVE",
"1591 986 CURVE SMOOTH",
"1460 420 LINE SMOOTH",
"1456 394 OFFCURVE",
"1432 264 OFFCURVE",
"1526 264 CURVE SMOOTH",
"1728 264 OFFCURVE",
"1884 542 OFFCURVE",
"1884 850 CURVE SMOOTH",
"1884 1204 OFFCURVE",
"1572 1474 OFFCURVE",
"1204 1474 CURVE SMOOTH",
"716 1474 OFFCURVE",
"340 1006 OFFCURVE",
"340 462 CURVE SMOOTH",
"340 -142 OFFCURVE",
"702 -318 OFFCURVE",
"990 -318 CURVE SMOOTH",
"1185 -318 OFFCURVE",
"1385 -255 OFFCURVE",
"1557 -86 CURVE SMOOTH",
"1588 -56 OFFCURVE",
"1588 -46 OFFCURVE",
"1620 -78 CURVE SMOOTH",
"1649 -107 LINE SMOOTH",
"1674 -132 OFFCURVE",
"1664 -136 OFFCURVE",
"1640 -161 CURVE SMOOTH"
);
}
);
vertWidth = 2310;
width = 2120;
},
{
layerId = "C903388A-C428-42EA-B608-801ADA807095";
paths = (
{
closed = 1;
nodes = (
"1348 776 OFFCURVE",
"1344 836 OFFCURVE",
"1288 836 CURVE SMOOTH",
"1200 836 OFFCURVE",
"1130 608 OFFCURVE",
"1130 480 CURVE SMOOTH",
"1130 386 OFFCURVE",
"1140 364 OFFCURVE",
"1168 364 CURVE SMOOTH",
"1250 364 OFFCURVE",
"1348 536 OFFCURVE",
"1348 692 CURVE SMOOTH"
);
},
{
closed = 1;
nodes = (
"1600 -353 OFFCURVE",
"1350 -448 OFFCURVE",
"1038 -448 CURVE SMOOTH",
"672 -448 OFFCURVE",
"90 -224 OFFCURVE",
"90 442 CURVE SMOOTH",
"90 1108 OFFCURVE",
"644 1600 OFFCURVE",
"1270 1600 CURVE SMOOTH",
"1856 1600 OFFCURVE",
"2180 1248 OFFCURVE",
"2180 802 CURVE SMOOTH",
"2180 462 OFFCURVE",
"1944 126 OFFCURVE",
"1582 126 CURVE SMOOTH",
"1481 126 OFFCURVE",
"1405 172 OFFCURVE",
"1354 230 CURVE SMOOTH",
"1324 264 OFFCURVE",
"1314 272 OFFCURVE",
"1274 239 CURVE SMOOTH",
"1200 178 OFFCURVE",
"1119 130 OFFCURVE",
"1008 130 CURVE SMOOTH",
"850 130 OFFCURVE",
"708 211 OFFCURVE",
"708 420 CURVE SMOOTH",
"708 640 OFFCURVE",
"878 1068 OFFCURVE",
"1196 1068 CURVE SMOOTH",
"1314 1068 OFFCURVE",
"1372 1027 OFFCURVE",
"1400 958 CURVE SMOOTH",
"1415 922 OFFCURVE",
"1420 917 OFFCURVE",
"1428 961 CURVE SMOOTH",
"1438 1012 LINE SMOOTH",
"1444 1042 OFFCURVE",
"1449 1040 OFFCURVE",
"1486 1040 CURVE SMOOTH",
"1719 1040 LINE SMOOTH",
"1770 1040 OFFCURVE",
"1783 1036 OFFCURVE",
"1772 989 CURVE SMOOTH",
"1640 440 LINE SMOOTH",
"1636 414 OFFCURVE",
"1610 340 OFFCURVE",
"1676 340 CURVE SMOOTH",
"1778 340 OFFCURVE",
"1954 482 OFFCURVE",
"1954 810 CURVE SMOOTH",
"1954 1224 OFFCURVE",
"1612 1364 OFFCURVE",
"1344 1364 CURVE SMOOTH",
"956 1364 OFFCURVE",
"540 1046 OFFCURVE",
"540 482 CURVE SMOOTH",
"540 58 OFFCURVE",
"762 -218 OFFCURVE",
"1110 -218 CURVE SMOOTH",
"1284 -218 OFFCURVE",
"1446 -208 OFFCURVE",
"1612 -51 CURVE SMOOTH",
"1642 -23 OFFCURVE",
"1645 -3 OFFCURVE",
"1677 -35 CURVE SMOOTH",
"1770 -128 LINE SMOOTH",
"1791 -149 OFFCURVE",
"1788 -151 OFFCURVE",
"1768 -173 CURVE SMOOTH"
);
}
);
vertWidth = 2310;
width = 2300;
}
);
unicode = 0040;
},
{
glyphname = A;
layers = (
{
anchors = (
{
name = "Anchor-0";
position = "{864, 1500}";
},
{
name = "Anchor-1";
position = "{796, 0}";
},
{
name = "Anchor-2";
position = "{796, 0}";
},
{
name = "Anchor-3";
position = "{1396, 0}";
}
);
layerId = "5492647A-5722-481A-83CB-54A7AD0E630B";
paths = (
{
closed = 1;
nodes = (
"524 578 LINE SMOOTH",
"514 554 OFFCURVE",
"516 550 OFFCURVE",
"552 550 CURVE SMOOTH",
"1058 550 LINE SMOOTH",
"1119 550 OFFCURVE",
"1112 553 OFFCURVE",
"1096 596 CURVE SMOOTH",
"848 1246 LINE SMOOTH",
"833 1286 OFFCURVE",
"831 1286 OFFCURVE",
"816 1252 CURVE SMOOTH"
);
},
{
closed = 1;
nodes = (
"0 84 LINE SMOOTH",
"0 104 OFFCURVE",
"6 110 OFFCURVE",
"28 110 CURVE SMOOTH",
"154 110 LINE SMOOTH",
"196 110 OFFCURVE",
"203 122 OFFCURVE",
"215 150 CURVE SMOOTH",
"808 1500 LINE SMOOTH",
"812 1509 OFFCURVE",
"816 1510 OFFCURVE",
"829 1510 CURVE SMOOTH",
"909 1510 LINE SMOOTH",
"925 1510 OFFCURVE",
"931 1509 OFFCURVE",
"935 1498 CURVE SMOOTH",
"1478 154 LINE SMOOTH",
"1491 122 OFFCURVE",
"1488 110 OFFCURVE",
"1534 110 CURVE SMOOTH",
"1692 110 LINE SMOOTH",
"1719 110 OFFCURVE",
"1720 106 OFFCURVE",
"1720 79 CURVE SMOOTH",
"1720 35 LINE SMOOTH",
"1720 4 OFFCURVE",
"1719 0 OFFCURVE",
"1688 0 CURVE SMOOTH",
"1098 0 LINE SMOOTH",
"1072 0 OFFCURVE",
"1060 3 OFFCURVE",
"1060 32 CURVE SMOOTH",
"1060 78 LINE SMOOTH",
"1060 106 OFFCURVE",
"1070 110 OFFCURVE",
"1096 110 CURVE SMOOTH",
"1248 110 LINE SMOOTH",
"1280 110 OFFCURVE",
"1272 127 OFFCURVE",
"1265 146 CURVE SMOOTH",
"1175 386 LINE SMOOTH",
"1158 431 OFFCURVE",
"1160 440 OFFCURVE",
"1096 440 CURVE SMOOTH",
"516 440 LINE SMOOTH",
"470 440 OFFCURVE",
"462 431 OFFCURVE",
"449 400 CURVE SMOOTH",
"346 158 LINE SMOOTH",
"332 126 OFFCURVE",
"333 110 OFFCURVE",
"377 110 CURVE SMOOTH",
"528 110 LINE SMOOTH",
"552 110 OFFCURVE",
"560 105 OFFCURVE",
"560 80 CURVE SMOOTH",
"560 32 LINE SMOOTH",
"560 0 OFFCURVE",
"560 0 OFFCURVE",
"528 0 CURVE SMOOTH",
"50 0 LINE SMOOTH",
"13 0 OFFCURVE",
"0 2 OFFCURVE",
"0 42 CURVE SMOOTH"
);
}
);
vertWidth = 0;
width = 1720;
},
{
anchors = (
{
name = "Anchor-0";
position = "{704, 1500}";
},
{
name = "Anchor-1";
position = "{536, 0}";
},
{
name = "Anchor-2";
position = "{536, 0}";
},
{
name = "Anchor-3";
position = "{1076, 0}";
}
);
layerId = "7D0224F7-CECC-4B04-BE8C-3FB6AAD34500";
paths = (
{
closed = 1;
nodes = (
"518 735 LINE SMOOTH",
"511.945 703.658 OFFCURVE",
"491 670 OFFCURVE",
"545 670 CURVE SMOOTH",
"626 670 LINE SMOOTH",
"672 670 OFFCURVE",
"658.242 702.153 OFFCURVE",
"654 731 CURVE SMOOTH",
"614 1003 LINE SMOOTH",
"607.04 1050.329 OFFCURVE",
"575.205 1031.119 OFFCURVE",
"569 999 CURVE SMOOTH"
);
},
{
closed = 1;
nodes = (
"0 221 LINE SMOOTH",
"0 255 OFFCURVE",
"8 270 OFFCURVE",
"46 270 CURVE SMOOTH",
"111 270 LINE SMOOTH",
"144 270 OFFCURVE",
"142 285 OFFCURVE",
"151 307 CURVE SMOOTH",
"428 1477 LINE SMOOTH",
"441 1509 OFFCURVE",
"445 1510 OFFCURVE",
"491 1510 CURVE SMOOTH",
"891 1510 LINE SMOOTH",
"938 1510 OFFCURVE",
"944 1499 OFFCURVE",
"957 1467 CURVE SMOOTH",
"1238 331 LINE SMOOTH",
"1253 293 OFFCURVE",
"1248 270 OFFCURVE",
"1305 270 CURVE SMOOTH",
"1337 270 LINE SMOOTH",
"1372 270 OFFCURVE",
"1390 270 OFFCURVE",
"1390 231 CURVE SMOOTH",
"1390 45 LINE SMOOTH",
"1390 5 OFFCURVE",
"1384 0 OFFCURVE",
"1345 0 CURVE SMOOTH",
"651 0 LINE SMOOTH",
"611 0 OFFCURVE",
"610 9 OFFCURVE",
"610 49 CURVE SMOOTH",
"610 227 LINE SMOOTH",
"610 265 OFFCURVE",
"616 270 OFFCURVE",
"653 270 CURVE SMOOTH",
"667 270 LINE SMOOTH",
"715 270 OFFCURVE",
"720.717 278.908 OFFCURVE",
"716 319 CURVE SMOOTH",
"708 387 LINE SMOOTH",
"704.73 414.792 OFFCURVE",
"700 420 OFFCURVE",
"661 420 CURVE SMOOTH",
"514 420 LINE SMOOTH",
"475 420 OFFCURVE",
"457.15 425.169 OFFCURVE",
"452 395 CURVE SMOOTH",
"438 313 LINE SMOOTH",
"432.323 279.75 OFFCURVE",
"437 270 OFFCURVE",
"463 270 CURVE SMOOTH",
"467 270 LINE SMOOTH",
"499 270 OFFCURVE",
"500 261 OFFCURVE",
"500 229 CURVE SMOOTH",
"500 37 LINE SMOOTH",
"500 4 OFFCURVE",
"490 0 OFFCURVE",
"459 0 CURVE SMOOTH",
"66 0 LINE SMOOTH",
"10 0 OFFCURVE",
"0 1 OFFCURVE",
"0 57 CURVE SMOOTH"
);
}
);
vertWidth = 0;
width = 1390;
},
{
anchors = (
{
name = "Anchor-0";
position = "{593, 1500}";
},
{
name = "Anchor-1";
position = "{536, 0}";
},
{
name = "Anchor-2";
position = "{536, 0}";
},
{
name = "Anchor-3";
position = "{996, 0}";
}
);
layerId = "D7E1B457-BD34-420B-BB40-96ED806E1977";
paths = (
{
closed = 1;
nodes = (
"360 578 LINE SMOOTH",
"354 554 OFFCURVE",
"352 550 OFFCURVE",
"388 550 CURVE SMOOTH",
"714 550 LINE SMOOTH",
"755 550 OFFCURVE",
"763 552 OFFCURVE",
"752 596 CURVE SMOOTH",
"578 1316 LINE SMOOTH",
"568 1357 OFFCURVE",
"555 1357 OFFCURVE",
"546 1322 CURVE SMOOTH"
);
},
{
closed = 1;
nodes = (
"0 84 LINE SMOOTH",
"0 104 OFFCURVE",
"6 110 OFFCURVE",
"28 110 CURVE SMOOTH",
"54 110 LINE SMOOTH",
"96 110 OFFCURVE",
"107 121 OFFCURVE",
"115 150 CURVE SMOOTH",
"478 1500 LINE SMOOTH",
"482 1509 OFFCURVE",
"486 1510 OFFCURVE",
"499 1510 CURVE SMOOTH",
"679 1510 LINE SMOOTH",
"695 1510 OFFCURVE",
"701 1509 OFFCURVE",
"705 1498 CURVE SMOOTH",
"1068 154 LINE SMOOTH",
"1077 121 OFFCURVE",
"1078 110 OFFCURVE",
"1124 110 CURVE SMOOTH",
"1182 110 LINE SMOOTH",
"1209 110 OFFCURVE",
"1210 106 OFFCURVE",
"1210 79 CURVE SMOOTH",
"1210 35 LINE SMOOTH",
"1210 4 OFFCURVE",
"1209 0 OFFCURVE",
"1178 0 CURVE SMOOTH",
"798 0 LINE SMOOTH",
"772 0 OFFCURVE",
"760 3 OFFCURVE",
"760 32 CURVE SMOOTH",
"760 78 LINE SMOOTH",
"760 106 OFFCURVE",
"770 110 OFFCURVE",
"796 110 CURVE SMOOTH",
"858 110 LINE SMOOTH",
"880 110 OFFCURVE",
"880 127 OFFCURVE",
"875 146 CURVE SMOOTH",
"811 386 LINE SMOOTH",
"799 431 OFFCURVE",
"796 440 OFFCURVE",
"732 440 CURVE SMOOTH",
"377 440 LINE SMOOTH",
"331 440 OFFCURVE",
"318 432 OFFCURVE",
"310 400 CURVE SMOOTH",
"246 158 LINE SMOOTH",
"237 125 OFFCURVE",
"243 110 OFFCURVE",
"277 110 CURVE SMOOTH",
"328 110 LINE SMOOTH",
"352 110 OFFCURVE",
"360 105 OFFCURVE",
"360 80 CURVE SMOOTH",
"360 32 LINE SMOOTH",
"360 0 OFFCURVE",
"360 0 OFFCURVE",
"328 0 CURVE SMOOTH",
"50 0 LINE SMOOTH",
"13 0 OFFCURVE",
"0 2 OFFCURVE",
"0 42 CURVE SMOOTH"
);
}
);
vertWidth = 0;
width = 1210;
},
{
anchors = (
{
name = "Anchor-0";
position = "{964, 1500}";
},
{
name = "Anchor-1";
position = "{796, 0}";
},
{
name = "Anchor-2";
position = "{796, 0}";
},
{
name = "Anchor-3";
position = "{1486, 0}";
}
);
layerId = "C903388A-C428-42EA-B608-801ADA807095";
paths = (
{
closed = 1;
nodes = (
"712 735 LINE SMOOTH",
"699 705 OFFCURVE",
"685 670 OFFCURVE",
"739 670 CURVE SMOOTH",
"950 670 LINE SMOOTH",
"996 670 OFFCURVE",
"988 703 OFFCURVE",
"978 731 CURVE SMOOTH",
"874 1023 LINE SMOOTH",
"858 1069 OFFCURVE",
"842 1050 OFFCURVE",
"829 1019 CURVE SMOOTH"
);
},
{
closed = 1;
nodes = (
"0 221 LINE SMOOTH",
"0 255 OFFCURVE",
"8 270 OFFCURVE",
"46 270 CURVE SMOOTH",
"211 270 LINE SMOOTH",
"244 270 OFFCURVE",
"242 285 OFFCURVE",
"251 307 CURVE SMOOTH",
"758 1477 LINE SMOOTH",
"771 1509 OFFCURVE",
"775 1510 OFFCURVE",
"821 1510 CURVE SMOOTH",
"1121 1510 LINE SMOOTH",
"1168 1510 OFFCURVE",
"1174 1499 OFFCURVE",
"1187 1467 CURVE SMOOTH",
"1648 331 LINE SMOOTH",
"1663 293 OFFCURVE",
"1658 270 OFFCURVE",
"1715 270 CURVE SMOOTH",
"1847 270 LINE SMOOTH",
"1882 270 OFFCURVE",
"1900 270 OFFCURVE",
"1900 231 CURVE SMOOTH",
"1900 45 LINE SMOOTH",
"1900 5 OFFCURVE",
"1894 0 OFFCURVE",
"1855 0 CURVE SMOOTH",
"961 0 LINE SMOOTH",
"921 0 OFFCURVE",
"920 9 OFFCURVE",
"920 49 CURVE SMOOTH",
"920 227 LINE SMOOTH",
"920 265 OFFCURVE",
"926 270 OFFCURVE",
"963 270 CURVE SMOOTH",
"1077 270 LINE SMOOTH",
"1135 270 OFFCURVE",
"1140 280 OFFCURVE",
"1126 319 CURVE SMOOTH",
"1102 387 LINE SMOOTH",
"1092 414 OFFCURVE",
"1094 420 OFFCURVE",
"1055 420 CURVE SMOOTH",
"633 420 LINE SMOOTH",
"594 420 OFFCURVE",
"583 424 OFFCURVE",
"571 395 CURVE SMOOTH",
"538 313 LINE SMOOTH",
"525 281 OFFCURVE",
"527 270 OFFCURVE",
"563 270 CURVE SMOOTH",
"667 270 LINE SMOOTH",
"699 270 OFFCURVE",
"700 261 OFFCURVE",
"700 229 CURVE SMOOTH",
"700 37 LINE SMOOTH",
"700 4 OFFCURVE",
"690 0 OFFCURVE",
"659 0 CURVE SMOOTH",
"66 0 LINE SMOOTH",
"10 0 OFFCURVE",
"0 1 OFFCURVE",
"0 57 CURVE SMOOTH"
);
}
);
vertWidth = 0;
width = 1900;
}
);
leftKerningGroup = kc0_5;
rightKerningGroup = kc0_6;
unicode = 0041;
},
{
glyphname = B;
layers = (
{
anchors = (
{
name = "Anchor-0";
position = "{674, 1500}";
},
{
name = "Anchor-1";
position = "{706, 0}";
},
{
name = "Anchor-2";
position = "{706, 0}";
}
);
layerId = "5492647A-5722-481A-83CB-54A7AD0E630B";
paths = (
{
closed = 1;
nodes = (
"1047 110 OFFCURVE",
"1195 222 OFFCURVE",
"1195 420 CURVE SMOOTH",
"1195 618 OFFCURVE",
"1047 720 OFFCURVE",
"875 720 CURVE SMOOTH",
"534 720 LINE SMOOTH",
"491 720 OFFCURVE",
"485 711 OFFCURVE",
"485 666 CURVE SMOOTH",
"485 148 LINE SMOOTH",
"485 115 OFFCURVE",
"496 110 OFFCURVE",
"531 110 CURVE SMOOTH",
"875 110 LINE SMOOTH"
);
},
{
closed = 1;
nodes = (
"855 830 LINE SMOOTH",
"1007 830 OFFCURVE",
"1155 912 OFFCURVE",
"1155 1110 CURVE SMOOTH",
"1155 1308 OFFCURVE",
"1007 1390 OFFCURVE",
"855 1390 CURVE SMOOTH",
"520 1390 LINE SMOOTH",
"488 1390 OFFCURVE",
"485 1378 OFFCURVE",
"485 1345 CURVE SMOOTH",
"485 870 LINE SMOOTH",
"485 831 OFFCURVE",
"494 830 OFFCURVE",
"534 830 CURVE SMOOTH"
);
},
{
closed = 1;
nodes = (
"116 0 LINE SMOOTH",
"85 0 OFFCURVE",
"75 1 OFFCURVE",
"75 32 CURVE SMOOTH",
"75 76 LINE SMOOTH",
"75 106 OFFCURVE",
"84 110 OFFCURVE",
"112 110 CURVE SMOOTH",
"255 110 LINE SMOOTH",
"283 110 OFFCURVE",
"295 113 OFFCURVE",
"295 140 CURVE SMOOTH",
"295 1352 LINE SMOOTH",
"295 1388 OFFCURVE",
"287 1390 OFFCURVE",
"250 1390 CURVE SMOOTH",
"116 1390 LINE SMOOTH",
"82 1390 OFFCURVE",
"75 1393 OFFCURVE",
"75 1426 CURVE SMOOTH",
"75 1468 LINE SMOOTH",
"75 1495 OFFCURVE",
"83 1500 OFFCURVE",
"108 1500 CURVE SMOOTH",
"855 1500 LINE SMOOTH",
"1157 1500 OFFCURVE",
"1355 1370 OFFCURVE",
"1355 1110 CURVE SMOOTH",
"1355 937 OFFCURVE",
"1277 835 OFFCURVE",
"1128 793 CURVE SMOOTH",
"1099 785 OFFCURVE",
"1102 772 OFFCURVE",
"1126 766 CURVE SMOOTH",
"1309 718 OFFCURVE",
"1415 610 OFFCURVE",
"1415 420 CURVE SMOOTH",
"1415 120 OFFCURVE",
"1217 0 OFFCURVE",
"895 0 CURVE SMOOTH"
);
}
);
vertWidth = 0;
width = 1495;
},
{
anchors = (
{
name = "Anchor-0";
position = "{654, 1500}";
},
{
name = "Anchor-1";
position = "{686, 0}";
},
{
name = "Anchor-2";
position = "{686, 0}";
}
);
layerId = "7D0224F7-CECC-4B04-BE8C-3FB6AAD34500";
paths = (
{
closed = 1;
nodes = (
"692 270 OFFCURVE",
"720 352 OFFCURVE",
"720 470 CURVE SMOOTH",
"720 588 OFFCURVE",
"672 640 OFFCURVE",
"630 640 CURVE SMOOTH",
"601 640 LINE SMOOTH",
"575 640 OFFCURVE",
"560 624 OFFCURVE",
"560 596 CURVE SMOOTH",
"560 326 LINE SMOOTH",
"560 285 OFFCURVE",
"566 270 OFFCURVE",
"605 270 CURVE SMOOTH",
"630 270 LINE SMOOTH"
);
},
{
closed = 1;
nodes = (
"600 910 LINE SMOOTH",
"652 910 OFFCURVE",
"670 962 OFFCURVE",
"670 1080 CURVE SMOOTH",
"670 1198 OFFCURVE",
"642 1230 OFFCURVE",
"600 1230 CURVE SMOOTH",
"591 1230 LINE SMOOTH",
"560 1230 OFFCURVE",
"560 1229 OFFCURVE",
"560 1198 CURVE SMOOTH",
"560 969 LINE SMOOTH",
"560 919 OFFCURVE",
"563 910 OFFCURVE",
"587 910 CURVE SMOOTH"
);
},
{
closed = 1;
nodes = (
"57 0 LINE SMOOTH",
"11 0 OFFCURVE",
"10 19 OFFCURVE",
"10 66 CURVE SMOOTH",
"10 240 LINE SMOOTH",
"10 266 OFFCURVE",
"21 270 OFFCURVE",
"45 270 CURVE SMOOTH",
"83 270 LINE SMOOTH",
"127 270 OFFCURVE",
"130 287 OFFCURVE",
"130 332 CURVE SMOOTH",
"130 1178 LINE SMOOTH",
"130 1214 OFFCURVE",
"124 1230 OFFCURVE",
"89 1230 CURVE SMOOTH",
"53 1230 LINE SMOOTH",
"16 1230 OFFCURVE",
"10 1236 OFFCURVE",
"10 1272 CURVE SMOOTH",
"10 1448 LINE SMOOTH",
"10 1488 OFFCURVE",
"19 1500 OFFCURVE",
"57 1500 CURVE SMOOTH",
"690 1500 LINE SMOOTH",
"1002 1500 OFFCURVE",
"1150 1380 OFFCURVE",
"1150 1150 CURVE SMOOTH",
"1150 945 OFFCURVE",
"1034 859 OFFCURVE",
"905 805 CURVE SMOOTH",
"868.508 789.725 OFFCURVE",
"865.719 772.11 OFFCURVE",
"911 760 CURVE SMOOTH",
"1083 714 OFFCURVE",
"1210 623 OFFCURVE",
"1210 390 CURVE SMOOTH",
"1210 120 OFFCURVE",
"1062 0 OFFCURVE",
"730 0 CURVE SMOOTH"
);
}
);
vertWidth = 0;
width = 1210;
},
{
anchors = (
{
name = "Anchor-0";
position = "{467, 1500}";
},
{
name = "Anchor-1";
position = "{479, 0}";
},
{
name = "Anchor-2";
position = "{479, 0}";
}
);
layerId = "D7E1B457-BD34-420B-BB40-96ED806E1977";
paths = (
{
closed = 1;
nodes = (
"690 110 OFFCURVE",
"768 212 OFFCURVE",
"768 410 CURVE SMOOTH",
"768 608 OFFCURVE",
"710 720 OFFCURVE",
"528 720 CURVE SMOOTH",
"387 720 LINE SMOOTH",
"344 720 OFFCURVE",
"338 711 OFFCURVE",
"338 666 CURVE SMOOTH",
"338 148 LINE SMOOTH",
"338 115 OFFCURVE",
"349 110 OFFCURVE",
"384 110 CURVE SMOOTH",
"528 110 LINE SMOOTH"
);
},
{
closed = 1;
nodes = (
"508 830 LINE SMOOTH",
"690 830 OFFCURVE",
"738 912 OFFCURVE",
"738 1110 CURVE SMOOTH",
"738 1308 OFFCURVE",
"670 1390 OFFCURVE",
"488 1390 CURVE SMOOTH",
"373 1390 LINE SMOOTH",
"341 1390 OFFCURVE",
"338 1378 OFFCURVE",
"338 1345 CURVE SMOOTH",
"338 870 LINE SMOOTH",
"338 831 OFFCURVE",
"342 830 OFFCURVE",
"357 830 CURVE SMOOTH"
);
},
{
closed = 1;
nodes = (
"79 0 LINE SMOOTH",
"48 0 OFFCURVE",
"38 1 OFFCURVE",
"38 32 CURVE SMOOTH",
"38 76 LINE SMOOTH",
"38 106 OFFCURVE",
"47 110 OFFCURVE",
"75 110 CURVE SMOOTH",
"118 110 LINE SMOOTH",
"146 110 OFFCURVE",
"158 113 OFFCURVE",
"158 140 CURVE SMOOTH",
"158 1352 LINE SMOOTH",
"158 1388 OFFCURVE",
"150 1390 OFFCURVE",
"113 1390 CURVE SMOOTH",
"79 1390 LINE SMOOTH",
"45 1390 OFFCURVE",
"38 1393 OFFCURVE",
"38 1426 CURVE SMOOTH",
"38 1468 LINE SMOOTH",
"38 1495 OFFCURVE",
"46 1500 OFFCURVE",
"71 1500 CURVE SMOOTH",
"508 1500 LINE SMOOTH",
"760 1500 OFFCURVE",
"938 1390 OFFCURVE",
"938 1130 CURVE SMOOTH",
"938 917 OFFCURVE",
"840 835 OFFCURVE",
"741 793 CURVE SMOOTH",
"713 781 OFFCURVE",
"715 773 OFFCURVE",
"739 766 CURVE SMOOTH",
"872 728 OFFCURVE",
"978 630 OFFCURVE",
"978 390 CURVE SMOOTH",
"978 90 OFFCURVE",
"770 0 OFFCURVE",
"578 0 CURVE SMOOTH"
);
}
);
vertWidth = 0;
width = 1018;
},
{
anchors = (
{
name = "Anchor-0";
position = "{794, 1500}";
},
{
name = "Anchor-1";
position = "{826, 0}";
},
{
name = "Anchor-2";
position = "{826, 0}";
}
);
layerId = "C903388A-C428-42EA-B608-801ADA807095";
paths = (
{
closed = 1;
nodes = (
"1102 270 OFFCURVE",
"1150 352 OFFCURVE",
"1150 470 CURVE SMOOTH",
"1150 588 OFFCURVE",
"1062 640 OFFCURVE",
"930 640 CURVE SMOOTH",
"781 640 LINE SMOOTH",
"755 640 OFFCURVE",
"740 624 OFFCURVE",
"740 596 CURVE SMOOTH",
"740 326 LINE SMOOTH",
"740 285 OFFCURVE",
"746 270 OFFCURVE",
"785 270 CURVE SMOOTH",
"930 270 LINE SMOOTH"
);
},
{
closed = 1;
nodes = (
"890 910 LINE SMOOTH",
"1012 910 OFFCURVE",
"1090 962 OFFCURVE",
"1090 1080 CURVE SMOOTH",
"1090 1198 OFFCURVE",
"1032 1230 OFFCURVE",
"890 1230 CURVE SMOOTH",
"791 1230 LINE SMOOTH",
"760 1230 OFFCURVE",
"740 1229 OFFCURVE",
"740 1198 CURVE SMOOTH",
"740 969 LINE SMOOTH",
"740 919 OFFCURVE",
"748 910 OFFCURVE",
"797 910 CURVE SMOOTH"
);
},
{
closed = 1;
nodes = (
"97 0 LINE SMOOTH",
"51 0 OFFCURVE",
"50 19 OFFCURVE",
"50 66 CURVE SMOOTH",
"50 240 LINE SMOOTH",
"50 266 OFFCURVE",
"61 270 OFFCURVE",
"85 270 CURVE SMOOTH",
"223 270 LINE SMOOTH",
"267 270 OFFCURVE",
"270 287 OFFCURVE",
"270 332 CURVE SMOOTH",
"270 1178 LINE SMOOTH",
"270 1214 OFFCURVE",
"264 1230 OFFCURVE",
"229 1230 CURVE SMOOTH",
"93 1230 LINE SMOOTH",
"56 1230 OFFCURVE",
"50 1236 OFFCURVE",
"50 1272 CURVE SMOOTH",
"50 1448 LINE SMOOTH",
"50 1488 OFFCURVE",
"59 1500 OFFCURVE",
"97 1500 CURVE SMOOTH",
"910 1500 LINE SMOOTH",
"1372 1500 OFFCURVE",
"1570 1410 OFFCURVE",
"1570 1130 CURVE SMOOTH",
"1570 965 OFFCURVE",
"1474 859 OFFCURVE",
"1295 805 CURVE SMOOTH",
"1257 794 OFFCURVE",
"1255 769 OFFCURVE",
"1301 760 CURVE SMOOTH",
"1523 714 OFFCURVE",
"1650 603 OFFCURVE",
"1650 420 CURVE SMOOTH",
"1650 100 OFFCURVE",
"1452 0 OFFCURVE",
"970 0 CURVE SMOOTH"
);
}
);
vertWidth = 0;
width = 1700;
}
);
leftKerningGroup = kc0_1;
rightKerningGroup = kc0_29;
unicode = 0042;
},
{
glyphname = C;
layers = (
{
anchors = (
{
name = "Anchor-0";
position = "{866, 1500}";
},
{
name = "Anchor-1";
position = "{867, 0}";
},
{
name = "Anchor-2";
position = "{867, 0}";
}
);
layerId = "5492647A-5722-481A-83CB-54A7AD0E630B";
paths = (
{
closed = 1;
nodes = (
"110 1196 OFFCURVE",
"464 1520 OFFCURVE",
"870 1520 CURVE SMOOTH",
"1063 1520 OFFCURVE",
"1213 1439 OFFCURVE",
"1314 1333 CURVE SMOOTH",
"1334 1312 OFFCURVE",
"1342 1312 OFFCURVE",
"1353 1349 CURVE SMOOTH",
"1395 1492 LINE SMOOTH",
"1399 1506 OFFCURVE",
"1397 1510 OFFCURVE",
"1416 1510 CURVE SMOOTH",
"1470 1510 LINE SMOOTH",
"1487 1510 OFFCURVE",
"1490 1507 OFFCURVE",
"1490 1491 CURVE SMOOTH",
"1490 1016 LINE SMOOTH",
"1490 994 OFFCURVE",
"1484 990 OFFCURVE",
"1461 990 CURVE SMOOTH",
"1400 990 LINE SMOOTH",
"1374 990 OFFCURVE",
"1380 998 OFFCURVE",
"1376 1019 CURVE SMOOTH",
"1342 1213 OFFCURVE",
"1154 1404 OFFCURVE",
"880 1404 CURVE SMOOTH",
"532 1404 OFFCURVE",
"340 1114 OFFCURVE",
"340 750 CURVE SMOOTH",
"340 386 OFFCURVE",
"512 98 OFFCURVE",
"860 98 CURVE SMOOTH",
"1181 98 OFFCURVE",
"1371 335 OFFCURVE",
"1398 574 CURVE SMOOTH",
"1399 586 OFFCURVE",
"1404 590 OFFCURVE",
"1418 590 CURVE SMOOTH",
"1488 590 LINE SMOOTH",
"1502 590 OFFCURVE",
"1510 589 OFFCURVE",
"1509 576 CURVE SMOOTH",
"1484 236 OFFCURVE",
"1241 -20 OFFCURVE",
"840 -20 CURVE SMOOTH",
"414 -20 OFFCURVE",
"110 304 OFFCURVE",
"110 750 CURVE SMOOTH"
);
}
);
vertWidth = 0;
width = 1620;
},
{
anchors = (
{
name = "Anchor-0";
position = "{676.398, 1500}";
},
{
name = "Anchor-1";
position = "{677.398, 0}";
},
{
name = "Anchor-2";
position = "{677.398, 0}";
}
);
layerId = "7D0224F7-CECC-4B04-BE8C-3FB6AAD34500";
paths = (
{
closed = 1;
nodes = (
"30.398 1196 OFFCURVE",
"184.398 1540 OFFCURVE",
"580.398 1540 CURVE SMOOTH",
"720.398 1540 OFFCURVE",
"791.398 1487 OFFCURVE",
"826.398 1431 CURVE SMOOTH",
"853.641 1387.412 OFFCURVE",
"855.398 1401 OFFCURVE",
"889.398 1444 CURVE SMOOTH",
"922.398 1488 LINE SMOOTH",
"937.398 1507 OFFCURVE",
"943.398 1510 OFFCURVE",
"980.398 1510 CURVE SMOOTH",
"1120.398 1510 LINE SMOOTH",
"1169.398 1510 OFFCURVE",
"1170.398 1501 OFFCURVE",
"1170.398 1452 CURVE SMOOTH",
"1170.398 974 LINE SMOOTH",
"1170.398 936 OFFCURVE",
"1165.398 930 OFFCURVE",
"1125.398 930 CURVE SMOOTH",
"912.398 930 LINE SMOOTH",
"864.398 930 OFFCURVE",
"858.398 941 OFFCURVE",
"849.398 977 CURVE SMOOTH",
"804.398 1157 OFFCURVE",
"810.398 1284 OFFCURVE",
"700.398 1284 CURVE SMOOTH",
"592.398 1284 OFFCURVE",
"550.398 1094 OFFCURVE",
"550.398 750 CURVE SMOOTH",
"550.398 406 OFFCURVE",
"592.398 228 OFFCURVE",
"720.398 228 CURVE SMOOTH",
"806.398 228 OFFCURVE",
"850.398 338 OFFCURVE",
"890.398 522 CURVE SMOOTH",
"902.398 577 OFFCURVE",
"909.398 590 OFFCURVE",
"958.398 590 CURVE SMOOTH",
"1154.398 590 LINE SMOOTH",
"1207.398 590 OFFCURVE",
"1211.398 579 OFFCURVE",
"1206.398 542 CURVE SMOOTH",
"1164.398 202 OFFCURVE",
"1025.398 -40 OFFCURVE",
"680.398 -40 CURVE SMOOTH",
"194.398 -40 OFFCURVE",
"30.398 264 OFFCURVE",
"30.398 750 CURVE SMOOTH"
);
}
);
vertWidth = 0;
width = 1208;
},
{
anchors = (
{
name = "Anchor-0";
position = "{571, 1500}";
},
{
name = "Anchor-1";
position = "{592, 0}";
},
{
name = "Anchor-2";
position = "{592, 0}";
}
);
layerId = "D7E1B457-BD34-420B-BB40-96ED806E1977";
paths = (
{
closed = 1;
nodes = (
"55 1196 OFFCURVE",
"239 1520 OFFCURVE",
"545 1520 CURVE SMOOTH",
"738 1520 OFFCURVE",
"823 1426 OFFCURVE",
"879 1333 CURVE SMOOTH",
"887 1319 OFFCURVE",
"893 1330 OFFCURVE",
"898 1349 CURVE SMOOTH",
"940 1492 LINE SMOOTH",
"944 1506 OFFCURVE",
"942 1510 OFFCURVE",
"961 1510 CURVE SMOOTH",
"1015 1510 LINE SMOOTH",
"1032 1510 OFFCURVE",
"1035 1507 OFFCURVE",
"1035 1491 CURVE SMOOTH",
"1035 1016 LINE SMOOTH",
"1035 994 OFFCURVE",
"1029 990 OFFCURVE",
"1006 990 CURVE SMOOTH",
"945 990 LINE SMOOTH",
"919 990 OFFCURVE",
"925 998 OFFCURVE",
"921 1019 CURVE SMOOTH",
"887 1213 OFFCURVE",
"789 1404 OFFCURVE",
"615 1404 CURVE SMOOTH",
"347 1404 OFFCURVE",
"255 1114 OFFCURVE",
"255 750 CURVE SMOOTH",
"255 386 OFFCURVE",
"327 98 OFFCURVE",
"595 98 CURVE SMOOTH",
"816 98 OFFCURVE",
"916 335 OFFCURVE",
"943 574 CURVE SMOOTH",
"944 586 OFFCURVE",
"949 590 OFFCURVE",
"963 590 CURVE SMOOTH",
"1033 590 LINE SMOOTH",
"1047 590 OFFCURVE",
"1055 589 OFFCURVE",
"1054 576 CURVE SMOOTH",
"1029 236 OFFCURVE",
"886 -20 OFFCURVE",
"585 -20 CURVE SMOOTH",
"179 -20 OFFCURVE",
"55 304 OFFCURVE",
"55 750 CURVE SMOOTH"
);
}
);
vertWidth = 0;
width = 1109;
},
{
anchors = (
{
name = "Anchor-0";
position = "{916, 1500}";
},
{
name = "Anchor-1";
position = "{917, 0}";
},
{
name = "Anchor-2";
position = "{917, 0}";
}
);
layerId = "C903388A-C428-42EA-B608-801ADA807095";
paths = (
{
closed = 1;
nodes = (
"70 1196 OFFCURVE",
"424 1540 OFFCURVE",
"910 1540 CURVE SMOOTH",
"1050 1540 OFFCURVE",
"1161 1497 OFFCURVE",
"1246 1431 CURVE SMOOTH",
"1287 1400 OFFCURVE",
"1295 1401 OFFCURVE",
"1329 1444 CURVE SMOOTH",
"1362 1488 LINE SMOOTH",
"1377 1507 OFFCURVE",
"1383 1510 OFFCURVE",
"1420 1510 CURVE SMOOTH",
"1560 1510 LINE SMOOTH",
"1609 1510 OFFCURVE",
"1610 1501 OFFCURVE",
"1610 1452 CURVE SMOOTH",
"1610 974 LINE SMOOTH",
"1610 936 OFFCURVE",
"1605 930 OFFCURVE",
"1565 930 CURVE SMOOTH",
"1352 930 LINE SMOOTH",
"1304 930 OFFCURVE",
"1298 941 OFFCURVE",
"1289 977 CURVE SMOOTH",
"1244 1157 OFFCURVE",
"1150 1284 OFFCURVE",
"940 1284 CURVE SMOOTH",
"732 1284 OFFCURVE",
"590 1094 OFFCURVE",
"590 750 CURVE SMOOTH",
"590 406 OFFCURVE",
"732 228 OFFCURVE",
"960 228 CURVE SMOOTH",
"1146 228 OFFCURVE",
"1290 338 OFFCURVE",
"1330 522 CURVE SMOOTH",
"1342 577 OFFCURVE",
"1349 590 OFFCURVE",
"1398 590 CURVE SMOOTH",
"1594 590 LINE SMOOTH",
"1647 590 OFFCURVE",
"1651 579 OFFCURVE",
"1646 542 CURVE SMOOTH",
"1604 202 OFFCURVE",
"1365 -40 OFFCURVE",
"920 -40 CURVE SMOOTH",
"414 -40 OFFCURVE",
"70 264 OFFCURVE",
"70 750 CURVE SMOOTH"
);
}
);
vertWidth = 0;
width = 1702;
}
);
leftKerningGroup = kc0_3;
rightKerningGroup = kc0_2;
unicode = 0043;
},
{
glyphname = D;
layers = (
{
anchors = (
{
name = "Anchor-0";
position = "{684, 1500}";
},
{
name = "Anchor-1";
position = "{683, 0}";
},
{
name = "Anchor-2";
position = "{683, 0}";
}
);
layerId = "5492647A-5722-481A-83CB-54A7AD0E630B";
paths = (
{
closed = 1;
nodes = (
"75 72 LINE SMOOTH",
"75 104 OFFCURVE",
"79 110 OFFCURVE",
"110 110 CURVE SMOOTH",
"264 110 LINE SMOOTH",
"294 110 OFFCURVE",
"295 119 OFFCURVE",
"295 150 CURVE SMOOTH",
"295 1346 LINE SMOOTH",
"295 1380 OFFCURVE",
"294 1390 OFFCURVE",
"260 1390 CURVE SMOOTH",
"132 1390 LINE SMOOTH",
"90 1390 OFFCURVE",
"75 1391 OFFCURVE",
"75 1426 CURVE SMOOTH",
"75 1471 LINE SMOOTH",
"75 1496 OFFCURVE",
"99 1500 OFFCURVE",
"130 1500 CURVE SMOOTH",
"815 1500 LINE SMOOTH",
"1261 1500 OFFCURVE",
"1535 1176 OFFCURVE",
"1535 750 CURVE SMOOTH",
"1535 324 OFFCURVE",
"1241 0 OFFCURVE",
"815 0 CURVE SMOOTH",
"110 0 LINE SMOOTH",
"80 0 OFFCURVE",
"75 6 OFFCURVE",
"75 34 CURVE SMOOTH"
);
},
{
closed = 1;
nodes = (
"815 110 LINE SMOOTH",
"1183 110 OFFCURVE",
"1305 386 OFFCURVE",
"1305 750 CURVE SMOOTH",
"1305 1114 OFFCURVE",
"1163 1390 OFFCURVE",
"815 1390 CURVE SMOOTH",
"528 1390 LINE SMOOTH",
"491 1390 OFFCURVE",
"485 1385 OFFCURVE",
"485 1346 CURVE SMOOTH",
"485 144 LINE SMOOTH",
"485 112 OFFCURVE",
"493 110 OFFCURVE",
"526 110 CURVE SMOOTH"
);
}
);
vertWidth = 0;
width = 1645;
},
{
anchors = (
{
name = "Anchor-0";
position = "{694, 1500}";
},
{
name = "Anchor-1";
position = "{693, 0}";
},
{
name = "Anchor-2";
position = "{693, 0}";
}
);
layerId = "7D0224F7-CECC-4B04-BE8C-3FB6AAD34500";
paths = (
{
closed = 1;
nodes = (
"10 230 LINE SMOOTH",
"10 263 OFFCURVE",
"18 270 OFFCURVE",
"49 270 CURVE SMOOTH",
"93 270 LINE SMOOTH",
"129 270 OFFCURVE",
"130 279 OFFCURVE",
"130 316 CURVE SMOOTH",
"130 1179 LINE SMOOTH",
"130 1222 OFFCURVE",
"124 1230 OFFCURVE",
"83 1230 CURVE SMOOTH",
"59 1230 LINE SMOOTH",
"15 1230 OFFCURVE",
"10 1236 OFFCURVE",
"10 1278 CURVE SMOOTH",
"10 1447 LINE SMOOTH",
"10 1492 OFFCURVE",
"20 1500 OFFCURVE",
"63 1500 CURVE SMOOTH",
"670 1500 LINE SMOOTH",
"1216 1500 OFFCURVE",
"1300 1176 OFFCURVE",
"1300 750 CURVE SMOOTH",
"1300 324 OFFCURVE",
"1196 0 OFFCURVE",
"670 0 CURVE SMOOTH",
"58 0 LINE SMOOTH",
"25 0 OFFCURVE",
"10 1 OFFCURVE",
"10 34 CURVE SMOOTH"
);
},
{
closed = 1;
nodes = (
"650 270 LINE SMOOTH",
"778 270 OFFCURVE",
"810 426 OFFCURVE",
"810 750 CURVE SMOOTH",
"810 1074 OFFCURVE",
"758 1230 OFFCURVE",
"650 1230 CURVE SMOOTH",
"639 1230 LINE SMOOTH",
"612 1230 OFFCURVE",
"600 1222 OFFCURVE",
"600 1174 CURVE SMOOTH",
"600 316 LINE SMOOTH",
"600 272 OFFCURVE",
"603 270 OFFCURVE",
"648 270 CURVE SMOOTH"
);
}
);
vertWidth = 0;
width = 1320;
},
{
anchors = (
{
name = "Anchor-0";
position = "{548, 1500}";
},
{
name = "Anchor-1";
position = "{547, 0}";
},
{
name = "Anchor-2";
position = "{547, 0}";
}
);
layerId = "D7E1B457-BD34-420B-BB40-96ED806E1977";
paths = (
{
closed = 1;
nodes = (
"39 72 LINE SMOOTH",
"39 104 OFFCURVE",
"43 110 OFFCURVE",
"74 110 CURVE SMOOTH",
"128 110 LINE SMOOTH",
"158 110 OFFCURVE",
"159 119 OFFCURVE",
"159 150 CURVE SMOOTH",
"159 1346 LINE SMOOTH",
"159 1380 OFFCURVE",
"158 1390 OFFCURVE",
"124 1390 CURVE SMOOTH",
"96 1390 LINE SMOOTH",
"54 1390 OFFCURVE",
"39 1391 OFFCURVE",
"39 1426 CURVE SMOOTH",
"39 1471 LINE SMOOTH",
"39 1496 OFFCURVE",
"63 1500 OFFCURVE",
"94 1500 CURVE SMOOTH",
"579 1500 LINE SMOOTH",
"905 1500 OFFCURVE",
"1069 1176 OFFCURVE",
"1069 750 CURVE SMOOTH",
"1069 324 OFFCURVE",
"885 0 OFFCURVE",
"579 0 CURVE SMOOTH",
"74 0 LINE SMOOTH",
"44 0 OFFCURVE",
"39 6 OFFCURVE",
"39 34 CURVE SMOOTH"
);
},
{
closed = 1;
nodes = (
"499 110 LINE SMOOTH",
"767 110 OFFCURVE",
"869 296 OFFCURVE",
"869 750 CURVE SMOOTH",
"869 1214 OFFCURVE",
"747 1390 OFFCURVE",
"499 1390 CURVE SMOOTH",
"372 1390 LINE SMOOTH",
"355 1390 OFFCURVE",
"339 1385 OFFCURVE",
"339 1346 CURVE SMOOTH",
"339 144 LINE SMOOTH",
"339 112 OFFCURVE",
"337 110 OFFCURVE",
"370 110 CURVE SMOOTH"
);
}
);
vertWidth = 0;
width = 1124;
},
{
anchors = (
{
name = "Anchor-0";
position = "{934, 1500}";
},
{
name = "Anchor-1";
position = "{933, 0}";
},
{
name = "Anchor-2";
position = "{933, 0}";
}
);
layerId = "C903388A-C428-42EA-B608-801ADA807095";
paths = (
{
closed = 1;
nodes = (
"50 230 LINE SMOOTH",
"50 263 OFFCURVE",
"58 270 OFFCURVE",
"89 270 CURVE SMOOTH",
"233 270 LINE SMOOTH",
"269 270 OFFCURVE",
"270 279 OFFCURVE",
"270 316 CURVE SMOOTH",
"270 1179 LINE SMOOTH",
"270 1222 OFFCURVE",
"264 1230 OFFCURVE",
"223 1230 CURVE SMOOTH",
"99 1230 LINE SMOOTH",
"55 1230 OFFCURVE",
"50 1236 OFFCURVE",
"50 1278 CURVE SMOOTH",
"50 1447 LINE SMOOTH",
"50 1492 OFFCURVE",
"60 1500 OFFCURVE",
"103 1500 CURVE SMOOTH",
"910 1500 LINE SMOOTH",
"1576 1500 OFFCURVE",
"1770 1176 OFFCURVE",
"1770 750 CURVE SMOOTH",
"1770 324 OFFCURVE",
"1556 0 OFFCURVE",
"910 0 CURVE SMOOTH",
"98 0 LINE SMOOTH",
"65 0 OFFCURVE",
"50 1 OFFCURVE",
"50 34 CURVE SMOOTH"
);
},
{
closed = 1;
nodes = (
"890 270 LINE SMOOTH",
"1118 270 OFFCURVE",
"1250 426 OFFCURVE",
"1250 750 CURVE SMOOTH",
"1250 1074 OFFCURVE",
"1098 1230 OFFCURVE",
"890 1230 CURVE SMOOTH",
"799 1230 LINE SMOOTH",
"752 1230 OFFCURVE",
"740 1222 OFFCURVE",
"740 1174 CURVE SMOOTH",
"740 316 LINE SMOOTH",
"740 272 OFFCURVE",
"753 270 OFFCURVE",
"798 270 CURVE SMOOTH"
);
}
);
vertWidth = 0;
width = 1840;
}
);
leftKerningGroup = kc0_1;
rightKerningGroup = kc0_3;
unicode = 0044;
},
{
glyphname = E;
layers = (
{
anchors = (
{
name = "Anchor-0";
position = "{794, 1500}";
},
{
name = "Anchor-1";
position = "{766, 0}";
},
{
name = "Anchor-2";
position = "{766, 0}";
},
{
name = "Anchor-3";
position = "{1206, 0}";
}
);
layerId = "5492647A-5722-481A-83CB-54A7AD0E630B";
paths = (
{
closed = 1;
nodes = (
"111 1390 LINE SMOOTH",
"78 1390 OFFCURVE",
"75 1401 OFFCURVE",
"75 1432 CURVE SMOOTH",
"75 1462 LINE SMOOTH",
"75 1493 OFFCURVE",
"79 1500 OFFCURVE",
"109 1500 CURVE SMOOTH",
"1311 1500 LINE SMOOTH",
"1357 1500 OFFCURVE",
"1365 1498 OFFCURVE",
"1365 1452 CURVE SMOOTH",
"1365 1070 LINE SMOOTH",
"1365 1038 OFFCURVE",
"1371 1030 OFFCURVE",
"1337 1030 CURVE SMOOTH",
"1297 1030 LINE SMOOTH",
"1268 1030 OFFCURVE",
"1266 1042 OFFCURVE",
"1265 1068 CURVE SMOOTH",
"1259 1312 OFFCURVE",
"1188 1390 OFFCURVE",
"965 1390 CURVE SMOOTH",
"529 1390 LINE SMOOTH",
"493 1390 OFFCURVE",
"485 1384 OFFCURVE",
"485 1346 CURVE SMOOTH",
"485 860 LINE SMOOTH",
"485 831 OFFCURVE",
"487 816 OFFCURVE",
"519 816 CURVE SMOOTH",
"655 816 LINE SMOOTH",
"815 816 OFFCURVE",
"884 897 OFFCURVE",
"894 1014 CURVE SMOOTH",
"896 1041 OFFCURVE",
"901 1046 OFFCURVE",
"921 1046 CURVE SMOOTH",
"954 1046 LINE SMOOTH",
"976 1046 OFFCURVE",
"985 1039 OFFCURVE",
"985 1016 CURVE SMOOTH",
"985 536 LINE SMOOTH",
"985 504 OFFCURVE",
"982 496 OFFCURVE",
"953 496 CURVE SMOOTH",
"920 496 LINE SMOOTH",
"908 496 OFFCURVE",
"896 499 OFFCURVE",
"893 530 CURVE SMOOTH",
"882 647 OFFCURVE",
"814 736 OFFCURVE",
"655 736 CURVE SMOOTH",
"523 736 LINE SMOOTH",
"488 736 OFFCURVE",
"485 728 OFFCURVE",
"485 692 CURVE SMOOTH",
"485 154 LINE SMOOTH",
"485 117 OFFCURVE",
"490 110 OFFCURVE",
"529 110 CURVE SMOOTH",
"945 110 LINE SMOOTH",
"1209 110 OFFCURVE",
"1280 190 OFFCURVE",
"1285 478 CURVE SMOOTH",
"1285 504 OFFCURVE",
"1291 510 OFFCURVE",
"1309 510 CURVE SMOOTH",
"1347 510 LINE SMOOTH",
"1372 510 OFFCURVE",
"1385 507 OFFCURVE",
"1385 480 CURVE SMOOTH",
"1385 34 LINE SMOOTH",
"1385 6 OFFCURVE",
"1380 0 OFFCURVE",
"1353 0 CURVE SMOOTH",
"115 0 LINE SMOOTH",
"85 0 OFFCURVE",
"75 4 OFFCURVE",
"75 36 CURVE SMOOTH",
"75 82 LINE SMOOTH",
"75 109 OFFCURVE",
"84 110 OFFCURVE",
"111 110 CURVE SMOOTH",
"241 110 LINE SMOOTH",
"290 110 OFFCURVE",
"295 116 OFFCURVE",
"295 166 CURVE SMOOTH",
"295 1348 LINE SMOOTH",
"295 1389 OFFCURVE",
"287 1390 OFFCURVE",
"246 1390 CURVE SMOOTH"
);
}
);
vertWidth = 0;
width = 1515;
},
{
anchors = (
{
name = "Anchor-0";
position = "{703.835, 1500}";
},
{
name = "Anchor-1";
position = "{675.835, 0}";
},
{
name = "Anchor-2";
position = "{675.835, 0}";
},
{
name = "Anchor-3";
position = "{985.835, 50}";
}
);
layerId = "7D0224F7-CECC-4B04-BE8C-3FB6AAD34500";
paths = (
{
closed = 1;
nodes = (
"55.835 1230 LINE SMOOTH",
"13.835 1230 OFFCURVE",
"9.835 1238 OFFCURVE",
"9.835 1278 CURVE SMOOTH",
"9.835 1454 LINE SMOOTH",
"9.835 1499 OFFCURVE",
"23.835 1500 OFFCURVE",
"65.835 1500 CURVE SMOOTH",
"1097.835 1500 LINE SMOOTH",
"1136.835 1500 OFFCURVE",
"1139.835 1489 OFFCURVE",
"1139.835 1452 CURVE SMOOTH",
"1139.835 948 LINE SMOOTH",
"1139.835 910 OFFCURVE",
"1139.835 910 OFFCURVE",
"1101.835 910 CURVE SMOOTH",
"941.835 910 LINE SMOOTH",
"911.835 910 OFFCURVE",
"909.835 924 OFFCURVE",
"908.835 950 CURVE SMOOTH",
"902.835 1154 OFFCURVE",
"869.835 1230 OFFCURVE",
"699.835 1230 CURVE SMOOTH",
"657.835 1230 LINE SMOOTH",
"618.835 1230 OFFCURVE",
"599.835 1226 OFFCURVE",
"599.835 1183 CURVE SMOOTH",
"599.835 918 LINE SMOOTH",
"599.835 870 OFFCURVE",
"605.835 860 OFFCURVE",
"617.835 860 CURVE SMOOTH",
"618.835 860 LINE SMOOTH",
"641.835 860 OFFCURVE",
"659.835 945 OFFCURVE",
"665.835 1038 CURVE SMOOTH",
"667.856 1069.336 OFFCURVE",
"672.835 1086 OFFCURVE",
"700.835 1086 CURVE SMOOTH",
"811.835 1086 LINE SMOOTH",
"854.835 1086 OFFCURVE",
"859.835 1080 OFFCURVE",
"859.835 1038 CURVE SMOOTH",
"859.835 458 LINE SMOOTH",
"859.835 423 OFFCURVE",
"854.835 416 OFFCURVE",
"817.835 416 CURVE SMOOTH",
"709.835 416 LINE SMOOTH",
"668.835 416 OFFCURVE",
"667.042 434.531 OFFCURVE",
"664.835 468 CURVE SMOOTH",
"658.835 559 OFFCURVE",
"648.835 650 OFFCURVE",
"621.835 650 CURVE SMOOTH",
"620.835 650 LINE SMOOTH",
"603.835 650 OFFCURVE",
"599.835 633 OFFCURVE",
"599.835 592 CURVE SMOOTH",
"599.835 310 LINE SMOOTH",
"599.835 263 OFFCURVE",
"608.835 270 OFFCURVE",
"653.835 270 CURVE SMOOTH",
"679.835 270 LINE SMOOTH",
"883.835 270 OFFCURVE",
"921.835 361 OFFCURVE",
"928.835 592 CURVE SMOOTH",
"930.835 643 OFFCURVE",
"924.835 650 OFFCURVE",
"979.835 650 CURVE SMOOTH",
"1119.835 650 LINE SMOOTH",
"1164.835 650 OFFCURVE",
"1159.835 644 OFFCURVE",
"1159.835 600 CURVE SMOOTH",
"1159.835 40 LINE SMOOTH",
"1159.835 -2 OFFCURVE",
"1157.835 0 OFFCURVE",
"1115.835 0 CURVE SMOOTH",
"59.835 0 LINE SMOOTH",
"19.835 0 OFFCURVE",
"9.835 -7 OFFCURVE",
"9.835 36 CURVE SMOOTH",
"9.835 238 LINE SMOOTH",
"9.835 272 OFFCURVE",
"12.835 270 OFFCURVE",
"45.835 270 CURVE SMOOTH",
"85.835 270 LINE SMOOTH",
"128.835 270 OFFCURVE",
"129.835 269 OFFCURVE",
"129.835 312 CURVE SMOOTH",
"129.835 1192 LINE SMOOTH",
"129.835 1227 OFFCURVE",
"121.835 1230 OFFCURVE",
"85.835 1230 CURVE SMOOTH"
);
}
);
vertWidth = 0;
width = 1170;
},
{
anchors = (
{
name = "Anchor-0";
position = "{527, 1500}";
},
{
name = "Anchor-1";
position = "{559, 0}";
},
{
name = "Anchor-2";
position = "{559, 0}";
},
{
name = "Anchor-3";
position = "{869, 50}";
}
);
layerId = "D7E1B457-BD34-420B-BB40-96ED806E1977";
paths = (
{
closed = 1;
nodes = (
"74 1390 LINE SMOOTH",
"41 1390 OFFCURVE",
"38 1401 OFFCURVE",
"38 1432 CURVE SMOOTH",
"38 1462 LINE SMOOTH",
"38 1493 OFFCURVE",
"42 1500 OFFCURVE",
"72 1500 CURVE SMOOTH",
"874 1500 LINE SMOOTH",
"920 1500 OFFCURVE",
"928 1498 OFFCURVE",
"928 1452 CURVE SMOOTH",
"928 1070 LINE SMOOTH",
"928 1038 OFFCURVE",
"934 1030 OFFCURVE",
"900 1030 CURVE SMOOTH",
"890 1030 LINE SMOOTH",
"861 1030 OFFCURVE",
"859 1042 OFFCURVE",
"858 1068 CURVE SMOOTH",
"852 1312 OFFCURVE",
"701 1390 OFFCURVE",
"528 1390 CURVE SMOOTH",
"392 1390 LINE SMOOTH",
"356 1390 OFFCURVE",
"348 1384 OFFCURVE",
"348 1346 CURVE SMOOTH",
"348 860 LINE SMOOTH",
"348 831 OFFCURVE",
"350 816 OFFCURVE",
"362 816 CURVE SMOOTH",
"434 816 LINE SMOOTH",
"544 816 OFFCURVE",
"597 897 OFFCURVE",
"597 1014 CURVE SMOOTH",
"596 1041 OFFCURVE",
"604 1046 OFFCURVE",
"624 1046 CURVE SMOOTH",
"657 1046 LINE SMOOTH",
"679 1046 OFFCURVE",
"688 1039 OFFCURVE",
"688 1016 CURVE SMOOTH",
"688 536 LINE SMOOTH",
"688 504 OFFCURVE",
"685 496 OFFCURVE",
"656 496 CURVE SMOOTH",
"623 496 LINE SMOOTH",
"611 496 OFFCURVE",
"595 499 OFFCURVE",
"596 530 CURVE SMOOTH",
"595 647 OFFCURVE",
"567 736 OFFCURVE",
"428 736 CURVE SMOOTH",
"381 736 LINE SMOOTH",
"356 736 OFFCURVE",
"348 728 OFFCURVE",
"348 692 CURVE SMOOTH",
"348 154 LINE SMOOTH",
"348 117 OFFCURVE",
"353 110 OFFCURVE",
"392 110 CURVE SMOOTH",
"508 110 LINE SMOOTH",
"722 110 OFFCURVE",
"873 190 OFFCURVE",
"878 478 CURVE SMOOTH",
"878 504 OFFCURVE",
"884 510 OFFCURVE",
"902 510 CURVE SMOOTH",
"910 510 LINE SMOOTH",
"935 510 OFFCURVE",
"948 507 OFFCURVE",
"948 480 CURVE SMOOTH",
"948 34 LINE SMOOTH",
"948 6 OFFCURVE",
"943 0 OFFCURVE",
"916 0 CURVE SMOOTH",
"78 0 LINE SMOOTH",
"48 0 OFFCURVE",
"38 4 OFFCURVE",
"38 36 CURVE SMOOTH",
"38 82 LINE SMOOTH",
"38 109 OFFCURVE",
"47 110 OFFCURVE",
"74 110 CURVE SMOOTH",
"104 110 LINE SMOOTH",
"153 110 OFFCURVE",
"158 116 OFFCURVE",
"158 166 CURVE SMOOTH",
"158 1348 LINE SMOOTH",
"158 1389 OFFCURVE",
"150 1390 OFFCURVE",
"109 1390 CURVE SMOOTH"
);
}
);
vertWidth = 0;
width = 1013;
},
{
anchors = (
{
name = "Anchor-0";
position = "{844, 1500}";
},
{
name = "Anchor-1";
position = "{816, 0}";
},
{
name = "Anchor-2";
position = "{816, 0}";
},
{
name = "Anchor-3";
position = "{1426, 50}";
}
);
layerId = "C903388A-C428-42EA-B608-801ADA807095";
paths = (
{
closed = 1;
nodes = (
"96 1230 LINE SMOOTH",
"54 1230 OFFCURVE",
"50 1238 OFFCURVE",
"50 1278 CURVE SMOOTH",
"50 1454 LINE SMOOTH",
"50 1499 OFFCURVE",
"64 1500 OFFCURVE",
"106 1500 CURVE SMOOTH",
"1538 1500 LINE SMOOTH",
"1577 1500 OFFCURVE",
"1580 1489 OFFCURVE",
"1580 1452 CURVE SMOOTH",
"1580 948 LINE SMOOTH",
"1580 910 OFFCURVE",
"1580 910 OFFCURVE",
"1542 910 CURVE SMOOTH",
"1352 910 LINE SMOOTH",
"1322 910 OFFCURVE",
"1320 924 OFFCURVE",
"1319 950 CURVE SMOOTH",
"1313 1154 OFFCURVE",
"1260 1230 OFFCURVE",
"1040 1230 CURVE SMOOTH",
"798 1230 LINE SMOOTH",
"759 1230 OFFCURVE",
"740 1226 OFFCURVE",
"740 1183 CURVE SMOOTH",
"740 918 LINE SMOOTH",
"740 870 OFFCURVE",
"746 860 OFFCURVE",
"778 860 CURVE SMOOTH",
"783 860 LINE SMOOTH",
"886 860 OFFCURVE",
"950 945 OFFCURVE",
"966 1038 CURVE SMOOTH",
"971 1069 OFFCURVE",
"973 1086 OFFCURVE",
"1001 1086 CURVE SMOOTH",
"1112 1086 LINE SMOOTH",
"1155 1086 OFFCURVE",
"1160 1080 OFFCURVE",
"1160 1038 CURVE SMOOTH",
"1160 458 LINE SMOOTH",
"1160 423 OFFCURVE",
"1155 416 OFFCURVE",
"1118 416 CURVE SMOOTH",
"1010 416 LINE SMOOTH",
"969 416 OFFCURVE",
"971 435 OFFCURVE",
"965 468 CURVE SMOOTH",
"949 559 OFFCURVE",
"869 650 OFFCURVE",
"792 650 CURVE SMOOTH",
"786 650 LINE SMOOTH",
"759 650 OFFCURVE",
"740 633 OFFCURVE",
"740 592 CURVE SMOOTH",
"740 310 LINE SMOOTH",
"740 263 OFFCURVE",
"749 270 OFFCURVE",
"794 270 CURVE SMOOTH",
"1020 270 LINE SMOOTH",
"1274 270 OFFCURVE",
"1332 361 OFFCURVE",
"1339 592 CURVE SMOOTH",
"1341 643 OFFCURVE",
"1335 650 OFFCURVE",
"1390 650 CURVE SMOOTH",
"1560 650 LINE SMOOTH",
"1605 650 OFFCURVE",
"1600 644 OFFCURVE",
"1600 600 CURVE SMOOTH",
"1600 40 LINE SMOOTH",
"1600 -2 OFFCURVE",
"1598 0 OFFCURVE",
"1556 0 CURVE SMOOTH",
"100 0 LINE SMOOTH",
"60 0 OFFCURVE",
"50 -7 OFFCURVE",
"50 36 CURVE SMOOTH",
"50 238 LINE SMOOTH",
"50 272 OFFCURVE",
"53 270 OFFCURVE",
"86 270 CURVE SMOOTH",
"226 270 LINE SMOOTH",
"269 270 OFFCURVE",
"270 269 OFFCURVE",
"270 312 CURVE SMOOTH",
"270 1192 LINE SMOOTH",
"270 1227 OFFCURVE",
"262 1230 OFFCURVE",
"226 1230 CURVE SMOOTH"
);
}
);
vertWidth = 0;
width = 1679;
}
);
leftKerningGroup = kc0_1;
rightKerningGroup = kc0_2;
unicode = 0045;
},
{
glyphname = F;
layers = (
{
anchors = (
{
name = "Anchor-0";
position = "{764, 1500}";
},
{
name = "Anchor-1";
position = "{396, 0}";
},
{
name = "Anchor-2";
position = "{396, 0}";
}
);
layerId = "5492647A-5722-481A-83CB-54A7AD0E630B";
paths = (
{
closed = 1;
nodes = (
"99 1390 LINE SMOOTH",
"80 1390 OFFCURVE",
"75 1392 OFFCURVE",
"75 1412 CURVE SMOOTH",
"75 1481 LINE SMOOTH",
"75 1495 OFFCURVE",
"76 1500 OFFCURVE",
"90 1500 CURVE SMOOTH",
"1321 1500 LINE SMOOTH",
"1342 1500 OFFCURVE",
"1345 1493 OFFCURVE",
"1345 1471 CURVE SMOOTH",
"1345 1050 LINE SMOOTH",
"1345 1031 OFFCURVE",
"1336 1030 OFFCURVE",
"1317 1030 CURVE SMOOTH",
"1265 1030 LINE SMOOTH",
"1245 1030 OFFCURVE",
"1245 1035 OFFCURVE",
"1245 1054 CURVE SMOOTH",
"1242 1313 OFFCURVE",
"1174 1390 OFFCURVE",
"945 1390 CURVE SMOOTH",
"519 1390 LINE SMOOTH",
"494 1390 OFFCURVE",
"485 1376 OFFCURVE",
"485 1353 CURVE SMOOTH",
"485 836 LINE SMOOTH",
"485 802 OFFCURVE",
"491 796 OFFCURVE",
"524 796 CURVE SMOOTH",
"675 796 LINE SMOOTH",
"830 796 OFFCURVE",
"900 856 OFFCURVE",
"913 964 CURVE SMOOTH",
"916 992 OFFCURVE",
"906 1006 OFFCURVE",
"940 1006 CURVE SMOOTH",
"974 1006 LINE SMOOTH",
"997 1006 OFFCURVE",
"1005 1004 OFFCURVE",
"1005 982 CURVE SMOOTH",
"1005 503 LINE SMOOTH",
"1005 485 OFFCURVE",
"1004 476 OFFCURVE",
"986 476 CURVE SMOOTH",
"934 476 LINE SMOOTH",
"915 476 OFFCURVE",
"916 481 OFFCURVE",
"915 499 CURVE SMOOTH",
"909 623 OFFCURVE",
"841 696 OFFCURVE",
"675 696 CURVE SMOOTH",
"515 696 LINE SMOOTH",
"487 696 OFFCURVE",
"485 688 OFFCURVE",
"485 659 CURVE SMOOTH",
"485 150 LINE SMOOTH",
"485 118 OFFCURVE",
"489 110 OFFCURVE",
"523 110 CURVE SMOOTH",
"697 110 LINE SMOOTH",
"716 110 OFFCURVE",
"725 109 OFFCURVE",
"725 90 CURVE SMOOTH",
"725 30 LINE SMOOTH",
"725 4 OFFCURVE",
"716 0 OFFCURVE",
"692 0 CURVE SMOOTH",
"100 0 LINE SMOOTH",
"80 0 OFFCURVE",
"75 0 OFFCURVE",
"75 20 CURVE SMOOTH",
"75 92 LINE SMOOTH",
"75 109 OFFCURVE",
"84 110 OFFCURVE",
"102 110 CURVE SMOOTH",
"268 110 LINE SMOOTH",
"290 110 OFFCURVE",
"295 117 OFFCURVE",
"295 140 CURVE SMOOTH",
"295 1360 LINE SMOOTH",
"295 1387 OFFCURVE",
"292 1390 OFFCURVE",
"266 1390 CURVE SMOOTH"
);
}
);
vertWidth = 0;
width = 1445;
},
{
anchors = (
{
name = "Anchor-0";
position = "{684, 1500}";
},
{
name = "Anchor-1";
position = "{376, 0}";
},
{
name = "Anchor-2";
position = "{376, 0}";
}
);
layerId = "7D0224F7-CECC-4B04-BE8C-3FB6AAD34500";
paths = (
{
closed = 1;
nodes = (
"35 1230 LINE SMOOTH",
"12 1230 OFFCURVE",
"10 1238 OFFCURVE",
"10 1262 CURVE SMOOTH",
"10 1474 LINE SMOOTH",
"10 1499 OFFCURVE",
"19 1500 OFFCURVE",
"44 1500 CURVE SMOOTH",
"1104 1500 LINE SMOOTH",
"1136 1500 OFFCURVE",
"1140 1493 OFFCURVE",
"1140 1460 CURVE SMOOTH",
"1140 921 LINE SMOOTH",
"1140 893 OFFCURVE",
"1133 890 OFFCURVE",
"1104 890 CURVE SMOOTH",
"956 890 LINE SMOOTH",
"920 890 OFFCURVE",
"911 890 OFFCURVE",
"910 925 CURVE SMOOTH",
"905 1135 OFFCURVE",
"902 1230 OFFCURVE",
"680 1230 CURVE SMOOTH",
"642 1230 LINE SMOOTH",
"610 1230 OFFCURVE",
"600 1229 OFFCURVE",
"600 1197 CURVE SMOOTH",
"600 851 LINE SMOOTH",
"600 841 OFFCURVE",
"603 837 OFFCURVE",
"609 837 CURVE SMOOTH",
"611 837 LINE SMOOTH",
"654 837 OFFCURVE",
"661 929 OFFCURVE",
"669 1049 CURVE SMOOTH",
"670 1064 OFFCURVE",
"678 1066 OFFCURVE",
"694 1066 CURVE SMOOTH",
"837 1066 LINE SMOOTH",
"858 1066 OFFCURVE",
"860 1058 OFFCURVE",
"860 1036 CURVE SMOOTH",
"860 406 LINE SMOOTH",
"860 382 OFFCURVE",
"854 376 OFFCURVE",
"828 376 CURVE SMOOTH",
"708 376 LINE SMOOTH",
"679 376 OFFCURVE",
"672 377 OFFCURVE",
"669 403 CURVE SMOOTH",
"657 521 OFFCURVE",
"646 615 OFFCURVE",
"614 615 CURVE SMOOTH",
"613 615 LINE SMOOTH",
"601 615 OFFCURVE",
"600 607 OFFCURVE",
"600 603 CURVE SMOOTH",
"600 317 LINE SMOOTH",
"600 277 OFFCURVE",
"605 270 OFFCURVE",
"647 270 CURVE SMOOTH",
"723 270 LINE SMOOTH",
"760 270 OFFCURVE",
"760 270 OFFCURVE",
"760 233 CURVE SMOOTH",
"760 47 LINE SMOOTH",
"760 5 OFFCURVE",
"754 0 OFFCURVE",
"713 0 CURVE SMOOTH",
"51 0 LINE SMOOTH",
"18 0 OFFCURVE",
"10 3 OFFCURVE",
"10 35 CURVE SMOOTH",
"10 241 LINE SMOOTH",
"10 269 OFFCURVE",
"19 270 OFFCURVE",
"48 270 CURVE SMOOTH",
"87 270 LINE SMOOTH",
"127 270 OFFCURVE",
"130 277 OFFCURVE",
"130 318 CURVE SMOOTH",
"130 1195 LINE SMOOTH",
"130 1225 OFFCURVE",
"122 1230 OFFCURVE",
"94 1230 CURVE SMOOTH"
);
}
);
vertWidth = 0;
width = 1150;
},
{
anchors = (
{
name = "Anchor-0";
position = "{527, 1500}";
},
{
name = "Anchor-1";
position = "{249, 0}";
},
{
name = "Anchor-2";
position = "{249, 0}";
}
);
layerId = "D7E1B457-BD34-420B-BB40-96ED806E1977";
paths = (
{
closed = 1;
nodes = (
"62 1390 LINE SMOOTH",
"43 1390 OFFCURVE",
"38 1392 OFFCURVE",
"38 1412 CURVE SMOOTH",
"38 1481 LINE SMOOTH",
"38 1495 OFFCURVE",
"39 1500 OFFCURVE",
"53 1500 CURVE SMOOTH",
"904 1500 LINE SMOOTH",
"925 1500 OFFCURVE",
"928 1493 OFFCURVE",
"928 1471 CURVE SMOOTH",
"928 1050 LINE SMOOTH",
"928 1031 OFFCURVE",
"919 1030 OFFCURVE",
"900 1030 CURVE SMOOTH",
"878 1030 LINE SMOOTH",
"858 1030 OFFCURVE",
"858 1035 OFFCURVE",
"858 1054 CURVE SMOOTH",
"855 1313 OFFCURVE",
"737 1390 OFFCURVE",
"508 1390 CURVE SMOOTH",
"382 1390 LINE SMOOTH",
"357 1390 OFFCURVE",
"348 1376 OFFCURVE",
"348 1353 CURVE SMOOTH",
"348 836 LINE SMOOTH",
"348 802 OFFCURVE",
"354 796 OFFCURVE",
"387 796 CURVE SMOOTH",
"478 796 LINE SMOOTH",
"573 796 OFFCURVE",
"623 856 OFFCURVE",
"636 964 CURVE SMOOTH",
"639 992 OFFCURVE",
"639 1006 OFFCURVE",
"673 1006 CURVE SMOOTH",
"697 1006 LINE SMOOTH",
"720 1006 OFFCURVE",
"728 1004 OFFCURVE",
"728 982 CURVE SMOOTH",
"728 503 LINE SMOOTH",
"728 485 OFFCURVE",
"727 476 OFFCURVE",
"709 476 CURVE SMOOTH",
"657 476 LINE SMOOTH",
"638 476 OFFCURVE",
"639 481 OFFCURVE",
"638 499 CURVE SMOOTH",
"632 623 OFFCURVE",
"584 696 OFFCURVE",
"478 696 CURVE SMOOTH",
"378 696 LINE SMOOTH",
"350 696 OFFCURVE",
"348 688 OFFCURVE",
"348 659 CURVE SMOOTH",
"348 150 LINE SMOOTH",
"348 118 OFFCURVE",
"352 110 OFFCURVE",
"386 110 CURVE SMOOTH",
"460 110 LINE SMOOTH",
"479 110 OFFCURVE",
"488 109 OFFCURVE",
"488 90 CURVE SMOOTH",
"488 30 LINE SMOOTH",
"488 4 OFFCURVE",
"479 0 OFFCURVE",
"455 0 CURVE SMOOTH",
"63 0 LINE SMOOTH",
"43 0 OFFCURVE",
"38 0 OFFCURVE",
"38 20 CURVE SMOOTH",
"38 92 LINE SMOOTH",
"38 109 OFFCURVE",
"47 110 OFFCURVE",
"65 110 CURVE SMOOTH",
"131 110 LINE SMOOTH",
"153 110 OFFCURVE",
"158 117 OFFCURVE",
"158 140 CURVE SMOOTH",
"158 1360 LINE SMOOTH",
"158 1387 OFFCURVE",
"155 1390 OFFCURVE",
"129 1390 CURVE SMOOTH"
);
}
);
vertWidth = 0;
width = 978;
},
{
anchors = (
{
name = "Anchor-0";
position = "{824, 1500}";
},
{
name = "Anchor-1";
position = "{516, 0}";
},
{
name = "Anchor-2";
position = "{516, 0}";
}
);
layerId = "C903388A-C428-42EA-B608-801ADA807095";
paths = (
{
closed = 1;
nodes = (
"75 1230 LINE SMOOTH",
"52 1230 OFFCURVE",
"50 1238 OFFCURVE",
"50 1262 CURVE SMOOTH",
"50 1474 LINE SMOOTH",
"50 1499 OFFCURVE",
"59 1500 OFFCURVE",
"84 1500 CURVE SMOOTH",
"1524 1500 LINE SMOOTH",
"1556 1500 OFFCURVE",
"1560 1493 OFFCURVE",
"1560 1460 CURVE SMOOTH",
"1560 921 LINE SMOOTH",
"1560 893 OFFCURVE",
"1553 890 OFFCURVE",
"1524 890 CURVE SMOOTH",
"1346 890 LINE SMOOTH",
"1310 890 OFFCURVE",
"1301 890 OFFCURVE",
"1300 925 CURVE SMOOTH",
"1295 1135 OFFCURVE",
"1242 1230 OFFCURVE",
"1020 1230 CURVE SMOOTH",
"782 1230 LINE SMOOTH",
"750 1230 OFFCURVE",
"740 1229 OFFCURVE",
"740 1197 CURVE SMOOTH",
"740 851 LINE SMOOTH",
"740 841 OFFCURVE",
"743 837 OFFCURVE",
"749 837 CURVE SMOOTH",
"751 837 LINE SMOOTH",
"854 837 OFFCURVE",
"941 929 OFFCURVE",
"949 1049 CURVE SMOOTH",
"950 1064 OFFCURVE",
"948 1066 OFFCURVE",
"964 1066 CURVE SMOOTH",
"1117 1066 LINE SMOOTH",
"1138 1066 OFFCURVE",
"1140 1058 OFFCURVE",
"1140 1036 CURVE SMOOTH",
"1140 406 LINE SMOOTH",
"1140 382 OFFCURVE",
"1134 376 OFFCURVE",
"1108 376 CURVE SMOOTH",
"988 376 LINE SMOOTH",
"959 376 OFFCURVE",
"952 377 OFFCURVE",
"949 403 CURVE SMOOTH",
"937 521 OFFCURVE",
"846 615 OFFCURVE",
"754 615 CURVE SMOOTH",
"753 615 LINE SMOOTH",
"741 615 OFFCURVE",
"740 607 OFFCURVE",
"740 603 CURVE SMOOTH",
"740 317 LINE SMOOTH",
"740 277 OFFCURVE",
"745 270 OFFCURVE",
"787 270 CURVE SMOOTH",
"963 270 LINE SMOOTH",
"1000 270 OFFCURVE",
"1000 270 OFFCURVE",
"1000 233 CURVE SMOOTH",
"1000 47 LINE SMOOTH",
"1000 5 OFFCURVE",
"994 0 OFFCURVE",
"953 0 CURVE SMOOTH",
"91 0 LINE SMOOTH",
"58 0 OFFCURVE",
"50 3 OFFCURVE",
"50 35 CURVE SMOOTH",
"50 241 LINE SMOOTH",
"50 269 OFFCURVE",
"59 270 OFFCURVE",
"88 270 CURVE SMOOTH",
"227 270 LINE SMOOTH",
"267 270 OFFCURVE",
"270 277 OFFCURVE",
"270 318 CURVE SMOOTH",
"270 1195 LINE SMOOTH",
"270 1225 OFFCURVE",
"262 1230 OFFCURVE",
"234 1230 CURVE SMOOTH"
);
}
);
vertWidth = 0;
width = 1625;
}
);
leftKerningGroup = kc0_1;
rightKerningGroup = kc0_28;
unicode = 0046;
},
